<svg xmlns="http://www.w3.org/2000/svg" xmlns:xlink="http://www.w3.org/1999/xlink" width="819.847" height="588.006" viewBox="0 0 819.847 588.006">
  <defs>
    <clipPath id="clip-path">
      <ellipse id="Ellipse_76" data-name="Ellipse 76" cx="372" cy="221.5" rx="372" ry="221.5" transform="matrix(0.978, -0.208, 0.208, 0.978, -2056.885, -2054.511)" fill="#fff"/>
    </clipPath>
    <clipPath id="clip-path-2">
      <rect id="Rectangle_17976" data-name="Rectangle 17976" width="277" height="278" transform="translate(-2015 -2193)" fill="#fff"/>
    </clipPath>
  </defs>
  <g id="Group_3667" data-name="Group 3667" transform="translate(2056.885 2209.198)">
    <ellipse id="Ellipse_75" data-name="Ellipse 75" cx="372" cy="221.5" rx="372" ry="221.5" transform="matrix(0.978, -0.208, 0.208, 0.978, -2056.885, -2054.511)" fill="#fff"/>
    <g id="Mask_Group_2" data-name="Mask Group 2" clip-path="url(#clip-path)">
      <g id="Group_3605" data-name="Group 3605" transform="translate(-904.736 -1122.71)">
        <rect id="Rectangle_17965" data-name="Rectangle 17965" width="28.787" height="32.501" transform="translate(-1071.546 -598.618)" fill="#fff"/>
        <rect id="Rectangle_17968" data-name="Rectangle 17968" width="212.437" height="143.271" transform="translate(-1163.37 -738.575)" fill="#fff"/>
        <rect id="Rectangle_17969" data-name="Rectangle 17969" width="212.437" height="143.271" transform="translate(-1163.37 -738.575)" fill="none" stroke="#000" stroke-linecap="round" stroke-linejoin="round" stroke-width="1"/>
        <rect id="Rectangle_17970" data-name="Rectangle 17970" width="199.561" height="130.905" transform="translate(-1156.932 -732.393)" fill="#fff"/>
        <rect id="Rectangle_17971" data-name="Rectangle 17971" width="199.561" height="130.905" transform="translate(-1156.932 -732.393)" fill="none" stroke="#000" stroke-linecap="round" stroke-linejoin="round" stroke-width="1"/>
        <path id="Path_15770" data-name="Path 15770" d="M204.386,211.145s-20.721,32.418-20.016,33.827,14.093,17.265,15.151,17.971,7.4.352,7.4.352l10.571-8.809a8.485,8.485,0,0,0-1.057-3.876c-1.057-1.763-4.227-2.115-4.227-2.115s5.637-13.741,5.285-17.265-1.022-14.129-1.022-14.129Z" transform="translate(-1101.185 -899.902)" fill="#fff"/>
        <path id="Path_15771" data-name="Path 15771" d="M204.386,211.145s-20.721,32.418-20.016,33.827,14.093,17.265,15.151,17.971,7.4.352,7.4.352l10.571-8.809a8.485,8.485,0,0,0-1.057-3.876c-1.057-1.763-4.227-2.115-4.227-2.115s5.637-13.741,5.285-17.265-1.022-14.129-1.022-14.129Z" transform="translate(-1101.185 -899.902)" fill="none" stroke="#000" stroke-linecap="round" stroke-linejoin="round" stroke-width="1"/>
        <line id="Line_180" data-name="Line 180" x1="7.048" y2="7.399" transform="translate(-896.027 -651.406)" fill="none" stroke="#000" stroke-linecap="round" stroke-linejoin="round" stroke-width="1"/>
        <path id="Path_15772" data-name="Path 15772" d="M202.954,106.966s68.194,116.855,68.194,118.445-59.913,72.638-59.913,72.638l-12.082-5.958,26.4-71.451-34.463-23.86Z" transform="translate(-1095.952 -980.848)" fill="#ff9866"/>
        <path id="Path_15773" data-name="Path 15773" d="M202.954,106.966s68.194,116.855,68.194,118.445-59.913,72.638-59.913,72.638l-12.082-5.958,26.4-71.451-34.463-23.86Z" transform="translate(-1095.952 -980.848)" fill="none" stroke="#000" stroke-linecap="round" stroke-linejoin="round" stroke-width="1"/>
        <path id="Path_15774" data-name="Path 15774" d="M197.342,138.206l15.916,51.23L194.359,177Z" transform="translate(-1093.41 -956.574)" fill="#474747"/>
        <path id="Path_15775" data-name="Path 15775" d="M197.342,138.206l15.916,51.23L194.359,177Z" transform="translate(-1093.41 -956.574)" fill="none" stroke="#000" stroke-linecap="round" stroke-linejoin="round" stroke-width="1"/>
        <path id="Path_15776" data-name="Path 15776" d="M240.006,169.914l-29.525,5.631L226.4,165" transform="translate(-1080.883 -935.754)" fill="none" stroke="#000" stroke-linecap="round" stroke-linejoin="round" stroke-width="1"/>
        <line id="Line_181" data-name="Line 181" x2="15.87" y2="5.669" transform="translate(-893.777 -697.07)" fill="none" stroke="#000" stroke-linecap="round" stroke-linejoin="round" stroke-width="1"/>
        <path id="Path_15777" data-name="Path 15777" d="M284.131,161.708l-8.343,75.916,1.669,90.934H133.268l-2.5-41.713s-46.719-143.907-46.3-148.913,77.866-42.964,77.866-42.964l65.487-2.086L285.8,117.911l.418,20.439" transform="translate(-1178.797 -991.791)" fill="#ff9866"/>
        <path id="Path_15778" data-name="Path 15778" d="M284.131,161.708l-8.343,75.916,1.669,90.934H133.268l-2.5-41.713s-46.719-143.907-46.3-148.913,77.866-42.964,77.866-42.964l65.487-2.086L285.8,117.911l.418,20.439" transform="translate(-1178.797 -991.791)" fill="none" stroke="#000" stroke-linecap="round" stroke-linejoin="round" stroke-width="1"/>
        <path id="Path_15779" data-name="Path 15779" d="M153.987,119.053l13.466,16.3L158.24,313.967l17.011,19.845,21.263-21.972L175.96,136.064l4.961-24.1-7.8-19.845-34.729,2.836Z" transform="translate(-1136.893 -992.383)" fill="#fff"/>
        <path id="Path_15780" data-name="Path 15780" d="M153.987,119.053l13.466,16.3L158.24,313.967l17.011,19.845,21.263-21.972L175.96,136.064l4.961-24.1-7.8-19.845-34.729,2.836Z" transform="translate(-1136.893 -992.383)" fill="none" stroke="#000" stroke-linecap="round" stroke-linejoin="round" stroke-width="1"/>
        <path id="Path_15781" data-name="Path 15781" d="M126.4,60.253l8.761,42.964,33.368,28.364,22.109-18.353-.835-21.692h-9.594L138.5,70.681Z" transform="translate(-1146.209 -1017.143)" fill="#fff"/>
        <path id="Path_15782" data-name="Path 15782" d="M126.4,60.253l8.761,42.964,33.368,28.364,22.109-18.353-.835-21.692h-9.594L138.5,70.681Z" transform="translate(-1146.209 -1017.143)" fill="none" stroke="#000" stroke-linecap="round" stroke-linejoin="round" stroke-width="1"/>
        <path id="Path_15783" data-name="Path 15783" d="M154.339,105.157l7.092,31.7,19.6-31.284L168.521,85.136l.418,8.759Z" transform="translate(-1124.505 -997.809)" fill="#fff"/>
        <path id="Path_15784" data-name="Path 15784" d="M154.339,105.157l7.092,31.7,19.6-31.284L168.521,85.136l.418,8.759Z" transform="translate(-1124.505 -997.809)" fill="#ff9866" stroke="#000" stroke-linecap="round" stroke-linejoin="round" stroke-width="1"/>
        <path id="Path_15785" data-name="Path 15785" d="M136.076,84.431l-10.845,19.188,41.713,35.872,3.753-30.449Z" transform="translate(-1147.121 -998.357)" fill="#ff9866"/>
        <path id="Path_15786" data-name="Path 15786" d="M136.076,84.431l-10.845,19.188,41.713,35.872,3.753-30.449Z" transform="translate(-1147.121 -998.357)" fill="none" stroke="#000" stroke-linecap="round" stroke-linejoin="round" stroke-width="1"/>
        <path id="Path_15787" data-name="Path 15787" d="M128.746,94.759s-4.5-10.036-9-5.191.691,18,6.575,21.455,9.69,1.731,9.69,1.731,10.035,16.611,12.112,18,33.223,15.574,37.375,16.958,18-3.462,20.764-7.268.691-41.528,0-52.6-8.306-54.678-9.69-57.1,1.384-28.032-5.192-28.032-12.8,3.46-12.8,3.46,4.153-7.613-.693-5.191-12.458,7.959-40.144,18.342-18.687,27.339-17.994,29.07,9,46.372,9,46.372" transform="translate(-1152.888 -1063.571)" fill="#fff"/>
        <path id="Path_15788" data-name="Path 15788" d="M128.746,94.759s-4.5-10.036-9-5.191.691,18,6.575,21.455,9.69,1.731,9.69,1.731,10.035,16.611,12.112,18,33.223,15.574,37.375,16.958,18-3.462,20.764-7.268.691-41.528,0-52.6-8.306-54.678-9.69-57.1,1.384-28.032-5.192-28.032-12.8,3.46-12.8,3.46,4.153-7.613-.693-5.191-12.458,7.959-40.144,18.342-18.687,27.339-17.994,29.07S128.746,94.759,128.746,94.759Z" transform="translate(-1152.888 -1063.571)" fill="none" stroke="#000" stroke-linecap="round" stroke-linejoin="round" stroke-width="1"/>
        <path id="Path_15789" data-name="Path 15789" d="M124.256,54.113s-.247-.542-.668-1.3Z" transform="translate(-1148.398 -1022.925)" fill="none" stroke="#000" stroke-linecap="round" stroke-linejoin="round" stroke-width="1"/>
        <path id="Path_15790" data-name="Path 15790" d="M196.348,29.93c-.823-4.983,1.166-27.225-4.963-27.225-6.575,0-12.8,3.462-12.8,3.462s4.153-7.614-.691-5.191-12.458,7.959-40.144,18.34-18.689,27.339-18,29.07,9,46.372,9,46.372l6.23-2.076s-4.846-14.536-2.422-16.958,6.921-5.191,6.921-6.575-5.884-14.534-2.424-18.342c2.991-3.289,47.31-17.167,59.3-20.878" transform="translate(-1152.888 -1063.57)" fill="#474747"/>
        <path id="Path_15791" data-name="Path 15791" d="M196.348,29.93c-.823-4.983,1.166-27.225-4.963-27.225-6.575,0-12.8,3.462-12.8,3.462s4.153-7.614-.691-5.191-12.458,7.959-40.144,18.34-18.689,27.339-18,29.07,9,46.372,9,46.372l6.23-2.076s-4.846-14.536-2.422-16.958,6.921-5.191,6.921-6.575-5.884-14.534-2.424-18.342C140.042,47.519,184.362,33.641,196.348,29.93Z" transform="translate(-1152.888 -1063.57)" fill="none" stroke="#000" stroke-linecap="round" stroke-linejoin="round" stroke-width="1"/>
        <path id="Path_15792" data-name="Path 15792" d="M158.584,38.549,164.468,78l-9.343-2.422" transform="translate(-1123.894 -1034.007)" fill="none" stroke="#000" stroke-linecap="round" stroke-linejoin="round" stroke-width="1"/>
        <path id="Path_15793" data-name="Path 15793" d="M158.145,40.263s-12.458-1.731-19.38,2.422" transform="translate(-1136.605 -1032.953)" fill="none" stroke="#000" stroke-linecap="round" stroke-linejoin="round" stroke-width="2"/>
        <path id="Path_15794" data-name="Path 15794" d="M158.435,37.349s1.384-11.421,10.036-7.614" transform="translate(-1121.322 -1041.459)" fill="none" stroke="#000" stroke-linecap="round" stroke-linejoin="round" stroke-width="2"/>
        <path id="Path_15795" data-name="Path 15795" d="M144.607,64.256s9.343,3.806,16.265,4.153" transform="translate(-1132.066 -1014.033)" fill="none" stroke="#000" stroke-linecap="round" stroke-linejoin="round" stroke-width="1"/>
        <path id="Path_15796" data-name="Path 15796" d="M150.232,48.155c0,2.294-1.084,4.153-2.422,4.153s-2.424-1.859-2.424-4.153S146.472,44,147.81,44s2.422,1.859,2.422,4.153" transform="translate(-1131.461 -1029.77)"/>
        <path id="Path_15797" data-name="Path 15797" d="M150.232,48.155c0,2.294-1.084,4.153-2.422,4.153s-2.424-1.859-2.424-4.153S146.472,44,147.81,44,150.232,45.861,150.232,48.155Z" transform="translate(-1131.461 -1029.77)" fill="none" stroke="#000" stroke-linecap="round" stroke-linejoin="round" stroke-width="1"/>
        <path id="Path_15798" data-name="Path 15798" d="M166.98,43.286c0,2.294-1.084,4.153-2.422,4.153s-2.424-1.859-2.424-4.153,1.086-4.153,2.424-4.153,2.422,1.859,2.422,4.153" transform="translate(-1118.448 -1033.553)"/>
        <path id="Path_15799" data-name="Path 15799" d="M166.98,43.286c0,2.294-1.084,4.153-2.422,4.153s-2.424-1.859-2.424-4.153,1.086-4.153,2.424-4.153S166.98,40.992,166.98,43.286Z" transform="translate(-1118.448 -1033.553)" fill="none" stroke="#000" stroke-linecap="round" stroke-linejoin="round" stroke-width="1"/>
        <path id="Path_15800" data-name="Path 15800" d="M157.823,95.016s-4.846-8.306-3.463-8.652,18.69-5.537,18.342-8.306-5.535-5.191-9.69-4.153S137.75,79.1,138.443,82.211s7.266,21.8,9.69,26.3,5.189,42.566,5.189,42.566h17.651L171.666,140s9-1.729,10.035-4.153.345-9.69.345-9.69,7.963-1.384,7.963-3.113,2.42-17.3,0-19.38-19.38-12.8-22.5-12.8-9.688,4.153-9.688,4.153" transform="translate(-1136.868 -1006.726)" fill="#fff"/>
        <path id="Path_15801" data-name="Path 15801" d="M157.823,95.016s-4.846-8.306-3.463-8.652,18.69-5.537,18.342-8.306-5.535-5.191-9.69-4.153S137.75,79.1,138.443,82.211s7.266,21.8,9.69,26.3,5.189,42.566,5.189,42.566h17.651L171.666,140s9-1.729,10.035-4.153.345-9.69.345-9.69,7.963-1.384,7.963-3.113,2.42-17.3,0-19.38-19.38-12.8-22.5-12.8S157.823,95.016,157.823,95.016Z" transform="translate(-1136.868 -1006.726)" fill="none" stroke="#000" stroke-linecap="round" stroke-linejoin="round" stroke-width="1"/>
        <path id="Path_15802" data-name="Path 15802" d="M162.974,106.988l.346-6.921,3.113-1.731" transform="translate(-1117.795 -987.553)" fill="none" stroke="#000" stroke-linecap="round" stroke-linejoin="round" stroke-width="1"/>
        <line id="Line_182" data-name="Line 182" x1="7.268" y2="4.846" transform="translate(-986.314 -911.71)" fill="none" stroke="#000" stroke-linecap="round" stroke-linejoin="round" stroke-width="1"/>
        <path id="Path_15803" data-name="Path 15803" d="M148.257,121.936l37.958,64.236,3.342-68.945h17.649s11.127,71.031,13.629,88.551,2.086,35.456-.416,39.209-13.624,16.174-17.8,16.174-16.826-7-18.911-10.333c-1.072-1.713-27.058-16.082-49.214-39.007-21.007-21.738-42.708-53.247-42.708-53.247" transform="translate(-1173.103 -972.875)" fill="#ff9866"/>
        <path id="Path_15804" data-name="Path 15804" d="M148.257,121.936l37.958,64.236,3.342-68.945h17.649s11.127,71.031,13.629,88.551,2.086,35.456-.416,39.209-13.624,16.174-17.8,16.174-16.826-7-18.911-10.333c-1.072-1.713-27.058-16.082-49.214-39.007-21.007-21.738-42.708-53.247-42.708-53.247" transform="translate(-1173.103 -972.875)" fill="none" stroke="#000" stroke-linecap="round" stroke-linejoin="round" stroke-width="1"/>
        <line id="Line_183" data-name="Line 183" x1="4.588" y2="40.878" transform="translate(-991.475 -786.702)" fill="none" stroke="#000" stroke-linecap="round" stroke-linejoin="round" stroke-width="1"/>
        <line id="Line_184" data-name="Line 184" x2="18.77" transform="translate(-984.384 -845.517)" fill="none" stroke="#000" stroke-linecap="round" stroke-linejoin="round" stroke-width="1"/>
        <path id="Path_15805" data-name="Path 15805" d="M111.928,225.509v96.867h146.8l-2.612-96.867Z" transform="translate(-1157.457 -888.742)" fill="#474747"/>
        <path id="Path_15806" data-name="Path 15806" d="M111.928,225.509v96.867h146.8l-2.612-96.867Z" transform="translate(-1157.457 -888.742)" fill="none" stroke="#000" stroke-linecap="round" stroke-linejoin="round" stroke-width="1"/>
        <path id="Path_15877" data-name="Path 15877" d="M82.785,252.074s-9-6.139-15.961-1.228-7.776,29.468,0,38.063c4.469,4.94,16.37.817,16.37.817l.819-11.869s-7.5,7.51-11.46-.409c-2.456-4.912-1.228-16.371,3.275-18.418s8.593,2.456,8.593,2.456Z" transform="translate(-935.136 -856.079)" fill="#ff9866"/>
        <path id="Path_15878" data-name="Path 15878" d="M82.785,252.074s-9-6.139-15.961-1.228-7.776,29.468,0,38.063c4.469,4.94,16.37.817,16.37.817l.819-11.869s-7.5,7.51-11.46-.409c-2.456-4.912-1.228-16.371,3.275-18.418s8.593,2.456,8.593,2.456Z" transform="translate(-935.136 -856.079)" fill="none" stroke="#000" stroke-linecap="round" stroke-linejoin="round" stroke-width="1"/>
        <path id="Path_15879" data-name="Path 15879" d="M76.2,255.3s14.9-6.3,14.9-18.339-7.451-12.034-8.6-20.629" transform="translate(-923.554 -881.416)" fill="none" stroke="#000" stroke-linecap="round" stroke-linejoin="round" stroke-width="1"/>
        <path id="Path_15880" data-name="Path 15880" d="M86.225,216.01s-1.146,6.877,6.3,12.608,4.012,14.9.574,19.483" transform="translate(-915.814 -881.666)" fill="none" stroke="#000" stroke-linecap="round" stroke-linejoin="round" stroke-width="1"/>
        <path id="Path_15881" data-name="Path 15881" d="M87.487,214.969a12.007,12.007,0,0,1,5.731-5.731" transform="translate(-914.784 -886.928)" fill="none" stroke="#000" stroke-linecap="round" stroke-linejoin="round" stroke-width="1"/>
        <rect id="Rectangle_17974" data-name="Rectangle 17974" width="55.445" height="68.86" transform="translate(-854.625 -620.769)" fill="#ff9866"/>
        <rect id="Rectangle_17975" data-name="Rectangle 17975" width="55.445" height="68.86" transform="translate(-854.625 -620.769)" fill="none" stroke="#000" stroke-linecap="round" stroke-linejoin="round" stroke-width="1"/>
      </g>
    </g>
    <g id="Mask_Group_3" data-name="Mask Group 3" clip-path="url(#clip-path-2)">
      <g id="Group_3604" data-name="Group 3604" transform="translate(-904.736 -1122.71)">
        <rect id="Rectangle_17965-2" data-name="Rectangle 17965" width="28.787" height="32.501" transform="translate(-1071.546 -598.618)" fill="#fff"/>
        <rect id="Rectangle_17968-2" data-name="Rectangle 17968" width="212.437" height="143.271" transform="translate(-1163.37 -738.575)" fill="#fff"/>
        <rect id="Rectangle_17969-2" data-name="Rectangle 17969" width="212.437" height="143.271" transform="translate(-1163.37 -738.575)" fill="none" stroke="#000" stroke-linecap="round" stroke-linejoin="round" stroke-width="1"/>
        <rect id="Rectangle_17970-2" data-name="Rectangle 17970" width="199.561" height="130.905" transform="translate(-1156.932 -732.393)" fill="#fff"/>
        <rect id="Rectangle_17971-2" data-name="Rectangle 17971" width="199.561" height="130.905" transform="translate(-1156.932 -732.393)" fill="none" stroke="#000" stroke-linecap="round" stroke-linejoin="round" stroke-width="1"/>
        <path id="Path_15770-2" data-name="Path 15770" d="M204.386,211.145s-20.721,32.418-20.016,33.827,14.093,17.265,15.151,17.971,7.4.352,7.4.352l10.571-8.809a8.485,8.485,0,0,0-1.057-3.876c-1.057-1.763-4.227-2.115-4.227-2.115s5.637-13.741,5.285-17.265-1.022-14.129-1.022-14.129Z" transform="translate(-1101.185 -899.902)" fill="#fff"/>
        <path id="Path_15771-2" data-name="Path 15771" d="M204.386,211.145s-20.721,32.418-20.016,33.827,14.093,17.265,15.151,17.971,7.4.352,7.4.352l10.571-8.809a8.485,8.485,0,0,0-1.057-3.876c-1.057-1.763-4.227-2.115-4.227-2.115s5.637-13.741,5.285-17.265-1.022-14.129-1.022-14.129Z" transform="translate(-1101.185 -899.902)" fill="none" stroke="#000" stroke-linecap="round" stroke-linejoin="round" stroke-width="1"/>
        <line id="Line_180-2" data-name="Line 180" x1="7.048" y2="7.399" transform="translate(-896.027 -651.406)" fill="none" stroke="#000" stroke-linecap="round" stroke-linejoin="round" stroke-width="1"/>
        <path id="Path_15772-2" data-name="Path 15772" d="M202.954,106.966s68.194,116.855,68.194,118.445-59.913,72.638-59.913,72.638l-12.082-5.958,26.4-71.451-34.463-23.86Z" transform="translate(-1095.952 -980.848)" fill="#ff9866"/>
        <path id="Path_15773-2" data-name="Path 15773" d="M202.954,106.966s68.194,116.855,68.194,118.445-59.913,72.638-59.913,72.638l-12.082-5.958,26.4-71.451-34.463-23.86Z" transform="translate(-1095.952 -980.848)" fill="none" stroke="#000" stroke-linecap="round" stroke-linejoin="round" stroke-width="1"/>
        <path id="Path_15774-2" data-name="Path 15774" d="M197.342,138.206l15.916,51.23L194.359,177Z" transform="translate(-1093.41 -956.574)" fill="#474747"/>
        <path id="Path_15775-2" data-name="Path 15775" d="M197.342,138.206l15.916,51.23L194.359,177Z" transform="translate(-1093.41 -956.574)" fill="none" stroke="#000" stroke-linecap="round" stroke-linejoin="round" stroke-width="1"/>
        <path id="Path_15776-2" data-name="Path 15776" d="M240.006,169.914l-29.525,5.631L226.4,165" transform="translate(-1080.883 -935.754)" fill="none" stroke="#000" stroke-linecap="round" stroke-linejoin="round" stroke-width="1"/>
        <line id="Line_181-2" data-name="Line 181" x2="15.87" y2="5.669" transform="translate(-893.777 -697.07)" fill="none" stroke="#000" stroke-linecap="round" stroke-linejoin="round" stroke-width="1"/>
        <path id="Path_15777-2" data-name="Path 15777" d="M284.131,161.708l-8.343,75.916,1.669,90.934H133.268l-2.5-41.713s-46.719-143.907-46.3-148.913,77.866-42.964,77.866-42.964l65.487-2.086L285.8,117.911l.418,20.439" transform="translate(-1178.797 -991.791)" fill="#ff9866"/>
        <path id="Path_15778-2" data-name="Path 15778" d="M284.131,161.708l-8.343,75.916,1.669,90.934H133.268l-2.5-41.713s-46.719-143.907-46.3-148.913,77.866-42.964,77.866-42.964l65.487-2.086L285.8,117.911l.418,20.439" transform="translate(-1178.797 -991.791)" fill="none" stroke="#000" stroke-linecap="round" stroke-linejoin="round" stroke-width="1"/>
        <path id="Path_15779-2" data-name="Path 15779" d="M153.987,119.053l13.466,16.3L158.24,313.967l17.011,19.845,21.263-21.972L175.96,136.064l4.961-24.1-7.8-19.845-34.729,2.836Z" transform="translate(-1136.893 -992.383)" fill="#fff"/>
        <path id="Path_15780-2" data-name="Path 15780" d="M153.987,119.053l13.466,16.3L158.24,313.967l17.011,19.845,21.263-21.972L175.96,136.064l4.961-24.1-7.8-19.845-34.729,2.836Z" transform="translate(-1136.893 -992.383)" fill="none" stroke="#000" stroke-linecap="round" stroke-linejoin="round" stroke-width="1"/>
        <path id="Path_15781-2" data-name="Path 15781" d="M126.4,60.253l8.761,42.964,33.368,28.364,22.109-18.353-.835-21.692h-9.594L138.5,70.681Z" transform="translate(-1146.209 -1017.143)" fill="#fff"/>
        <path id="Path_15782-2" data-name="Path 15782" d="M126.4,60.253l8.761,42.964,33.368,28.364,22.109-18.353-.835-21.692h-9.594L138.5,70.681Z" transform="translate(-1146.209 -1017.143)" fill="none" stroke="#000" stroke-linecap="round" stroke-linejoin="round" stroke-width="1"/>
        <path id="Path_15783-2" data-name="Path 15783" d="M154.339,105.157l7.092,31.7,19.6-31.284L168.521,85.136l.418,8.759Z" transform="translate(-1124.505 -997.809)" fill="#fff"/>
        <path id="Path_15784-2" data-name="Path 15784" d="M154.339,105.157l7.092,31.7,19.6-31.284L168.521,85.136l.418,8.759Z" transform="translate(-1124.505 -997.809)" fill="#ff9866" stroke="#000" stroke-linecap="round" stroke-linejoin="round" stroke-width="1"/>
        <path id="Path_15785-2" data-name="Path 15785" d="M136.076,84.431l-10.845,19.188,41.713,35.872,3.753-30.449Z" transform="translate(-1147.121 -998.357)" fill="#ff9866"/>
        <path id="Path_15786-2" data-name="Path 15786" d="M136.076,84.431l-10.845,19.188,41.713,35.872,3.753-30.449Z" transform="translate(-1147.121 -998.357)" fill="none" stroke="#000" stroke-linecap="round" stroke-linejoin="round" stroke-width="1"/>
        <path id="Path_15787-2" data-name="Path 15787" d="M128.746,94.759s-4.5-10.036-9-5.191.691,18,6.575,21.455,9.69,1.731,9.69,1.731,10.035,16.611,12.112,18,33.223,15.574,37.375,16.958,18-3.462,20.764-7.268.691-41.528,0-52.6-8.306-54.678-9.69-57.1,1.384-28.032-5.192-28.032-12.8,3.46-12.8,3.46,4.153-7.613-.693-5.191-12.458,7.959-40.144,18.342-18.687,27.339-17.994,29.07,9,46.372,9,46.372" transform="translate(-1152.888 -1063.571)" fill="#fff"/>
        <path id="Path_15788-2" data-name="Path 15788" d="M128.746,94.759s-4.5-10.036-9-5.191.691,18,6.575,21.455,9.69,1.731,9.69,1.731,10.035,16.611,12.112,18,33.223,15.574,37.375,16.958,18-3.462,20.764-7.268.691-41.528,0-52.6-8.306-54.678-9.69-57.1,1.384-28.032-5.192-28.032-12.8,3.46-12.8,3.46,4.153-7.613-.693-5.191-12.458,7.959-40.144,18.342-18.687,27.339-17.994,29.07S128.746,94.759,128.746,94.759Z" transform="translate(-1152.888 -1063.571)" fill="none" stroke="#000" stroke-linecap="round" stroke-linejoin="round" stroke-width="1"/>
        <path id="Path_15789-2" data-name="Path 15789" d="M124.256,54.113s-.247-.542-.668-1.3Z" transform="translate(-1148.398 -1022.925)" fill="none" stroke="#000" stroke-linecap="round" stroke-linejoin="round" stroke-width="1"/>
        <path id="Path_15790-2" data-name="Path 15790" d="M196.348,29.93c-.823-4.983,1.166-27.225-4.963-27.225-6.575,0-12.8,3.462-12.8,3.462s4.153-7.614-.691-5.191-12.458,7.959-40.144,18.34-18.689,27.339-18,29.07,9,46.372,9,46.372l6.23-2.076s-4.846-14.536-2.422-16.958,6.921-5.191,6.921-6.575-5.884-14.534-2.424-18.342c2.991-3.289,47.31-17.167,59.3-20.878" transform="translate(-1152.888 -1063.57)" fill="#474747"/>
        <path id="Path_15791-2" data-name="Path 15791" d="M196.348,29.93c-.823-4.983,1.166-27.225-4.963-27.225-6.575,0-12.8,3.462-12.8,3.462s4.153-7.614-.691-5.191-12.458,7.959-40.144,18.34-18.689,27.339-18,29.07,9,46.372,9,46.372l6.23-2.076s-4.846-14.536-2.422-16.958,6.921-5.191,6.921-6.575-5.884-14.534-2.424-18.342C140.042,47.519,184.362,33.641,196.348,29.93Z" transform="translate(-1152.888 -1063.57)" fill="none" stroke="#000" stroke-linecap="round" stroke-linejoin="round" stroke-width="1"/>
        <path id="Path_15792-2" data-name="Path 15792" d="M158.584,38.549,164.468,78l-9.343-2.422" transform="translate(-1123.894 -1034.007)" fill="none" stroke="#000" stroke-linecap="round" stroke-linejoin="round" stroke-width="1"/>
        <path id="Path_15793-2" data-name="Path 15793" d="M158.145,40.263s-12.458-1.731-19.38,2.422" transform="translate(-1136.605 -1032.953)" fill="none" stroke="#000" stroke-linecap="round" stroke-linejoin="round" stroke-width="2"/>
        <path id="Path_15794-2" data-name="Path 15794" d="M158.435,37.349s1.384-11.421,10.036-7.614" transform="translate(-1121.322 -1041.459)" fill="none" stroke="#000" stroke-linecap="round" stroke-linejoin="round" stroke-width="2"/>
        <path id="Path_15795-2" data-name="Path 15795" d="M144.607,64.256s9.343,3.806,16.265,4.153" transform="translate(-1132.066 -1014.033)" fill="none" stroke="#000" stroke-linecap="round" stroke-linejoin="round" stroke-width="1"/>
        <path id="Path_15796-2" data-name="Path 15796" d="M150.232,48.155c0,2.294-1.084,4.153-2.422,4.153s-2.424-1.859-2.424-4.153S146.472,44,147.81,44s2.422,1.859,2.422,4.153" transform="translate(-1131.461 -1029.77)"/>
        <path id="Path_15797-2" data-name="Path 15797" d="M150.232,48.155c0,2.294-1.084,4.153-2.422,4.153s-2.424-1.859-2.424-4.153S146.472,44,147.81,44,150.232,45.861,150.232,48.155Z" transform="translate(-1131.461 -1029.77)" fill="none" stroke="#000" stroke-linecap="round" stroke-linejoin="round" stroke-width="1"/>
        <path id="Path_15798-2" data-name="Path 15798" d="M166.98,43.286c0,2.294-1.084,4.153-2.422,4.153s-2.424-1.859-2.424-4.153,1.086-4.153,2.424-4.153,2.422,1.859,2.422,4.153" transform="translate(-1118.448 -1033.553)"/>
        <path id="Path_15799-2" data-name="Path 15799" d="M166.98,43.286c0,2.294-1.084,4.153-2.422,4.153s-2.424-1.859-2.424-4.153,1.086-4.153,2.424-4.153S166.98,40.992,166.98,43.286Z" transform="translate(-1118.448 -1033.553)" fill="none" stroke="#000" stroke-linecap="round" stroke-linejoin="round" stroke-width="1"/>
        <path id="Path_15800-2" data-name="Path 15800" d="M157.823,95.016s-4.846-8.306-3.463-8.652,18.69-5.537,18.342-8.306-5.535-5.191-9.69-4.153S137.75,79.1,138.443,82.211s7.266,21.8,9.69,26.3,5.189,42.566,5.189,42.566h17.651L171.666,140s9-1.729,10.035-4.153.345-9.69.345-9.69,7.963-1.384,7.963-3.113,2.42-17.3,0-19.38-19.38-12.8-22.5-12.8-9.688,4.153-9.688,4.153" transform="translate(-1136.868 -1006.726)" fill="#fff"/>
        <path id="Path_15801-2" data-name="Path 15801" d="M157.823,95.016s-4.846-8.306-3.463-8.652,18.69-5.537,18.342-8.306-5.535-5.191-9.69-4.153S137.75,79.1,138.443,82.211s7.266,21.8,9.69,26.3,5.189,42.566,5.189,42.566h17.651L171.666,140s9-1.729,10.035-4.153.345-9.69.345-9.69,7.963-1.384,7.963-3.113,2.42-17.3,0-19.38-19.38-12.8-22.5-12.8S157.823,95.016,157.823,95.016Z" transform="translate(-1136.868 -1006.726)" fill="none" stroke="#000" stroke-linecap="round" stroke-linejoin="round" stroke-width="1"/>
        <path id="Path_15802-2" data-name="Path 15802" d="M162.974,106.988l.346-6.921,3.113-1.731" transform="translate(-1117.795 -987.553)" fill="none" stroke="#000" stroke-linecap="round" stroke-linejoin="round" stroke-width="1"/>
        <line id="Line_182-2" data-name="Line 182" x1="7.268" y2="4.846" transform="translate(-986.314 -911.71)" fill="none" stroke="#000" stroke-linecap="round" stroke-linejoin="round" stroke-width="1"/>
        <path id="Path_15803-2" data-name="Path 15803" d="M148.257,121.936l37.958,64.236,3.342-68.945h17.649s11.127,71.031,13.629,88.551,2.086,35.456-.416,39.209-13.624,16.174-17.8,16.174-16.826-7-18.911-10.333c-1.072-1.713-27.058-16.082-49.214-39.007-21.007-21.738-42.708-53.247-42.708-53.247" transform="translate(-1173.103 -972.875)" fill="#ff9866"/>
        <path id="Path_15804-2" data-name="Path 15804" d="M148.257,121.936l37.958,64.236,3.342-68.945h17.649s11.127,71.031,13.629,88.551,2.086,35.456-.416,39.209-13.624,16.174-17.8,16.174-16.826-7-18.911-10.333c-1.072-1.713-27.058-16.082-49.214-39.007-21.007-21.738-42.708-53.247-42.708-53.247" transform="translate(-1173.103 -972.875)" fill="none" stroke="#000" stroke-linecap="round" stroke-linejoin="round" stroke-width="1"/>
        <line id="Line_183-2" data-name="Line 183" x1="4.588" y2="40.878" transform="translate(-991.475 -786.702)" fill="none" stroke="#000" stroke-linecap="round" stroke-linejoin="round" stroke-width="1"/>
        <line id="Line_184-2" data-name="Line 184" x2="18.77" transform="translate(-984.384 -845.517)" fill="none" stroke="#000" stroke-linecap="round" stroke-linejoin="round" stroke-width="1"/>
        <path id="Path_15805-2" data-name="Path 15805" d="M111.928,225.509v96.867h146.8l-2.612-96.867Z" transform="translate(-1157.457 -888.742)" fill="#474747"/>
        <path id="Path_15806-2" data-name="Path 15806" d="M111.928,225.509v96.867h146.8l-2.612-96.867Z" transform="translate(-1157.457 -888.742)" fill="none" stroke="#000" stroke-linecap="round" stroke-linejoin="round" stroke-width="1"/>
        <path id="Path_15877-2" data-name="Path 15877" d="M82.785,252.074s-9-6.139-15.961-1.228-7.776,29.468,0,38.063c4.469,4.94,16.37.817,16.37.817l.819-11.869s-7.5,7.51-11.46-.409c-2.456-4.912-1.228-16.371,3.275-18.418s8.593,2.456,8.593,2.456Z" transform="translate(-947.136 -847.183)" fill="#ff9866"/>
        <path id="Path_15878-2" data-name="Path 15878" d="M82.785,252.074s-9-6.139-15.961-1.228-7.776,29.468,0,38.063c4.469,4.94,16.37.817,16.37.817l.819-11.869s-7.5,7.51-11.46-.409c-2.456-4.912-1.228-16.371,3.275-18.418s8.593,2.456,8.593,2.456Z" transform="translate(-947.136 -847.183)" fill="none" stroke="#000" stroke-linecap="round" stroke-linejoin="round" stroke-width="1"/>
        <path id="Path_15879-2" data-name="Path 15879" d="M76.2,255.3s14.9-6.3,14.9-18.339-7.451-12.034-8.6-20.629" transform="translate(-935.554 -872.519)" fill="none" stroke="#000" stroke-linecap="round" stroke-linejoin="round" stroke-width="1"/>
        <path id="Path_15880-2" data-name="Path 15880" d="M86.225,216.01s-1.146,6.877,6.3,12.608,4.012,14.9.574,19.483" transform="translate(-927.814 -872.769)" fill="none" stroke="#000" stroke-linecap="round" stroke-linejoin="round" stroke-width="1"/>
        <path id="Path_15881-2" data-name="Path 15881" d="M87.487,214.969a12.007,12.007,0,0,1,5.731-5.731" transform="translate(-926.784 -878.031)" fill="none" stroke="#000" stroke-linecap="round" stroke-linejoin="round" stroke-width="1"/>
        <rect id="Rectangle_17974-2" data-name="Rectangle 17974" width="55.445" height="68.86" transform="translate(-866.625 -611.873)" fill="#ff9866"/>
        <rect id="Rectangle_17975-2" data-name="Rectangle 17975" width="55.445" height="68.86" transform="translate(-866.625 -611.873)" fill="none" stroke="#000" stroke-linecap="round" stroke-linejoin="round" stroke-width="1"/>
      </g>
    </g>
  </g>
</svg>
