<svg xmlns="http://www.w3.org/2000/svg" xmlns:xlink="http://www.w3.org/1999/xlink" width="887.962" height="588.006" viewBox="0 0 887.962 588.006">
  <defs>
    <clipPath id="clip-path">
      <ellipse id="Ellipse_76" data-name="Ellipse 76" cx="372" cy="221.5" rx="372" ry="221.5" transform="matrix(0.978, -0.208, 0.208, 0.978, -846.984, -2314.316)" fill="#fff"/>
    </clipPath>
    <clipPath id="clip-path-2">
      <path id="Path_15887" data-name="Path 15887" d="M-915.1-2469v242.16l98.176,147.871,259.379,84.844-8.484-467.852Z" fill="#fff"/>
    </clipPath>
  </defs>
  <g id="Group_3670" data-name="Group 3670" transform="translate(2078.481 1597.538)">
    <ellipse id="Ellipse_75" data-name="Ellipse 75" cx="372" cy="221.5" rx="372" ry="221.5" transform="matrix(0.996, -0.087, 0.087, 0.996, -1995.332, -1477.771)" fill="#fff"/>
    <g id="Mask_Group_1" data-name="Mask Group 1" transform="translate(-1163.381 871.465)" clip-path="url(#clip-path)">
      <g id="Group_3601" data-name="Group 3601" transform="translate(-853.81 -120.464)">
        <path id="Path_15807" data-name="Path 15807" d="M368.169,25.863S346.2,31.777,340.29,46.14s-1.691,17.319-.423,16.9,4.223-5.914,4.223-5.914-4.646,13.1,1.268,18.587S360.989,88.8,360.989,88.8s-1.268,16.9-6.337,27.458S342.4,138.65,346.2,143.3s8.448-2.112,8.448-2.112,4.223,10.56,19.008,14.362,45.6,9.114,58.269,7.425a43.72,43.72,0,0,0,21.147-9.114s-3.8,7.18,2.957,2.957,10.983-9.716,17.74-24.924,10.984-39.284,7.6-57.872S461.525,39.8,450.542,30.932,417.17,13.613,396.894,15.724s-28.724,10.139-28.724,10.139" transform="translate(-209.522 -2333.221)" fill="#474747"/>
        <path id="Path_15808" data-name="Path 15808" d="M368.169,25.863S346.2,31.777,340.29,46.14s-1.691,17.319-.423,16.9,4.223-5.914,4.223-5.914-4.646,13.1,1.268,18.587S360.989,88.8,360.989,88.8s-1.268,16.9-6.337,27.458S342.4,138.65,346.2,143.3s8.448-2.112,8.448-2.112,4.223,10.56,19.008,14.362,45.6,9.114,58.269,7.425a43.72,43.72,0,0,0,21.147-9.114s-3.8,7.18,2.957,2.957,10.983-9.716,17.74-24.924,10.984-39.284,7.6-57.872S461.525,39.8,450.542,30.932,417.17,13.613,396.894,15.724,368.169,25.863,368.169,25.863Z" transform="translate(-209.522 -2333.221)" fill="#474747" stroke="#000" stroke-linecap="round" stroke-linejoin="round" stroke-width="1"/>
        <path id="Path_15809" data-name="Path 15809" d="M429.465,113.879l5.545,69.676-29.3,54.215-12.238-24.922Z" transform="translate(-164.594 -2254.568)" fill="#ff9866"/>
        <path id="Path_15810" data-name="Path 15810" d="M429.465,113.879l5.545,69.676-29.3,54.215-12.238-24.922Z" transform="translate(-164.594 -2254.568)" fill="none" stroke="#000" stroke-linecap="round" stroke-linejoin="round" stroke-width="1"/>
        <path id="Path_15811" data-name="Path 15811" d="M409.123,146.364l-8.484,54.415-7.313-12Z" transform="translate(-164.713 -2228.624)" fill="#474747"/>
        <path id="Path_15812" data-name="Path 15812" d="M409.123,146.364l-8.484,54.415-7.313-12Z" transform="translate(-164.713 -2228.624)" fill="none" stroke="#000" stroke-linecap="round" stroke-linejoin="round" stroke-width="1"/>
        <path id="Path_15813" data-name="Path 15813" d="M308.413,327.9l6-85.241,176.41,9.133,3,74.587Z" transform="translate(-232.528 -2151.719)" fill="#474747"/>
        <path id="Path_15814" data-name="Path 15814" d="M308.413,327.9l6-85.241,176.41,9.133,3,74.587Z" transform="translate(-232.528 -2151.719)" fill="none" stroke="#000" stroke-linecap="round" stroke-linejoin="round" stroke-width="1"/>
        <path id="Path_15815" data-name="Path 15815" d="M400.985,34.563s-2.736,17.979.39,21.105,18.762,10.554,18.762,10.554-1.955-19.934-1.955-21.107S429.127,72.085,434.6,75.6,450.232,87.72,450.232,87.72s1.565,4.689,3.128,4.3,5.081-3.908,5.081-3.908,11.335-3.128,10.162,5.864-8.99,21.105-13.681,21.888a33.052,33.052,0,0,1-8.207.39s-6.254,18.762-7.036,25.014-1.173,7.427-.39,9.772,18.762,10.945,22.67,12.118,35.176,14.071,35.176,14.071L460,281.194l38.3,137.19s-57.456,13.29-112.177,8.209-77.389-16.808-77.389-16.808l46.511-131.719L338.448,165.109,400.2,153.774l1.173-14.071s-15.244-4.3-20.325-15.244c-5.268-11.35-.39-31.268,0-37.131s.782-14.071,0-20.715,2.345-27.359,19.935-32.05" transform="translate(-232.265 -2317.914)" fill="#ff9866"/>
        <path id="Path_15816" data-name="Path 15816" d="M400.985,34.563s-2.736,17.979.39,21.105,18.762,10.554,18.762,10.554-1.955-19.934-1.955-21.107S429.127,72.085,434.6,75.6,450.232,87.72,450.232,87.72s1.565,4.689,3.128,4.3,5.081-3.908,5.081-3.908,11.335-3.128,10.162,5.864-8.99,21.105-13.681,21.888a33.052,33.052,0,0,1-8.207.39s-6.254,18.762-7.036,25.014-1.173,7.427-.39,9.772,18.762,10.945,22.67,12.118,35.176,14.071,35.176,14.071L460,281.194l38.3,137.19s-57.456,13.29-112.177,8.209-77.389-16.808-77.389-16.808l46.511-131.719L338.448,165.109,400.2,153.774l1.173-14.071s-15.244-4.3-20.325-15.244c-5.268-11.35-.39-31.268,0-37.131s.782-14.071,0-20.715S383.4,39.254,400.985,34.563Z" transform="translate(-232.265 -2317.914)" fill="none" stroke="#000" stroke-linecap="round" stroke-linejoin="round" stroke-width="1"/>
        <path id="Path_15817" data-name="Path 15817" d="M344.7,161.563s42.371,25.422,44.065,25.987" transform="translate(-203.544 -2216.485)" fill="none" stroke="#000" stroke-linecap="round" stroke-linejoin="round" stroke-width="1"/>
        <line id="Line_185" data-name="Line 185" x2="29.942" y2="20.337" transform="translate(158.109 -2038.539)" fill="none" stroke="#000" stroke-linecap="round" stroke-linejoin="round" stroke-width="1"/>
        <path id="Path_15818" data-name="Path 15818" d="M425.558,160.2c-6.608-3.077-15.109-7.571-15.641-9.166-.782-2.345-.39-3.518.39-9.772s7.036-25.014,7.036-25.014a33.008,33.008,0,0,0,8.207-.392c4.691-.781,12.508-12.9,13.68-21.888s-10.162-5.864-10.162-5.864-3.518,3.518-5.081,3.908-3.128-4.3-3.128-4.3S410.7,79.119,405.226,75.6,388.81,43.943,388.81,45.116s1.955,21.105,1.955,21.105S375.131,58.8,372,55.668s-.39-21.105-.39-21.105c-17.589,4.689-20.715,25.4-19.934,32.05s.392,14.851,0,20.715-5.268,25.782,0,37.131C356.76,135.4,372,139.7,372,139.7l-1.173,14.071-17.267,3.169-8.044,46.141,63.822,4.524Z" transform="translate(-202.893 -2317.914)" fill="#fff"/>
        <path id="Path_15819" data-name="Path 15819" d="M425.558,160.2c-6.608-3.077-15.109-7.571-15.641-9.166-.782-2.345-.39-3.518.39-9.772s7.036-25.014,7.036-25.014a33.008,33.008,0,0,0,8.207-.392c4.691-.781,12.508-12.9,13.68-21.888s-10.162-5.864-10.162-5.864-3.518,3.518-5.081,3.908-3.128-4.3-3.128-4.3S410.7,79.119,405.226,75.6,388.81,43.943,388.81,45.116s1.955,21.105,1.955,21.105S375.131,58.8,372,55.668s-.39-21.105-.39-21.105c-17.589,4.689-20.715,25.4-19.934,32.05s.392,14.851,0,20.715-5.268,25.782,0,37.131C356.76,135.4,372,139.7,372,139.7l-1.173,14.071-17.267,3.169-8.044,46.141,63.822,4.524Z" transform="translate(-202.893 -2317.914)" fill="none" stroke="#000" stroke-linecap="round" stroke-linejoin="round" stroke-width="1"/>
        <line id="Line_186" data-name="Line 186" x1="0.527" y2="12.13" transform="translate(167.411 -2164.14)" fill="none" stroke="#000" stroke-linecap="round" stroke-linejoin="round" stroke-width="1"/>
        <path id="Path_15820" data-name="Path 15820" d="M391.441,86.173a40.5,40.5,0,0,1-22.429,9.49" transform="translate(-184.131 -2276.696)" fill="none" stroke="#000" stroke-linecap="round" stroke-linejoin="round" stroke-width="1"/>
        <path id="Path_15821" data-name="Path 15821" d="M358.072,79.149a20.969,20.969,0,0,0,21.886-5.471" transform="translate(-192.868 -2286.675)" fill="none" stroke="#000" stroke-linecap="round" stroke-linejoin="round" stroke-width="1"/>
        <path id="Path_15822" data-name="Path 15822" d="M364.035,53.7s.475,1.423,0,6.637-9.858,19-7.015,20.424,5.306.82,11,1.293" transform="translate(-194.136 -2302.627)" fill="none" stroke="#000" stroke-linecap="round" stroke-linejoin="round" stroke-width="1"/>
        <path id="Path_15823" data-name="Path 15823" d="M359.448,59.94c0,2.45-1.23,4.435-2.747,4.435s-2.745-1.986-2.745-4.435S355.185,55.5,356.7,55.5s2.747,1.986,2.747,4.435" transform="translate(-196.155 -2301.189)"/>
        <path id="Path_15824" data-name="Path 15824" d="M374.009,61.466c0,2.45-1.23,4.435-2.745,4.435s-2.747-1.986-2.747-4.435,1.228-4.435,2.747-4.435,2.745,1.986,2.745,4.435" transform="translate(-184.526 -2299.97)"/>
        <path id="Path_15825" data-name="Path 15825" d="M352.783,53.725s6.337-4.646,11.405-2.112" transform="translate(-197.092 -2304.901)" fill="none" stroke="#000" stroke-linecap="round" stroke-linejoin="round" stroke-width="1"/>
        <path id="Path_15826" data-name="Path 15826" d="M368.283,52.017s9.294-1.268,12.673,6.337" transform="translate(-184.713 -2304.038)" fill="none" stroke="#000" stroke-linecap="round" stroke-linejoin="round" stroke-width="1"/>
        <path id="Path_15827" data-name="Path 15827" d="M389.919,109.409l-7.276,50.539-22.177,46.119-44.155-66.219s-1.507-10.555-4.02-14.575-11.056-6.031-16.082-9.547-8.544-14.574-12.564-10.553-1.507,11.055,0,13.065S296.713,129.8,296.713,129.8l-28.142,9.045s-22.113-10.553-24.122-6.533,16.08,23.116,23.116,25.125,35.176-2.513,35.176-2.513,31.66,77.389,38.694,85.932,16.082,19.1,18.091,18.593,45.517-46.333,45.517-46.333Z" transform="translate(-283.737 -2262.214)" fill="#fff"/>
        <path id="Path_15828" data-name="Path 15828" d="M389.919,109.409l-7.276,50.539-22.177,46.119-44.155-66.219s-1.507-10.555-4.02-14.575-11.056-6.031-16.082-9.547-8.544-14.574-12.564-10.553-1.507,11.055,0,13.065S296.713,129.8,296.713,129.8l-28.142,9.045s-22.113-10.553-24.122-6.533,16.08,23.116,23.116,25.125,35.176-2.513,35.176-2.513,31.66,77.389,38.694,85.932,16.082,19.1,18.091,18.593,45.517-46.333,45.517-46.333Z" transform="translate(-283.737 -2262.214)" fill="none" stroke="#000" stroke-linecap="round" stroke-linejoin="round" stroke-width="1"/>
        <path id="Path_15829" data-name="Path 15829" d="M303.2,131s-7.432-5.247-10.056-5.247-28.856,4.373-28.856,4.373-13.553-7.432-16.177-6.121" transform="translate(-280.687 -2246.607)" fill="none" stroke="#000" stroke-linecap="round" stroke-linejoin="round" stroke-width="1"/>
        <path id="Path_15830" data-name="Path 15830" d="M329.4,236.325c12.091-12.261,24.057-25.478,24.057-25.478l-15.125-103.7-7.275,50.54L308.883,203.8Z" transform="translate(-232.153 -2259.949)" fill="#ff9866"/>
        <path id="Path_15831" data-name="Path 15831" d="M329.4,236.325c12.091-12.261,24.057-25.478,24.057-25.478l-15.125-103.7-7.275,50.54L308.883,203.8Z" transform="translate(-232.153 -2259.949)" fill="none" stroke="#000" stroke-linecap="round" stroke-linejoin="round" stroke-width="1"/>
        <path id="Path_15832" data-name="Path 15832" d="M433.073,159.174s1.311-22.3,6.121-25.8,20.55-8.306,22.3-11.368,4.373-1.748,3.935,2.187-5.247,9.617-6.558,10.056S451,138.625,451,138.625s5.247,4.373,6.558,4.81,18.364,3.935,18.364,3.935,17.051-13.992,17.051-10.493S481.6,161.8,480.291,164.421s-10.929,3.5-14.864,3.935-22.735,2.185-22.735,2.185-4.81,49.405-5.247,60.773-7.871,21.861-11.8,24.483-25.8-16.175-25.359-23.172S427.826,170.1,427.826,170.1Z" transform="translate(-159.162 -2249.424)" fill="#fff"/>
        <path id="Path_15833" data-name="Path 15833" d="M433.073,159.174s1.311-22.3,6.121-25.8,20.55-8.306,22.3-11.368,4.373-1.748,3.935,2.187-5.247,9.617-6.558,10.056S451,138.625,451,138.625s5.247,4.373,6.558,4.81,18.364,3.935,18.364,3.935,17.051-13.992,17.051-10.493S481.6,161.8,480.291,164.421s-10.929,3.5-14.864,3.935-22.735,2.185-22.735,2.185-4.81,49.405-5.247,60.773-7.871,21.861-11.8,24.483-25.8-16.175-25.359-23.172S427.826,170.1,427.826,170.1Z" transform="translate(-159.162 -2249.424)" fill="none" stroke="#000" stroke-linecap="round" stroke-linejoin="round" stroke-width="1"/>
        <path id="Path_15834" data-name="Path 15834" d="M421.564,150.723s4.124-8.563,10.245-7.25,24.485,3.5,24.485,3.5,8.306-10.93,11.8-11.367" transform="translate(-142.16 -2237.219)" fill="none" stroke="#000" stroke-linecap="round" stroke-linejoin="round" stroke-width="1"/>
        <path id="Path_15873" data-name="Path 15873" d="M425.2,222.091H271.241l24.521,104.2H449.724Z" transform="translate(-262.216 -2168.144)" fill="#fff"/>
        <path id="Path_15874" data-name="Path 15874" d="M425.2,222.091H271.241l24.521,104.2H449.724Z" transform="translate(-262.216 -2168.144)" fill="none" stroke="#000" stroke-linecap="round" stroke-linejoin="round" stroke-width="1"/>
        <path id="Path_15875" data-name="Path 15875" d="M330.4,256.464a9.722,9.722,0,1,1-9.724-9.722,9.723,9.723,0,0,1,9.724,9.722" transform="translate(-230.494 -2148.457)" fill="#ff9866"/>
        <path id="Path_15876" data-name="Path 15876" d="M330.4,256.464a9.722,9.722,0,1,1-9.724-9.722A9.723,9.723,0,0,1,330.4,256.464Z" transform="translate(-230.494 -2148.457)" fill="none" stroke="#000" stroke-linecap="round" stroke-linejoin="round" stroke-width="1"/>
        <path id="Path_15882" data-name="Path 15882" d="M106.578.5H20.11A19.612,19.612,0,0,0,.5,20.112V56.579A19.612,19.612,0,0,0,20.11,76.191H88.142L103.659,95.36V76.191h2.919a19.611,19.611,0,0,0,19.61-19.612V20.112A19.611,19.611,0,0,0,106.578.5" transform="translate(-27.921 -2260.927)" fill="#fff" stroke="#000" stroke-width="1"/>
        <path id="Path_15883" data-name="Path 15883" d="M106.578.5H20.11A19.612,19.612,0,0,0,.5,20.112V56.579A19.612,19.612,0,0,0,20.11,76.191H88.142L103.659,95.36V76.191h2.919a19.611,19.611,0,0,0,19.61-19.612V20.112A19.611,19.611,0,0,0,106.578.5Z" transform="translate(-27.921 -2260.927)" fill="none" stroke="#000" stroke-linecap="round" stroke-linejoin="round" stroke-width="1"/>
        <path id="Path_15884" data-name="Path 15884" d="M29.5,23.913a5.336,5.336,0,1,1-5.336-5.336A5.336,5.336,0,0,1,29.5,23.913" transform="translate(-13.788 -2246.99)" fill="#ff9866" stroke="#000" stroke-width="1"/>
        <circle id="Ellipse_72" data-name="Ellipse 72" cx="5.336" cy="5.336" r="5.336" transform="translate(5.043 -2228.412)" fill="none" stroke="#001e6c" stroke-linecap="round" stroke-linejoin="round" stroke-width="1"/>
        <path id="Path_15885" data-name="Path 15885" d="M43.644,23.913a5.336,5.336,0,1,1-5.336-5.336,5.336,5.336,0,0,1,5.336,5.336" transform="translate(-2.885 -2246.99)" fill="#ff9866" stroke="#000" stroke-width="1"/>
        <circle id="Ellipse_73" data-name="Ellipse 73" cx="5.336" cy="5.336" r="5.336" transform="translate(30.087 -2228.412)" fill="none" stroke="#001e6c" stroke-linecap="round" stroke-linejoin="round" stroke-width="1"/>
        <path id="Path_15886" data-name="Path 15886" d="M57.785,23.913a5.336,5.336,0,1,1-5.336-5.336,5.336,5.336,0,0,1,5.336,5.336" transform="translate(8.018 -2246.99)" fill="#ff9866" stroke="#000" stroke-width="1"/>
        <circle id="Ellipse_74" data-name="Ellipse 74" cx="5.336" cy="5.336" r="5.336" transform="translate(55.131 -2228.412)" fill="none" stroke="#001e6c" stroke-linecap="round" stroke-linejoin="round" stroke-width="1"/>
      </g>
    </g>
    <g id="Group_2" data-name="Group 2" transform="translate(-1163.381 871.465)" clip-path="url(#clip-path-2)">
      <g id="Group_3600" data-name="Group 3600" transform="translate(-853.81 -120.464)">
        <path id="Path_15807-2" data-name="Path 15807" d="M368.169,25.863S346.2,31.777,340.29,46.14s-1.691,17.319-.423,16.9,4.223-5.914,4.223-5.914-4.646,13.1,1.268,18.587S360.989,88.8,360.989,88.8s-1.268,16.9-6.337,27.458S342.4,138.65,346.2,143.3s8.448-2.112,8.448-2.112,4.223,10.56,19.008,14.362,45.6,9.114,58.269,7.425a43.72,43.72,0,0,0,21.147-9.114s-3.8,7.18,2.957,2.957,10.983-9.716,17.74-24.924,10.984-39.284,7.6-57.872S461.525,39.8,450.542,30.932,417.17,13.613,396.894,15.724s-28.724,10.139-28.724,10.139" transform="translate(-209.522 -2333.221)" fill="#474747"/>
        <path id="Path_15808-2" data-name="Path 15808" d="M368.169,25.863S346.2,31.777,340.29,46.14s-1.691,17.319-.423,16.9,4.223-5.914,4.223-5.914-4.646,13.1,1.268,18.587S360.989,88.8,360.989,88.8s-1.268,16.9-6.337,27.458S342.4,138.65,346.2,143.3s8.448-2.112,8.448-2.112,4.223,10.56,19.008,14.362,45.6,9.114,58.269,7.425a43.72,43.72,0,0,0,21.147-9.114s-3.8,7.18,2.957,2.957,10.983-9.716,17.74-24.924,10.984-39.284,7.6-57.872S461.525,39.8,450.542,30.932,417.17,13.613,396.894,15.724,368.169,25.863,368.169,25.863Z" transform="translate(-209.522 -2333.221)" fill="#474747" stroke="#000" stroke-linecap="round" stroke-linejoin="round" stroke-width="1"/>
        <path id="Path_15809-2" data-name="Path 15809" d="M429.465,113.879l5.545,69.676-29.3,54.215-12.238-24.922Z" transform="translate(-164.594 -2254.568)" fill="#ff9866"/>
        <path id="Path_15810-2" data-name="Path 15810" d="M429.465,113.879l5.545,69.676-29.3,54.215-12.238-24.922Z" transform="translate(-164.594 -2254.568)" fill="none" stroke="#000" stroke-linecap="round" stroke-linejoin="round" stroke-width="1"/>
        <path id="Path_15811-2" data-name="Path 15811" d="M409.123,146.364l-8.484,54.415-7.313-12Z" transform="translate(-164.713 -2228.624)" fill="#474747"/>
        <path id="Path_15812-2" data-name="Path 15812" d="M409.123,146.364l-8.484,54.415-7.313-12Z" transform="translate(-164.713 -2228.624)" fill="none" stroke="#000" stroke-linecap="round" stroke-linejoin="round" stroke-width="1"/>
        <path id="Path_15813-2" data-name="Path 15813" d="M308.413,327.9l6-85.241,176.41,9.133,3,74.587Z" transform="translate(-232.528 -2151.719)" fill="#474747"/>
        <path id="Path_15814-2" data-name="Path 15814" d="M308.413,327.9l6-85.241,176.41,9.133,3,74.587Z" transform="translate(-232.528 -2151.719)" fill="none" stroke="#000" stroke-linecap="round" stroke-linejoin="round" stroke-width="1"/>
        <path id="Path_15815-2" data-name="Path 15815" d="M400.985,34.563s-2.736,17.979.39,21.105,18.762,10.554,18.762,10.554-1.955-19.934-1.955-21.107S429.127,72.085,434.6,75.6,450.232,87.72,450.232,87.72s1.565,4.689,3.128,4.3,5.081-3.908,5.081-3.908,11.335-3.128,10.162,5.864-8.99,21.105-13.681,21.888a33.052,33.052,0,0,1-8.207.39s-6.254,18.762-7.036,25.014-1.173,7.427-.39,9.772,18.762,10.945,22.67,12.118,35.176,14.071,35.176,14.071L460,281.194l38.3,137.19s-57.456,13.29-112.177,8.209-77.389-16.808-77.389-16.808l46.511-131.719L338.448,165.109,400.2,153.774l1.173-14.071s-15.244-4.3-20.325-15.244c-5.268-11.35-.39-31.268,0-37.131s.782-14.071,0-20.715,2.345-27.359,19.935-32.05" transform="translate(-232.265 -2317.914)" fill="#ff9866"/>
        <path id="Path_15816-2" data-name="Path 15816" d="M400.985,34.563s-2.736,17.979.39,21.105,18.762,10.554,18.762,10.554-1.955-19.934-1.955-21.107S429.127,72.085,434.6,75.6,450.232,87.72,450.232,87.72s1.565,4.689,3.128,4.3,5.081-3.908,5.081-3.908,11.335-3.128,10.162,5.864-8.99,21.105-13.681,21.888a33.052,33.052,0,0,1-8.207.39s-6.254,18.762-7.036,25.014-1.173,7.427-.39,9.772,18.762,10.945,22.67,12.118,35.176,14.071,35.176,14.071L460,281.194l38.3,137.19s-57.456,13.29-112.177,8.209-77.389-16.808-77.389-16.808l46.511-131.719L338.448,165.109,400.2,153.774l1.173-14.071s-15.244-4.3-20.325-15.244c-5.268-11.35-.39-31.268,0-37.131s.782-14.071,0-20.715S383.4,39.254,400.985,34.563Z" transform="translate(-232.265 -2317.914)" fill="none" stroke="#000" stroke-linecap="round" stroke-linejoin="round" stroke-width="1"/>
        <path id="Path_15817-2" data-name="Path 15817" d="M344.7,161.563s42.371,25.422,44.065,25.987" transform="translate(-203.544 -2216.485)" fill="none" stroke="#000" stroke-linecap="round" stroke-linejoin="round" stroke-width="1"/>
        <line id="Line_185-2" data-name="Line 185" x2="29.942" y2="20.337" transform="translate(158.109 -2038.539)" fill="none" stroke="#000" stroke-linecap="round" stroke-linejoin="round" stroke-width="1"/>
        <path id="Path_15818-2" data-name="Path 15818" d="M425.558,160.2c-6.608-3.077-15.109-7.571-15.641-9.166-.782-2.345-.39-3.518.39-9.772s7.036-25.014,7.036-25.014a33.008,33.008,0,0,0,8.207-.392c4.691-.781,12.508-12.9,13.68-21.888s-10.162-5.864-10.162-5.864-3.518,3.518-5.081,3.908-3.128-4.3-3.128-4.3S410.7,79.119,405.226,75.6,388.81,43.943,388.81,45.116s1.955,21.105,1.955,21.105S375.131,58.8,372,55.668s-.39-21.105-.39-21.105c-17.589,4.689-20.715,25.4-19.934,32.05s.392,14.851,0,20.715-5.268,25.782,0,37.131C356.76,135.4,372,139.7,372,139.7l-1.173,14.071-17.267,3.169-8.044,46.141,63.822,4.524Z" transform="translate(-202.893 -2317.914)" fill="#fff"/>
        <path id="Path_15819-2" data-name="Path 15819" d="M425.558,160.2c-6.608-3.077-15.109-7.571-15.641-9.166-.782-2.345-.39-3.518.39-9.772s7.036-25.014,7.036-25.014a33.008,33.008,0,0,0,8.207-.392c4.691-.781,12.508-12.9,13.68-21.888s-10.162-5.864-10.162-5.864-3.518,3.518-5.081,3.908-3.128-4.3-3.128-4.3S410.7,79.119,405.226,75.6,388.81,43.943,388.81,45.116s1.955,21.105,1.955,21.105S375.131,58.8,372,55.668s-.39-21.105-.39-21.105c-17.589,4.689-20.715,25.4-19.934,32.05s.392,14.851,0,20.715-5.268,25.782,0,37.131C356.76,135.4,372,139.7,372,139.7l-1.173,14.071-17.267,3.169-8.044,46.141,63.822,4.524Z" transform="translate(-202.893 -2317.914)" fill="none" stroke="#000" stroke-linecap="round" stroke-linejoin="round" stroke-width="1"/>
        <line id="Line_186-2" data-name="Line 186" x1="0.527" y2="12.13" transform="translate(167.411 -2164.14)" fill="none" stroke="#000" stroke-linecap="round" stroke-linejoin="round" stroke-width="1"/>
        <path id="Path_15820-2" data-name="Path 15820" d="M391.441,86.173a40.5,40.5,0,0,1-22.429,9.49" transform="translate(-184.131 -2276.696)" fill="none" stroke="#000" stroke-linecap="round" stroke-linejoin="round" stroke-width="1"/>
        <path id="Path_15821-2" data-name="Path 15821" d="M358.072,79.149a20.969,20.969,0,0,0,21.886-5.471" transform="translate(-192.868 -2286.675)" fill="none" stroke="#000" stroke-linecap="round" stroke-linejoin="round" stroke-width="1"/>
        <path id="Path_15822-2" data-name="Path 15822" d="M364.035,53.7s.475,1.423,0,6.637-9.858,19-7.015,20.424,5.306.82,11,1.293" transform="translate(-194.136 -2302.627)" fill="none" stroke="#000" stroke-linecap="round" stroke-linejoin="round" stroke-width="1"/>
        <path id="Path_15823-2" data-name="Path 15823" d="M359.448,59.94c0,2.45-1.23,4.435-2.747,4.435s-2.745-1.986-2.745-4.435S355.185,55.5,356.7,55.5s2.747,1.986,2.747,4.435" transform="translate(-196.155 -2301.189)"/>
        <path id="Path_15824-2" data-name="Path 15824" d="M374.009,61.466c0,2.45-1.23,4.435-2.745,4.435s-2.747-1.986-2.747-4.435,1.228-4.435,2.747-4.435,2.745,1.986,2.745,4.435" transform="translate(-184.526 -2299.97)"/>
        <path id="Path_15825-2" data-name="Path 15825" d="M352.783,53.725s6.337-4.646,11.405-2.112" transform="translate(-197.092 -2304.901)" fill="none" stroke="#000" stroke-linecap="round" stroke-linejoin="round" stroke-width="1"/>
        <path id="Path_15826-2" data-name="Path 15826" d="M368.283,52.017s9.294-1.268,12.673,6.337" transform="translate(-184.713 -2304.038)" fill="none" stroke="#000" stroke-linecap="round" stroke-linejoin="round" stroke-width="1"/>
        <path id="Path_15827-2" data-name="Path 15827" d="M389.919,109.409l-7.276,50.539-22.177,46.119-44.155-66.219s-1.507-10.555-4.02-14.575-11.056-6.031-16.082-9.547-8.544-14.574-12.564-10.553-1.507,11.055,0,13.065S296.713,129.8,296.713,129.8l-28.142,9.045s-22.113-10.553-24.122-6.533,16.08,23.116,23.116,25.125,35.176-2.513,35.176-2.513,31.66,77.389,38.694,85.932,16.082,19.1,18.091,18.593,45.517-46.333,45.517-46.333Z" transform="translate(-283.737 -2262.214)" fill="#fff"/>
        <path id="Path_15828-2" data-name="Path 15828" d="M389.919,109.409l-7.276,50.539-22.177,46.119-44.155-66.219s-1.507-10.555-4.02-14.575-11.056-6.031-16.082-9.547-8.544-14.574-12.564-10.553-1.507,11.055,0,13.065S296.713,129.8,296.713,129.8l-28.142,9.045s-22.113-10.553-24.122-6.533,16.08,23.116,23.116,25.125,35.176-2.513,35.176-2.513,31.66,77.389,38.694,85.932,16.082,19.1,18.091,18.593,45.517-46.333,45.517-46.333Z" transform="translate(-283.737 -2262.214)" fill="none" stroke="#000" stroke-linecap="round" stroke-linejoin="round" stroke-width="1"/>
        <path id="Path_15829-2" data-name="Path 15829" d="M303.2,131s-7.432-5.247-10.056-5.247-28.856,4.373-28.856,4.373-13.553-7.432-16.177-6.121" transform="translate(-280.687 -2246.607)" fill="none" stroke="#000" stroke-linecap="round" stroke-linejoin="round" stroke-width="1"/>
        <path id="Path_15830-2" data-name="Path 15830" d="M329.4,236.325c12.091-12.261,24.057-25.478,24.057-25.478l-15.125-103.7-7.275,50.54L308.883,203.8Z" transform="translate(-232.153 -2259.949)" fill="#ff9866"/>
        <path id="Path_15831-2" data-name="Path 15831" d="M329.4,236.325c12.091-12.261,24.057-25.478,24.057-25.478l-15.125-103.7-7.275,50.54L308.883,203.8Z" transform="translate(-232.153 -2259.949)" fill="none" stroke="#000" stroke-linecap="round" stroke-linejoin="round" stroke-width="1"/>
        <path id="Path_15832-2" data-name="Path 15832" d="M433.073,159.174s1.311-22.3,6.121-25.8,20.55-8.306,22.3-11.368,4.373-1.748,3.935,2.187-5.247,9.617-6.558,10.056S451,138.625,451,138.625s5.247,4.373,6.558,4.81,18.364,3.935,18.364,3.935,17.051-13.992,17.051-10.493S481.6,161.8,480.291,164.421s-10.929,3.5-14.864,3.935-22.735,2.185-22.735,2.185-4.81,49.405-5.247,60.773-7.871,21.861-11.8,24.483-25.8-16.175-25.359-23.172S427.826,170.1,427.826,170.1Z" transform="translate(-159.162 -2249.424)" fill="#fff"/>
        <path id="Path_15833-2" data-name="Path 15833" d="M433.073,159.174s1.311-22.3,6.121-25.8,20.55-8.306,22.3-11.368,4.373-1.748,3.935,2.187-5.247,9.617-6.558,10.056S451,138.625,451,138.625s5.247,4.373,6.558,4.81,18.364,3.935,18.364,3.935,17.051-13.992,17.051-10.493S481.6,161.8,480.291,164.421s-10.929,3.5-14.864,3.935-22.735,2.185-22.735,2.185-4.81,49.405-5.247,60.773-7.871,21.861-11.8,24.483-25.8-16.175-25.359-23.172S427.826,170.1,427.826,170.1Z" transform="translate(-159.162 -2249.424)" fill="none" stroke="#000" stroke-linecap="round" stroke-linejoin="round" stroke-width="1"/>
        <path id="Path_15834-2" data-name="Path 15834" d="M421.564,150.723s4.124-8.563,10.245-7.25,24.485,3.5,24.485,3.5,8.306-10.93,11.8-11.367" transform="translate(-142.16 -2237.219)" fill="none" stroke="#000" stroke-linecap="round" stroke-linejoin="round" stroke-width="1"/>
        <path id="Path_15873-2" data-name="Path 15873" d="M425.2,222.091H271.241l24.521,104.2H449.724Z" transform="translate(-262.216 -2168.144)" fill="#fff"/>
        <path id="Path_15874-2" data-name="Path 15874" d="M425.2,222.091H271.241l24.521,104.2H449.724Z" transform="translate(-262.216 -2168.144)" fill="none" stroke="#000" stroke-linecap="round" stroke-linejoin="round" stroke-width="1"/>
        <path id="Path_15875-2" data-name="Path 15875" d="M330.4,256.464a9.722,9.722,0,1,1-9.724-9.722,9.723,9.723,0,0,1,9.724,9.722" transform="translate(-230.494 -2148.457)" fill="#ff9866"/>
        <path id="Path_15876-2" data-name="Path 15876" d="M330.4,256.464a9.722,9.722,0,1,1-9.724-9.722A9.723,9.723,0,0,1,330.4,256.464Z" transform="translate(-230.494 -2148.457)" fill="none" stroke="#000" stroke-linecap="round" stroke-linejoin="round" stroke-width="1"/>
        <path id="Path_15882-2" data-name="Path 15882" d="M106.578.5H20.11A19.612,19.612,0,0,0,.5,20.112V56.579A19.612,19.612,0,0,0,20.11,76.191H88.142L103.659,95.36V76.191h2.919a19.611,19.611,0,0,0,19.61-19.612V20.112A19.611,19.611,0,0,0,106.578.5" transform="translate(-27.921 -2260.927)" fill="#fff" stroke="#000" stroke-width="1"/>
        <path id="Path_15883-2" data-name="Path 15883" d="M106.578.5H20.11A19.612,19.612,0,0,0,.5,20.112V56.579A19.612,19.612,0,0,0,20.11,76.191H88.142L103.659,95.36V76.191h2.919a19.611,19.611,0,0,0,19.61-19.612V20.112A19.611,19.611,0,0,0,106.578.5Z" transform="translate(-27.921 -2260.927)" fill="none" stroke="#000" stroke-linecap="round" stroke-linejoin="round" stroke-width="1"/>
        <path id="Path_15884-2" data-name="Path 15884" d="M29.5,23.913a5.336,5.336,0,1,1-5.336-5.336A5.336,5.336,0,0,1,29.5,23.913" transform="translate(-13.788 -2246.99)" fill="#ff9866" stroke="#000" stroke-width="1"/>
        <circle id="Ellipse_72-2" data-name="Ellipse 72" cx="5.336" cy="5.336" r="5.336" transform="translate(5.043 -2228.412)" fill="none" stroke="#001e6c" stroke-linecap="round" stroke-linejoin="round" stroke-width="1"/>
        <path id="Path_15885-2" data-name="Path 15885" d="M43.644,23.913a5.336,5.336,0,1,1-5.336-5.336,5.336,5.336,0,0,1,5.336,5.336" transform="translate(-2.885 -2246.99)" fill="#ff9866" stroke="#000" stroke-width="1"/>
        <circle id="Ellipse_73-2" data-name="Ellipse 73" cx="5.336" cy="5.336" r="5.336" transform="translate(30.087 -2228.412)" fill="none" stroke="#001e6c" stroke-linecap="round" stroke-linejoin="round" stroke-width="1"/>
        <path id="Path_15886-2" data-name="Path 15886" d="M57.785,23.913a5.336,5.336,0,1,1-5.336-5.336,5.336,5.336,0,0,1,5.336,5.336" transform="translate(8.018 -2246.99)" fill="#ff9866" stroke="#000" stroke-width="1"/>
        <circle id="Ellipse_74-2" data-name="Ellipse 74" cx="5.336" cy="5.336" r="5.336" transform="translate(55.131 -2228.412)" fill="none" stroke="#001e6c" stroke-linecap="round" stroke-linejoin="round" stroke-width="1"/>
      </g>
    </g>
  </g>
</svg>
