<svg xmlns="http://www.w3.org/2000/svg" xmlns:xlink="http://www.w3.org/1999/xlink" width="779.779" height="506.158" viewBox="0 0 779.779 506.158">
  <defs>
    <clipPath id="clip-path">
      <ellipse id="Ellipse_78" data-name="Ellipse 78" cx="372" cy="221.5" rx="372" ry="221.5" transform="matrix(0.996, -0.087, 0.087, 0.996, -2339.274, -963.073)" fill="#fff"/>
    </clipPath>
    <clipPath id="clip-path-2">
      <rect id="Rectangle_17946" data-name="Rectangle 17946" width="397.903" height="8.606" fill="none"/>
    </clipPath>
  </defs>
  <g id="Group_3668" data-name="Group 3668" transform="translate(2339.274 1027.917)">
    <ellipse id="Ellipse_75" data-name="Ellipse 75" cx="372" cy="221.5" rx="372" ry="221.5" transform="matrix(0.996, -0.087, 0.087, 0.996, -2339.274, -963.073)" fill="#fff"/>
    <g id="Group_3616" data-name="Group 3616" transform="translate(-20 1.378)">
      <path id="Path_15665" data-name="Path 15665" d="M236.885,141.8a.946.946,0,0,1-.95-.943v-1.307a.95.95,0,0,1,1.9,0v1.307a.946.946,0,0,1-.95.943m0-8.86a.947.947,0,0,1-.95-.945v-7.552a.95.95,0,0,1,1.9,0V132a.947.947,0,0,1-.95.945m0-15.107a.946.946,0,0,1-.95-.943v-7.552a.95.95,0,0,1,1.9,0v7.552a.946.946,0,0,1-.95.943m0-15.1a.947.947,0,0,1-.95-.945V94.234a.95.95,0,0,1,1.9,0v7.552a.947.947,0,0,1-.95.945m0-15.1a.948.948,0,0,1-.95-.945V79.129a.95.95,0,0,1,1.9,0v7.552a.948.948,0,0,1-.95.945m0-15.107a.947.947,0,0,1-.95-.945V64.022a.95.95,0,0,1,1.9,0v7.552a.947.947,0,0,1-.95.945m0-15.107a.946.946,0,0,1-.95-.943V48.917a.95.95,0,0,1,1.9,0V56.47a.946.946,0,0,1-.95.943m0-15.1a.947.947,0,0,1-.95-.945V38.83a.946.946,0,0,1,.95-.943h5.047a.944.944,0,1,1,0,1.888h-4.1v1.588a.947.947,0,0,1-.95.945m248.069-2.531H477.36a.945.945,0,1,1,0-1.889h7.594a.945.945,0,1,1,0,1.889m-15.19,0h-7.594a.945.945,0,1,1,0-1.889h7.594a.945.945,0,1,1,0,1.889m-15.188,0h-7.594a.945.945,0,1,1,0-1.889h7.594a.945.945,0,1,1,0,1.889m-15.19,0h-7.594a.945.945,0,1,1,0-1.889h7.594a.945.945,0,1,1,0,1.889m-15.188,0h0l-7.594,0a.944.944,0,1,1,0-1.888H424.2a.945.945,0,1,1,0,1.889m-15.19,0h-7.594a.944.944,0,1,1,0-1.888h7.594a.944.944,0,1,1,0,1.888m-15.188,0h-7.594a.944.944,0,1,1,0-1.888h7.594a.944.944,0,1,1,0,1.888m-15.19,0h-7.594a.944.944,0,1,1,0-1.888h7.594a.944.944,0,1,1,0,1.888m-15.188,0h-7.6a.944.944,0,1,1,0-1.888h7.6a.944.944,0,1,1,0,1.888m-15.19,0H340.66a.944.944,0,1,1,0-1.888h7.594a.944.944,0,1,1,0,1.888m-15.188,0h-7.6a.944.944,0,1,1,0-1.888h7.6a.944.944,0,1,1,0,1.888m-15.19,0h-7.594a.944.944,0,1,1,0-1.888h7.594a.944.944,0,1,1,0,1.888m-15.188,0h-7.6a.944.944,0,1,1,0-1.888h7.6a.944.944,0,1,1,0,1.888m-15.19,0h-7.594a.944.944,0,1,1,0-1.888H287.5a.944.944,0,1,1,0,1.888m-15.19,0h-7.594a.944.944,0,1,1,0-1.888h7.594a.944.944,0,1,1,0,1.888m-15.188,0h-7.594a.944.944,0,1,1,0-1.888h7.594a.944.944,0,1,1,0,1.888" transform="translate(-2448.126 -1007.187)"/>
      <path id="Path_15667" data-name="Path 15667" d="M238.956,102.712a5.537,5.537,0,1,1,5.537-5.537,5.543,5.543,0,0,1-5.537,5.537m0-9.177a3.639,3.639,0,1,0,3.639,3.639,3.644,3.644,0,0,0-3.639-3.639" transform="translate(-2450.198 -963.507)"/>
    </g>
    <g id="Mask_Group_6" data-name="Mask Group 6" clip-path="url(#clip-path)">
      <g id="Group_3618" data-name="Group 3618">
        <g id="Group_3614" data-name="Group 3614" transform="translate(1278.412 204.614)">
          <rect id="Rectangle_17900" data-name="Rectangle 17900" width="23.416" height="44.3" transform="translate(-3212.264 -770.965)" fill="#ff9866"/>
          <path id="Path_15268" data-name="Path 15268" d="M72.714,108.315H49.3a.949.949,0,0,1-.95-.95v-44.3a.949.949,0,0,1,.95-.95H72.714a.949.949,0,0,1,.95.95v44.3a.949.949,0,0,1-.95.95m-22.466-1.9H71.766v-42.4H50.248Z" transform="translate(-3261.562 -834.03)"/>
          <rect id="Rectangle_17901" data-name="Rectangle 17901" width="23.416" height="96.491" transform="translate(-3175.201 -823.157)" fill="#fff"/>
          <path id="Path_15269" data-name="Path 15269" d="M93.041,131.881H69.625a.949.949,0,0,1-.948-.95V34.44a.949.949,0,0,1,.948-.95H93.041a.949.949,0,0,1,.95.95v96.491a.949.949,0,0,1-.95.95m-22.466-1.9H92.093V35.39H70.575Z" transform="translate(-3244.826 -857.597)"/>
          <rect id="Rectangle_17902" data-name="Rectangle 17902" width="23.416" height="108.853" transform="translate(-3101.471 -835.518)" fill="#fff"/>
          <path id="Path_15270" data-name="Path 15270" d="M133.48,137.463H110.064a.949.949,0,0,1-.95-.95V27.66a.95.95,0,0,1,.95-.95H133.48a.951.951,0,0,1,.95.95V136.513a.949.949,0,0,1-.95.95m-22.466-1.9h21.518V28.61H111.014Z" transform="translate(-3211.535 -863.178)"/>
          <rect id="Rectangle_17903" data-name="Rectangle 17903" width="23.416" height="58.857" transform="translate(-3138.81 -785.522)" fill="#fff"/>
          <path id="Path_15271" data-name="Path 15271" d="M113,114.887H89.585a.949.949,0,0,1-.95-.95V55.08a.949.949,0,0,1,.95-.948H113a.949.949,0,0,1,.948.948v58.857a.949.949,0,0,1-.948.95m-22.468-1.9h21.518V56.03H90.533Z" transform="translate(-3228.395 -840.603)"/>
          <path id="Path_15272" data-name="Path 15272" d="M94.268,87.248a.321.321,0,0,1-.179-.055L90.624,84.82a.316.316,0,1,1,.357-.521l3.466,2.372a.315.315,0,0,1,.082.439.311.311,0,0,1-.261.139" transform="translate(-3226.872 -815.813)"/>
          <path id="Path_15273" data-name="Path 15273" d="M101.175,89.36a.314.314,0,0,1-.164-.046c-3.608-2.208-7.2-4.564-10.67-7a.317.317,0,1,1,.365-.518c3.461,2.43,7.038,4.777,10.635,6.978a.317.317,0,0,1-.166.587" transform="translate(-3227.1 -817.876)"/>
          <path id="Path_15274" data-name="Path 15274" d="M106.049,91a.315.315,0,0,1-.181-.057c-5.195-3.592-10.334-7.4-15.279-11.333a.316.316,0,1,1,.394-.494c4.934,3.92,10.063,7.723,15.246,11.308a.316.316,0,0,1-.18.576" transform="translate(-3226.884 -820.091)"/>
          <path id="Path_15275" data-name="Path 15275" d="M109.489,90.928a.313.313,0,0,1-.188-.062L90.392,76.858a.317.317,0,1,1,.377-.509l18.909,14.008a.316.316,0,0,1-.19.571" transform="translate(-3227.054 -822.363)"/>
          <path id="Path_15276" data-name="Path 15276" d="M109.094,88.276a.323.323,0,0,1-.186-.06c-6.237-4.509-12.4-9.3-18.317-14.232A.317.317,0,0,1,91,73.5C96.9,78.423,103.054,83.2,109.28,87.7a.316.316,0,0,1-.186.573" transform="translate(-3226.878 -824.72)"/>
          <path id="Path_15277" data-name="Path 15277" d="M109.117,85.469a.312.312,0,0,1-.191-.066c-6.144-4.715-12.316-9.561-18.349-14.4a.317.317,0,0,1,.4-.494C97,75.346,103.171,80.189,109.31,84.9a.316.316,0,0,1-.193.567" transform="translate(-3226.893 -827.178)"/>
          <path id="Path_15278" data-name="Path 15278" d="M108.454,81.83a.312.312,0,0,1-.191-.066C102.3,77.2,96.369,72.44,90.635,67.606a.316.316,0,1,1,.408-.483c5.727,4.826,11.649,9.585,17.6,14.138a.317.317,0,0,1,.06.445.314.314,0,0,1-.252.124" transform="translate(-3226.841 -829.97)"/>
          <path id="Path_15279" data-name="Path 15279" d="M108.749,78.868a.321.321,0,0,1-.193-.066c-6.057-4.655-12.092-9.508-17.934-14.428a.316.316,0,0,1,.407-.485c5.836,4.914,11.864,9.762,17.914,14.411a.316.316,0,0,1-.193.567" transform="translate(-3226.852 -832.631)"/>
          <path id="Path_15280" data-name="Path 15280" d="M108.667,75.778a.308.308,0,0,1-.193-.067c-6.026-4.686-12.039-9.55-17.875-14.459a.317.317,0,0,1,.408-.485c5.829,4.9,11.837,9.764,17.855,14.444a.318.318,0,0,1,.055.445.314.314,0,0,1-.25.122" transform="translate(-3226.872 -835.202)"/>
          <path id="Path_15281" data-name="Path 15281" d="M108.792,72.946a.321.321,0,0,1-.193-.066c-6.141-4.715-12.212-9.689-18.045-14.783a.317.317,0,0,1,.416-.478c5.824,5.085,11.884,10.052,18.016,14.759a.316.316,0,0,1-.193.567" transform="translate(-3226.904 -837.794)"/>
          <path id="Path_15282" data-name="Path 15282" d="M107.744,69.193a.314.314,0,0,1-.2-.069l-15.489-12.6a.317.317,0,0,1,.4-.492l15.489,12.6a.318.318,0,0,1,.046.445.31.31,0,0,1-.246.117" transform="translate(-3225.674 -839.095)"/>
          <path id="Path_15283" data-name="Path 15283" d="M104.549,63.912a.323.323,0,0,1-.186-.06,71.3,71.3,0,0,1-8.3-7.1.316.316,0,0,1,.447-.447,70.808,70.808,0,0,0,8.228,7.032.316.316,0,0,1-.186.573" transform="translate(-3222.358 -838.888)"/>
          <path id="Path_15284" data-name="Path 15284" d="M101.736,58.569a.31.31,0,0,1-.213-.084l-2.088-1.9a.316.316,0,1,1,.425-.467l2.089,1.9a.315.315,0,0,1,.02.447.312.312,0,0,1-.233.1" transform="translate(-3219.589 -839.039)"/>
        </g>
        <g id="Group_3617" data-name="Group 3617" transform="translate(-30)">
          <rect id="Rectangle_17933" data-name="Rectangle 17933" width="134.342" height="13.939" transform="translate(-2198.254 -784.525)" fill="#fff"/>
          <path id="Path_15530" data-name="Path 15530" d="M378.35,134.608H244.006a.949.949,0,0,1-.948-.95V119.719a.949.949,0,0,1,.948-.948H378.35a.95.95,0,0,1,.95.948v13.939a.95.95,0,0,1-.95.95m-133.394-1.9H377.4V120.669H244.956Z" transform="translate(-2442.262 -904.245)"/>
          <rect id="Rectangle_17934" data-name="Rectangle 17934" width="38.446" height="13.939" transform="translate(-2141.931 -784.525)" fill="#ff9866"/>
          <path id="Path_15531" data-name="Path 15531" d="M313.344,134.608H274.9a.949.949,0,0,1-.95-.95V119.719a.949.949,0,0,1,.95-.948h38.444a.949.949,0,0,1,.95.948v13.939a.949.949,0,0,1-.95.95m-37.5-1.9h36.546V120.669H275.848Z" transform="translate(-2416.83 -904.245)"/>
          <rect id="Rectangle_17935" data-name="Rectangle 17935" width="95.899" height="13.939" transform="translate(-2112.15 -822.33)" fill="#fff"/>
          <path id="Path_15532" data-name="Path 15532" d="M387.131,113.874h-95.9a.949.949,0,0,1-.948-.95V98.985a.949.949,0,0,1,.948-.948h95.9a.949.949,0,0,1,.95.948v13.939a.949.949,0,0,1-.95.95m-94.949-1.9h94V99.935h-94Z" transform="translate(-2403.382 -921.315)"/>
          <rect id="Rectangle_17936" data-name="Rectangle 17936" width="38.446" height="13.939" transform="translate(-2150.596 -822.33)" fill="#ff9866"/>
          <path id="Path_15533" data-name="Path 15533" d="M308.592,113.874H270.148a.949.949,0,0,1-.95-.95V98.985a.949.949,0,0,1,.95-.948h38.444a.949.949,0,0,1,.95.948v13.939a.949.949,0,0,1-.95.95m-37.5-1.9h36.546V99.935H271.1Z" transform="translate(-2420.742 -921.315)"/>
          <path id="Path_15534" data-name="Path 15534" d="M295.552,107.078a.307.307,0,0,1-.232-.1L292,103.43a.317.317,0,1,1,.461-.434l3.324,3.55a.317.317,0,0,1-.015.447.324.324,0,0,1-.217.086" transform="translate(-2402.041 -917.314)"/>
          <path id="Path_15535" data-name="Path 15535" d="M300.73,109.314a.325.325,0,0,1-.226-.091l-8.5-8.5a.317.317,0,0,1,.448-.449l8.5,8.5a.318.318,0,0,1,0,.447.323.323,0,0,1-.222.091" transform="translate(-2402.041 -919.548)"/>
          <path id="Path_15536" data-name="Path 15536" d="M304.014,109.9a.318.318,0,0,1-.224-.093l-9.545-9.545a.316.316,0,1,1,.447-.447l9.547,9.545a.316.316,0,0,1-.224.54" transform="translate(-2400.198 -919.929)"/>
          <path id="Path_15537" data-name="Path 15537" d="M307.011,109.8a.318.318,0,0,1-.224-.093l-9.581-9.581a.315.315,0,0,1,0-.447.318.318,0,0,1,.447,0l9.583,9.583a.315.315,0,0,1-.224.538" transform="translate(-2397.761 -920.037)"/>
          <path id="Path_15538" data-name="Path 15538" d="M310.441,110a.318.318,0,0,1-.224-.093l-9.589-9.589a.316.316,0,1,1,.448-.447l9.589,9.589a.316.316,0,0,1-.224.54" transform="translate(-2394.941 -919.881)"/>
          <path id="Path_15539" data-name="Path 15539" d="M312.856,109.37a.317.317,0,0,1-.232-.1l-8.285-8.832a.316.316,0,1,1,.461-.432l8.287,8.832a.317.317,0,0,1-.015.447.321.321,0,0,1-.217.086" transform="translate(-2391.881 -919.776)"/>
          <path id="Path_15540" data-name="Path 15540" d="M316.914,109.5a.312.312,0,0,1-.212-.082c-3.172-2.866-6.265-5.907-9.191-9.034a.317.317,0,1,1,.463-.432c2.914,3.114,5.993,6.143,9.151,9a.315.315,0,0,1-.211.551" transform="translate(-2389.27 -919.822)"/>
          <path id="Path_15541" data-name="Path 15541" d="M320.71,109.527a.318.318,0,0,1-.224-.093l-9.091-9.091a.317.317,0,0,1,.449-.447l9.091,9.091a.316.316,0,0,1-.224.54" transform="translate(-2386.079 -919.861)"/>
          <path id="Path_15542" data-name="Path 15542" d="M324.638,109.636a.315.315,0,0,1-.224-.093l-9.4-9.435a.317.317,0,0,1,.45-.447l9.4,9.435a.316.316,0,0,1-.224.54" transform="translate(-2383.096 -920.054)"/>
          <path id="Path_15543" data-name="Path 15543" d="M328.328,109.487a.318.318,0,0,1-.224-.093l-9.091-9.091a.317.317,0,0,1,.447-.449l9.093,9.093a.316.316,0,0,1-.224.54" transform="translate(-2379.807 -919.894)"/>
        </g>
        <path id="Path_15575" data-name="Path 15575" d="M49.3,356.023a.949.949,0,0,1-.95-.95V149.191a.949.949,0,0,1,.948-.95H151.885a.95.95,0,0,1,0,1.9H50.247l0,204.932a.949.949,0,0,1-.95.95" transform="translate(-2602.561 -879.983)"/>
        <path id="Path_15576" data-name="Path 15576" d="M107.207,146.245a4.588,4.588,0,1,0,4.587,4.587,4.589,4.589,0,0,0-4.587-4.587" transform="translate(-2557.883 -881.626)" fill="#fff"/>
        <path id="Path_15577" data-name="Path 15577" d="M107.635,156.8a5.537,5.537,0,1,1,5.537-5.537,5.543,5.543,0,0,1-5.537,5.537m0-9.177a3.639,3.639,0,1,0,3.639,3.639,3.642,3.642,0,0,0-3.639-3.639" transform="translate(-2558.311 -882.054)"/>
        <path id="Path_15615" data-name="Path 15615" d="M492.92,361.7H95.581a.949.949,0,0,1-.95-.948V75.8a.949.949,0,0,1,.95-.95H492.92a.949.949,0,0,1,.95.95V360.753a.949.949,0,0,1-.95.948M96.529,359.8H491.97V76.749H96.529Z" transform="translate(-2564.458 -940.405)"/>
        <rect id="Rectangle_17945" data-name="Rectangle 17945" width="397.341" height="24.652" transform="translate(-2468.877 -878.926)" fill="#ff9866"/>
        <path id="Path_15616" data-name="Path 15616" d="M492.92,93.547H95.581a.95.95,0,0,1-.95-.95V67.945a.949.949,0,0,1,.95-.95H492.92a.949.949,0,0,1,.95.95V92.6a.951.951,0,0,1-.95.95m-396.391-1.9H491.97V68.893H96.529Z" transform="translate(-2564.458 -946.871)"/>
        <path id="Path_15617" data-name="Path 15617" d="M265.417,76.65a5.257,5.257,0,1,1,5.256,5.256,5.257,5.257,0,0,1-5.256-5.256" transform="translate(-2423.855 -943.25)" fill="#fff"/>
        <path id="Path_15618" data-name="Path 15618" d="M271.1,83.284a6.206,6.206,0,1,1,6.206-6.206,6.213,6.213,0,0,1-6.206,6.206m0-10.513a4.307,4.307,0,1,0,4.307,4.307,4.313,4.313,0,0,0-4.307-4.307" transform="translate(-2424.284 -943.678)"/>
        <path id="Path_15619" data-name="Path 15619" d="M282.517,76.65a5.257,5.257,0,1,1,5.256,5.256,5.257,5.257,0,0,1-5.256-5.256" transform="translate(-2409.777 -943.25)" fill="#fff"/>
        <path id="Path_15620" data-name="Path 15620" d="M288.2,83.284a6.206,6.206,0,1,1,6.206-6.206,6.213,6.213,0,0,1-6.206,6.206m0-10.513a4.307,4.307,0,1,0,4.307,4.307,4.311,4.311,0,0,0-4.307-4.307" transform="translate(-2410.206 -943.678)"/>
        <path id="Path_15621" data-name="Path 15621" d="M299.219,76.65a5.257,5.257,0,1,1,5.256,5.256,5.257,5.257,0,0,1-5.256-5.256" transform="translate(-2396.026 -943.25)" fill="#fff"/>
        <path id="Path_15622" data-name="Path 15622" d="M304.906,83.284a6.206,6.206,0,1,1,6.206-6.206,6.214,6.214,0,0,1-6.206,6.206m0-10.513a4.307,4.307,0,1,0,4.307,4.307,4.312,4.312,0,0,0-4.307-4.307" transform="translate(-2396.455 -943.678)"/>
        <g id="Group_3540" data-name="Group 3540" transform="translate(-2469.357 -854.964)" opacity="0.129">
          <g id="Group_3539" data-name="Group 3539">
            <g id="Group_3538" data-name="Group 3538" clip-path="url(#clip-path-2)">
              <path id="Path_15623" data-name="Path 15623" d="M491.322,82.467c-.489-.39-2.071-.487-1.592-.4-.986-.115-1.993-.013-2.983-.122-4.068-.2-8.139-.3-12.21-.387-12.231-.418-24.414.994-36.642.779-6.219.067-12.438.266-18.658.007-4.817-.038-9.609-.542-14.422-.656-13.917.093-27.814-1.021-41.731-.7q-18.113.238-36.225-.2c-9.641-.1-19.283-.009-28.924-.071-8.039-.308-16.047.514-24.082.5-17.593.25-35.2.283-52.791-.241-6.418-.1-12.847-.317-19.257.091-5.38.31-10.77.109-16.154.184-5.966-.02-11.928-.077-17.892-.095-7.027-.3-14.057-.465-21.088-.213-5.732.007-11.45.447-17.179.614-5.273.011-10.548.095-15.821.075a114.53,114.53,0,0,0-11.735-.206c-2.053.179-4.445-.531-6.061,1.054a3.556,3.556,0,0,0,2.494,6.019c4.627.153,9.266-.04,13.881.4,6.786.217,13.6.259,20.381-.071,8.323-.54,16.661-.842,25-.824,6.443.129,12.885.361,19.332.325,7.069.14,14.143.142,21.214.088,4.591-.148,9.178-.465,13.777-.33,12.809.241,25.612.731,38.426.49,12.942-.035,25.89.186,38.818-.532,11.547.064,23.1.033,34.64.15,17.13.377,34.258.009,51.387-.058,10.4.248,20.8.525,31.2.476,7.791.341,15.587.8,23.391.593,6.214-.221,12.433-.142,18.647-.381,3.75-.137,7.474-.673,11.228-.746,9.74-.4,19.487-.146,29.223-.035a3.554,3.554,0,0,0,3.014-.857,3.045,3.045,0,0,0-.609-4.726" transform="translate(-94.889 -80.659)"/>
            </g>
          </g>
        </g>
        <path id="Path_15624" data-name="Path 15624" d="M131.406,261.63a.949.949,0,0,1-.729-1.555l32.985-39.733a.951.951,0,0,1,1.3-.155l21.281,15.872,47.061-76.7a.948.948,0,0,1,1.367-.272l23.883,17.368,26.087-45.56a.949.949,0,0,1,1.522-.171l34.258,37.206,10.037-8.053a.952.952,0,0,1,1.369.191l35.246,49.761,50.146-55.765a.95.95,0,1,1,1.411,1.271l-50.939,56.645a.927.927,0,0,1-.762.314.945.945,0,0,1-.718-.4l-35.352-49.907-9.942,7.977a.945.945,0,0,1-1.291-.1l-33.982-36.9-25.969,45.354a.949.949,0,0,1-1.382.3l-23.909-17.389-47.066,76.714a.946.946,0,0,1-.631.436.933.933,0,0,1-.746-.171l-21.394-15.954-32.409,39.04a.949.949,0,0,1-.731.343" transform="translate(-2534.964 -894.66)"/>
        <path id="Path_15625" data-name="Path 15625" d="M149.735,238.607a.949.949,0,0,1-.948-.944l-.029-7.6a.95.95,0,0,1,.946-.952h0a.949.949,0,0,1,.95.944l.027,7.6a.949.949,0,0,1-.946.952Zm-.055-15.188a.95.95,0,0,1-.95-.946l-.027-7.594a.949.949,0,0,1,.944-.954h0a.95.95,0,0,1,.95.946l.027,7.594a.949.949,0,0,1-.944.954Zm-.057-15.19a.949.949,0,0,1-.95-.944l-.027-7.6a.949.949,0,0,1,.946-.952h0a.948.948,0,0,1,.95.944l.027,7.594a.948.948,0,0,1-.944.954Zm-.056-15.188a.95.95,0,0,1-.95-.946l-.027-7.594a.949.949,0,0,1,.946-.954h0a.949.949,0,0,1,.948.946l.029,7.594a.951.951,0,0,1-.946.954Z" transform="translate(-2520.035 -850.916)"/>
        <path id="Path_15626" data-name="Path 15626" d="M187.892,265.34a.951.951,0,0,1-.95-.948l-.015-7.594a.952.952,0,0,1,.948-.952h0a.951.951,0,0,1,.95.948l.013,7.594a.949.949,0,0,1-.946.952Zm-.029-15.19a.947.947,0,0,1-.948-.946l-.015-7.6a.948.948,0,0,1,.948-.95h0a.947.947,0,0,1,.948.946l.015,7.6a.95.95,0,0,1-.948.95Zm-.027-15.188a.951.951,0,0,1-.95-.948l-.013-7.594a.949.949,0,0,1,.946-.952h0a.951.951,0,0,1,.95.948l.015,7.594a.952.952,0,0,1-.948.952Zm-.029-15.19a.947.947,0,0,1-.948-.946l-.015-7.6a.948.948,0,0,1,.948-.95h0a.947.947,0,0,1,.948.946l.015,7.6a.948.948,0,0,1-.948.95Zm-.027-15.188a.951.951,0,0,1-.95-.948l-.013-7.594a.949.949,0,0,1,.946-.952h0a.949.949,0,0,1,.95.948l.015,7.594a.951.951,0,0,1-.948.952Zm-.027-15.19a.95.95,0,0,1-.95-.948l-.015-7.594a.952.952,0,0,1,.948-.952h0a.951.951,0,0,1,.95.948l.013,7.594a.949.949,0,0,1-.946.952Zm-.029-15.188a.949.949,0,0,1-.948-.948l-.015-7.594a.949.949,0,0,1,.948-.952h0a.949.949,0,0,1,.948.948l.015,7.594a.95.95,0,0,1-.948.952Zm-.027-15.19a.95.95,0,0,1-.95-.948l-.015-7.594a.953.953,0,0,1,.948-.952h0a.951.951,0,0,1,.95.948l.015,7.594a.952.952,0,0,1-.948.952Z" transform="translate(-2488.635 -878.927)"/>
        <path id="Path_15627" data-name="Path 15627" d="M216.735,279.056a.949.949,0,0,1-.95-.948l-.011-7.594a.949.949,0,0,1,.946-.952h0a.95.95,0,0,1,.95.948l.011,7.6A.948.948,0,0,1,216.735,279.056Zm-.024-15.19a.95.95,0,0,1-.95-.948l-.011-7.594a.948.948,0,0,1,.948-.95h0a.947.947,0,0,1,.948.948l.013,7.594a.95.95,0,0,1-.948.95Zm-.024-15.188a.949.949,0,0,1-.948-.948l-.013-7.594a.95.95,0,0,1,.948-.952h0a.951.951,0,0,1,.95.948l.011,7.594a.95.95,0,0,1-.948.952Zm-.022-15.19a.949.949,0,0,1-.95-.948l-.011-7.594a.946.946,0,0,1,.946-.95h0a.949.949,0,0,1,.95.948l.011,7.594a.947.947,0,0,1-.946.95Zm-.024-15.188a.951.951,0,0,1-.95-.948l-.011-7.6a.95.95,0,0,1,.948-.95h0a.949.949,0,0,1,.948.948l.013,7.594a.952.952,0,0,1-.948.952Zm-.024-15.19a.947.947,0,0,1-.948-.948l-.011-7.594a.947.947,0,0,1,.946-.95h0a.95.95,0,0,1,.95.948l.011,7.594a.948.948,0,0,1-.948.95Zm-.022-15.188a.95.95,0,0,1-.95-.948l-.011-7.6a.949.949,0,0,1,1.9,0l.011,7.594a.949.949,0,0,1-.946.952Zm-.024-15.19a.947.947,0,0,1-.948-.948l-.013-7.594a.952.952,0,0,1,.948-.952h0a.952.952,0,0,1,.95.95l.011,7.594a.949.949,0,0,1-.948.95Zm-.024-15.188a.949.949,0,0,1-.948-.948l-.011-7.6a.947.947,0,0,1,.946-.95h0a.95.95,0,0,1,.95.948l.011,7.594a.949.949,0,0,1-.948.952Zm-.022-15.19a.95.95,0,0,1-.95-.948l-.011-7.594a.948.948,0,0,1,.948-.95h0a.947.947,0,0,1,.948.946l.013,7.6a.95.95,0,0,1-.948.95Z" transform="translate(-2464.896 -892.643)"/>
        <path id="Path_15628" data-name="Path 15628" d="M241.159,265.34a.949.949,0,0,1-.95-.948l-.015-7.594a.951.951,0,0,1,.948-.952h0a.949.949,0,0,1,.948.948l.015,7.594a.95.95,0,0,1-.946.952Zm-.029-15.19a.95.95,0,0,1-.95-.946l-.013-7.6a.946.946,0,0,1,.946-.95h0a.949.949,0,0,1,.95.946l.015,7.6a.951.951,0,0,1-.948.95Zm-.027-15.188a.949.949,0,0,1-.95-.948l-.015-7.594a.95.95,0,0,1,.948-.952h0a.949.949,0,0,1,.948.948l.015,7.594a.95.95,0,0,1-.946.952Zm-.029-15.19a.95.95,0,0,1-.95-.946l-.013-7.6a.946.946,0,0,1,.946-.95h0a.948.948,0,0,1,.95.946l.015,7.6a.95.95,0,0,1-.948.95Zm-.027-15.188a.949.949,0,0,1-.95-.948l-.015-7.594a.95.95,0,0,1,.948-.952h0a.949.949,0,0,1,.948.948l.015,7.594a.95.95,0,0,1-.946.952Zm-.029-15.19a.951.951,0,0,1-.95-.948l-.013-7.594A.949.949,0,0,1,241,179.9h0a.95.95,0,0,1,.95.948l.015,7.594a.952.952,0,0,1-.948.952Zm-.027-15.188a.949.949,0,0,1-.95-.948l-.015-7.594a.95.95,0,0,1,.948-.952h0a.949.949,0,0,1,.948.948l.015,7.594a.95.95,0,0,1-.946.952Zm-.029-15.19a.95.95,0,0,1-.95-.948L240,150.476a.949.949,0,0,1,.946-.952h0a.951.951,0,0,1,.95.948l.015,7.594a.952.952,0,0,1-.948.952Z" transform="translate(-2444.781 -878.927)"/>
        <path id="Path_15629" data-name="Path 15629" d="M288.712,271.933a.95.95,0,0,1-.95-.946l-.013-7.6a.948.948,0,0,1,.948-.95h0a.947.947,0,0,1,.948.946l.015,7.6a.95.95,0,0,1-.948.95Zm-.027-15.188a.949.949,0,0,1-.948-.948l-.015-7.594a.95.95,0,0,1,.948-.952h0a.951.951,0,0,1,.95.948l.013,7.594a.95.95,0,0,1-.948.952Zm-.026-15.19a.95.95,0,0,1-.95-.946l-.013-7.6a.946.946,0,0,1,.946-.95h0a.947.947,0,0,1,.95.946l.013,7.6a.948.948,0,0,1-.946.95Zm-.027-15.188a.951.951,0,0,1-.95-.948l-.013-7.594a.949.949,0,0,1,.948-.952h0a.949.949,0,0,1,.948.948l.015,7.594a.95.95,0,0,1-.948.952Zm-.027-15.19a.947.947,0,0,1-.948-.946l-.015-7.6a.949.949,0,0,1,.948-.95h0a.95.95,0,0,1,.95.946l.013,7.594a.949.949,0,0,1-.948.952Zm-.026-15.188a.951.951,0,0,1-.95-.948l-.013-7.594a.949.949,0,1,1,1.9,0l.013,7.594a.949.949,0,0,1-.946.952Zm-.027-15.19a.949.949,0,0,1-.948-.948l-.015-7.594a.951.951,0,0,1,.948-.952h0a.951.951,0,0,1,.95.948l.013,7.594a.949.949,0,0,1-.948.952Zm-.026-15.188a.95.95,0,0,1-.95-.948l-.013-7.594a.949.949,0,1,1,1.9,0l.013,7.594A.949.949,0,0,1,288.526,165.613Zm-.027-15.19a.951.951,0,0,1-.95-.948l-.009-5.455a.951.951,0,0,1,.948-.952h0a.949.949,0,0,1,.948.948l.011,5.455a.949.949,0,0,1-.948.952Z" transform="translate(-2405.641 -884.242)"/>
        <path id="Path_15630" data-name="Path 15630" d="M432.062,214.6H127.714a.949.949,0,1,1,0-1.9H432.062a.949.949,0,1,1,0,1.9" transform="translate(-2538.004 -826.911)"/>
        <path id="Path_15631" data-name="Path 15631" d="M223.58,213.874a.308.308,0,0,1-.208-.078l-5.071-4.443a.317.317,0,1,1,.418-.476l5.069,4.443a.316.316,0,0,1-.208.554" transform="translate(-2462.732 -830.128)"/>
        <path id="Path_15632" data-name="Path 15632" d="M231.945,216.773a.321.321,0,0,1-.182-.056,171.256,171.256,0,0,1-13.93-10.763.312.312,0,0,1-.031-.445.315.315,0,0,1,.445-.035A170.191,170.191,0,0,0,232.125,216.2a.317.317,0,0,1-.181.576" transform="translate(-2463.12 -832.927)"/>
        <path id="Path_15633" data-name="Path 15633" d="M238.131,219.209a.309.309,0,0,1-.2-.069c-6.686-5.317-13.4-10.792-19.97-16.273a.317.317,0,0,1,.407-.487c6.562,5.479,13.275,10.951,19.958,16.264a.316.316,0,0,1,.051.445.312.312,0,0,1-.248.12" transform="translate(-2463.015 -835.472)"/>
        <path id="Path_15634" data-name="Path 15634" d="M244.489,221.96a.309.309,0,0,1-.2-.069c-8.969-7.114-17.843-14.588-26.374-22.209a.316.316,0,0,1,.421-.472c8.522,7.614,17.387,15.078,26.346,22.186a.316.316,0,0,1,.051.445.311.311,0,0,1-.248.12" transform="translate(-2463.047 -838.088)"/>
        <path id="Path_15635" data-name="Path 15635" d="M249.983,224.371a.314.314,0,0,1-.215-.084c-10.2-9.463-20.831-18.718-31.606-27.508a.317.317,0,0,1,.4-.49c10.785,8.8,21.429,18.063,31.636,27.533a.317.317,0,0,1,.016.447.313.313,0,0,1-.232.1" transform="translate(-2462.854 -840.485)"/>
        <path id="Path_15636" data-name="Path 15636" d="M257.059,227.251a.309.309,0,0,1-.21-.08l-38.863-34.611a.316.316,0,0,1,.421-.472L257.269,226.7a.317.317,0,0,1,.027.447.322.322,0,0,1-.237.106" transform="translate(-2462.99 -843.951)"/>
        <path id="Path_15637" data-name="Path 15637" d="M255.747,222.212a.325.325,0,0,1-.2-.071C242.59,211.56,229.9,200.316,217.83,188.72a.317.317,0,1,1,.439-.456C230.326,199.847,243,211.08,255.947,221.65a.317.317,0,0,1-.2.562" transform="translate(-2463.112 -847.106)"/>
        <path id="Path_15638" data-name="Path 15638" d="M255.036,218.253a.322.322,0,0,1-.211-.08L217.9,185.082a.316.316,0,1,1,.421-.47L255.248,217.7a.317.317,0,0,1,.024.447.308.308,0,0,1-.235.106" transform="translate(-2463.062 -850.107)"/>
        <path id="Path_15639" data-name="Path 15639" d="M254.68,213.8a.323.323,0,0,1-.186-.06,164.99,164.99,0,0,1-12.9-10.8c-7.8-7-15.863-14.231-23.566-21.615a.317.317,0,0,1,.438-.458c7.7,7.379,15.757,14.61,23.551,21.6a164.449,164.449,0,0,0,12.85,10.761.316.316,0,0,1-.186.573" transform="translate(-2462.95 -853.2)"/>
        <path id="Path_15640" data-name="Path 15640" d="M254.724,210.275a.309.309,0,0,1-.2-.069c-12.65-10.039-24.941-20.835-36.529-32.086a.317.317,0,0,1,.441-.454c11.574,11.237,23.848,22.018,36.482,32.046a.316.316,0,0,1-.2.563" transform="translate(-2462.972 -855.832)"/>
        <path id="Path_15641" data-name="Path 15641" d="M254.765,207.345a.322.322,0,0,1-.208-.077c-12.369-10.7-24.7-21.79-36.641-32.948a.317.317,0,0,1,.432-.463c11.937,11.153,24.26,22.233,36.622,32.932a.316.316,0,0,1-.206.556" transform="translate(-2463.043 -858.963)"/>
        <path id="Path_15642" data-name="Path 15642" d="M254.649,203.183a.318.318,0,0,1-.2-.071c-12.407-10.172-24.709-20.811-36.558-31.621a.317.317,0,0,1-.022-.447.314.314,0,0,1,.447-.02c11.844,10.8,24.135,21.433,36.535,31.6a.316.316,0,0,1-.2.562" transform="translate(-2463.068 -861.295)"/>
        <path id="Path_15643" data-name="Path 15643" d="M254.656,199.385a.325.325,0,0,1-.2-.075l-36.529-30.919a.318.318,0,0,1,.41-.485l36.527,30.921a.317.317,0,0,1,.038.447.323.323,0,0,1-.242.111" transform="translate(-2463.048 -863.854)"/>
        <path id="Path_15644" data-name="Path 15644" d="M255.241,196.294a.314.314,0,0,1-.2-.073l-37.293-31.209a.317.317,0,0,1,.407-.487l37.293,31.209a.318.318,0,0,1,.038.447.313.313,0,0,1-.242.113" transform="translate(-2463.195 -866.637)"/>
        <path id="Path_15645" data-name="Path 15645" d="M255.019,192.317a.316.316,0,0,1-.2-.071c-12.5-10.117-24.986-20.588-37.111-31.123a.317.317,0,0,1,.416-.478c12.117,10.529,24.6,21,37.093,31.109a.317.317,0,0,1-.2.563" transform="translate(-2463.221 -869.835)"/>
        <path id="Path_15646" data-name="Path 15646" d="M255.39,189.217a.318.318,0,0,1-.193-.066c-12.81-9.937-25.455-20.43-37.583-31.187a.316.316,0,1,1,.419-.472c12.119,10.746,24.753,21.23,37.552,31.158a.318.318,0,0,1,.055.445.314.314,0,0,1-.25.122" transform="translate(-2463.298 -872.433)"/>
        <path id="Path_15647" data-name="Path 15647" d="M255.179,185.509a.338.338,0,0,1-.186-.058,363.484,363.484,0,0,1-37.251-30.512.318.318,0,0,1-.015-.447.313.313,0,0,1,.447-.015,362.527,362.527,0,0,0,37.189,30.458.317.317,0,0,1,.071.441.31.31,0,0,1-.255.133" transform="translate(-2463.186 -874.92)"/>
        <path id="Path_15648" data-name="Path 15648" d="M254.705,182.218a.323.323,0,0,1-.186-.06,376.419,376.419,0,0,1-36.755-30.423.316.316,0,0,1,.434-.459,375.885,375.885,0,0,0,36.693,30.37.316.316,0,0,1-.186.572" transform="translate(-2463.168 -877.556)"/>
        <path id="Path_15649" data-name="Path 15649" d="M254.992,178.709a.321.321,0,0,1-.193-.066c-12.559-9.66-25.014-19.806-37.016-30.157a.316.316,0,0,1,.412-.479c12,10.343,24.439,20.481,36.991,30.135a.316.316,0,0,1-.193.567" transform="translate(-2463.162 -880.239)"/>
        <path id="Path_15650" data-name="Path 15650" d="M254.8,174.129a.321.321,0,0,1-.193-.066c-5.8-4.482-11.554-8.976-17.647-13.733Q227.566,153,217.509,145.2a.317.317,0,0,1,.387-.5q10.075,7.786,19.453,15.135c6.092,4.757,11.846,9.25,17.644,13.729a.316.316,0,0,1-.193.567" transform="translate(-2463.398 -882.954)"/>
        <path id="Path_15651" data-name="Path 15651" d="M254.506,170.672a.309.309,0,0,1-.2-.069c-10.039-7.959-23.3-18.382-36.847-28.425a.317.317,0,1,1,.377-.509c13.554,10.05,26.82,20.477,36.863,28.439a.316.316,0,0,1-.2.563" transform="translate(-2463.439 -885.445)"/>
        <path id="Path_15652" data-name="Path 15652" d="M237.371,154.241a.3.3,0,0,1-.191-.066c-7.021-5.382-13.124-10.156-18.658-14.588a.317.317,0,0,1,.4-.5c5.53,4.432,11.629,9.2,18.647,14.583a.316.316,0,0,1-.193.567" transform="translate(-2462.56 -887.571)"/>
        <path id="Path_15653" data-name="Path 15653" d="M239.7,155.733a.3.3,0,0,1-.186-.062q-1.728-1.264-3.442-2.543a.317.317,0,0,1,.377-.509q1.715,1.28,3.439,2.542a.317.317,0,0,1-.188.573" transform="translate(-2448.122 -876.43)"/>
        <path id="Path_15666" data-name="Path 15666" d="M233.94,96.745a4.588,4.588,0,1,1,4.589,4.587,4.589,4.589,0,0,1-4.589-4.587" transform="translate(-2449.769 -926.156)" fill="#fff"/>
      </g>
    </g>
    <g id="Group_3615" data-name="Group 3615" transform="translate(133 161.169)">
      <rect id="Rectangle_17947" data-name="Rectangle 17947" width="148.641" height="102.235" transform="translate(-2418.694 -814.638)" fill="#fff"/>
      <path id="Path_15654" data-name="Path 15654" d="M271.745,204.743H123.1a.949.949,0,0,1-.948-.948V101.558a.949.949,0,0,1,.948-.948H271.745a.949.949,0,0,1,.95.948V203.795a.949.949,0,0,1-.95.948m-147.691-1.9H270.795V102.508H124.054Z" transform="translate(-2541.798 -916.196)"/>
      <path id="Path_15655" data-name="Path 15655" d="M224.289,119.564H141.037a.949.949,0,1,1,0-1.9h83.253a.949.949,0,1,1,0,1.9" transform="translate(-2527.036 -902.155)"/>
      <path id="Path_15656" data-name="Path 15656" d="M225.293,143.3H142.041a.949.949,0,1,1,0-1.9h83.253a.949.949,0,1,1,0,1.9" transform="translate(-2526.209 -882.615)"/>
      <path id="Path_15657" data-name="Path 15657" d="M195.935,131.3H133.282a.949.949,0,1,1,0-1.9h62.653a.949.949,0,1,1,0,1.9" transform="translate(-2533.42 -892.398)"/>
      <path id="Path_15658" data-name="Path 15658" d="M176.363,120.29a5.257,5.257,0,1,1,5.257,5.257,5.257,5.257,0,0,1-5.257-5.257" transform="translate(-2497.17 -904.322)" fill="#ff9866"/>
      <path id="Path_15659" data-name="Path 15659" d="M182.048,126.924a6.206,6.206,0,1,1,6.206-6.2,6.212,6.212,0,0,1-6.206,6.2m0-10.515a4.308,4.308,0,1,0,4.308,4.31,4.313,4.313,0,0,0-4.308-4.31" transform="translate(-2497.6 -904.75)"/>
      <path id="Path_15660" data-name="Path 15660" d="M146.935,133.1a5.257,5.257,0,1,1,5.256,5.257,5.257,5.257,0,0,1-5.256-5.257" transform="translate(-2521.398 -894.847)" fill="#fff"/>
      <path id="Path_15661" data-name="Path 15661" d="M152.62,139.737a6.206,6.206,0,1,1,6.206-6.2,6.212,6.212,0,0,1-6.206,6.2m0-10.513a4.307,4.307,0,1,0,4.308,4.308,4.312,4.312,0,0,0-4.308-4.308" transform="translate(-2521.827 -895.326)"/>
      <path id="Path_15662" data-name="Path 15662" d="M176.363,144.293a5.257,5.257,0,1,1,5.257,5.257,5.257,5.257,0,0,1-5.257-5.257" transform="translate(-2497.17 -884.56)" fill="#ff9866"/>
      <path id="Path_15663" data-name="Path 15663" d="M182.048,150.928a6.206,6.206,0,1,1,6.206-6.206,6.213,6.213,0,0,1-6.206,6.206m0-10.513a4.307,4.307,0,1,0,4.308,4.307,4.311,4.311,0,0,0-4.308-4.307" transform="translate(-2497.6 -884.988)"/>
    </g>
  </g>
</svg>
