<svg xmlns="http://www.w3.org/2000/svg" xmlns:xlink="http://www.w3.org/1999/xlink" width="779.779" height="506.158" viewBox="0 0 779.779 506.158">
  <defs>
    <clipPath id="clip-path">
      <ellipse id="Ellipse_77" data-name="Ellipse 77" cx="372" cy="221.5" rx="372" ry="221.5" transform="matrix(0.996, 0.087, -0.087, 0.996, -1869.145, -439.911)" fill="#fff"/>
    </clipPath>
    <clipPath id="clip-path-2">
      <path id="Union_1" data-name="Union 1" d="M450,436V348H577v88ZM0,161V0H195V161Z" transform="translate(-1867 -396)" fill="#fff"/>
    </clipPath>
  </defs>
  <g id="Group_3669" data-name="Group 3669" transform="translate(1907.755 439.911)">
    <ellipse id="Ellipse_75" data-name="Ellipse 75" cx="372" cy="221.5" rx="372" ry="221.5" transform="matrix(0.996, 0.087, -0.087, 0.996, -1869.145, -439.911)" fill="#fff"/>
    <g id="Mask_Group_4" data-name="Mask Group 4" clip-path="url(#clip-path)">
      <g id="Group_3609" data-name="Group 3609" transform="translate(-1937.385 -357.215)">
        <path id="Path_15835" data-name="Path 15835" d="M493.24,176.495H639.422a29.083,29.083,0,0,1,28.467,23.123L708.8,394.948s-160.6,1.635-171.086.237-35.3-4.63-35.3-4.63L464.775,211.542a29.083,29.083,0,0,1,28.465-35.047" transform="translate(-464.146 -14.375)" fill="#fff"/>
        <path id="Path_15836" data-name="Path 15836" d="M493.24,176.495H639.422a29.083,29.083,0,0,1,28.467,23.123L708.8,394.948l-206.383-5.005-37.644-178.4A29.083,29.083,0,0,1,493.24,176.495Z" transform="translate(-464.146 -14.375)" fill="none" stroke="#4c3964" stroke-linecap="round" stroke-linejoin="round" stroke-width="1"/>
        <path id="Path_15837" data-name="Path 15837" d="M571.247,173.8l93.585,44.329,26.866,120s11.641.447,12.091,3.583-.45,9.4-.45,9.4,8.061.447,8.955,7.611,0,14.777-1.342,18.36-14.777,20.149-18.807,20.6a76.392,76.392,0,0,0-10.3,1.791c-1.342.447-229.706,0-229.706,0s-8.955-.895-11.194-2.686-2.688-5.822-2.688-5.822-6.267-4.925-6.717-8.061,2.239-22.388,2.239-26.419-16.119-120.9-17.016-128.957,1.791-11.2,4.03-13.435,26.868-16.566,37.613-21.044,47.638-20.823,47.638-20.823Z" transform="translate(-367.648 -19.106)" fill="#fff"/>
        <path id="Path_15838" data-name="Path 15838" d="M571.247,173.8l93.585,44.329,26.866,120s11.641.447,12.091,3.583-.45,9.4-.45,9.4,8.061.447,8.955,7.611,0,14.777-1.342,18.36-14.777,20.149-18.807,20.6a76.392,76.392,0,0,0-10.3,1.791c-1.342.447-229.706,0-229.706,0s-8.955-.895-11.194-2.686-2.688-5.822-2.688-5.822-6.267-4.925-6.717-8.061,2.239-22.388,2.239-26.419-16.119-120.9-17.016-128.957,1.791-11.2,4.03-13.435,26.868-16.566,37.613-21.044,47.638-20.823,47.638-20.823Z" transform="translate(-367.648 -19.106)" fill="#ff9866" stroke="#000" stroke-linecap="round" stroke-linejoin="round" stroke-width="1"/>
        <path id="Path_15839" data-name="Path 15839" d="M541.795,253.962c-2.3-1.152-52.658-60.229-66.96-77.038A117.574,117.574,0,0,1,488.525,172l63.12,1.361,18.5,9.527c-4.807,15.267-19.187,54.424-22.084,61.67-3.583,8.955-3.583,10.747-6.269,9.4" transform="translate(-348.048 -19.364)" fill="#fff"/>
        <path id="Path_15840" data-name="Path 15840" d="M541.795,253.962c-2.3-1.152-52.658-60.229-66.96-77.038A117.574,117.574,0,0,1,488.525,172l63.12,1.361,18.5,9.527c-4.807,15.267-19.187,54.424-22.084,61.67C544.481,253.514,544.481,255.306,541.795,253.962Z" transform="translate(-348.048 -19.364)" fill="none" stroke="#000" stroke-linecap="round" stroke-linejoin="round" stroke-width="1"/>
        <path id="Path_15841" data-name="Path 15841" d="M557.426,114.2s17.229,20.529,17.229,28.227-3.3,16.13.367,20.529,24.195,13.931,20.162,19.063a48.787,48.787,0,0,1-10.264,9.166l.732,11.73s-7.33,28.594-11.363,30.061-16.864,1.1-16.864,1.1-16.13,64.154-20.162,64.886-52.85-53.569-52.85-53.569l1.893-21.582s-19.063-31.16-24.194-45.456,5.132-43.991,19.8-57.555,44.357-15.762,55.354-14.663,20.162,8.065,20.162,8.065" transform="translate(-343.934 -92.755)" fill="#fff"/>
        <path id="Path_15842" data-name="Path 15842" d="M557.426,114.2s17.229,20.529,17.229,28.227-3.3,16.13.367,20.529,24.195,13.931,20.162,19.063a48.787,48.787,0,0,1-10.264,9.166l.732,11.73s-7.33,28.594-11.363,30.061-16.864,1.1-16.864,1.1-16.13,64.154-20.162,64.886-52.85-53.569-52.85-53.569l1.893-21.582s-19.063-31.16-24.194-45.456,5.132-43.991,19.8-57.555,44.357-15.762,55.354-14.663S557.426,114.2,557.426,114.2Z" transform="translate(-343.934 -92.755)" fill="none" stroke="#000" stroke-linecap="round" stroke-linejoin="round" stroke-width="1"/>
        <path id="Path_15843" data-name="Path 15843" d="M489.966,125.02s-9.453-2.986-16.052,2.88" transform="translate(-265.921 -72.362)" fill="none" stroke="#000" stroke-linecap="round" stroke-linejoin="round" stroke-width="2"/>
        <path id="Path_15844" data-name="Path 15844" d="M476.794,135.986c.884,2.692,2.691,4.52,4.039,4.077s1.722-2.982.838-5.676-2.69-4.518-4.037-4.077-1.722,2.984-.84,5.676" transform="translate(-263.176 -65.719)"/>
        <path id="Path_15845" data-name="Path 15845" d="M476.794,135.986c.884,2.692,2.691,4.52,4.039,4.077s1.722-2.982.838-5.676-2.69-4.518-4.037-4.077S475.912,133.293,476.794,135.986Z" transform="translate(-263.176 -65.719)" fill="none" stroke="#000" stroke-linecap="round" stroke-linejoin="round" stroke-width="1"/>
        <path id="Path_15846" data-name="Path 15846" d="M579.912,103.879s33.726,5.866,25.661,12.464-52.421,18.328-61.953,21.629,16.13,9.164,12.462,12.1-11,16.864-11,16.864,1.464,18.328,6.231,28.227,27.128,23.1,27.128,23.1,11.73-15.762,17.963-15.762,15.03,1.464,14.3,7.33-3.3,21.629-3.665,23.1,4.4,16.13-.732,19.43-31.527-7.333-43.259-12.464-17.229-7.7-17.961-15.03-12.1-40.324-12.1-40.324-7.7-5.134-14.665-4.032-6.966,16.5-.732,22a171.3,171.3,0,0,0,14.3,11L511.359,230.72s-45.091-45.458-45.823-63.054,21.629-48.756,31.16-58.655,64.521-12.464,83.216-5.132" transform="translate(-368.989 -99.665)" fill="#474747"/>
        <path id="Path_15847" data-name="Path 15847" d="M579.912,103.879s33.726,5.866,25.661,12.464-52.421,18.328-61.953,21.629,16.13,9.164,12.462,12.1-11,16.864-11,16.864,1.464,18.328,6.231,28.227,27.128,23.1,27.128,23.1,11.73-15.762,17.963-15.762,15.03,1.464,14.3,7.33-3.3,21.629-3.665,23.1,4.4,16.13-.732,19.43-31.527-7.333-43.259-12.464-17.229-7.7-17.961-15.03-12.1-40.324-12.1-40.324-7.7-5.134-14.665-4.032-6.966,16.5-.732,22a171.3,171.3,0,0,0,14.3,11L511.359,230.72s-45.091-45.458-45.823-63.054,21.629-48.756,31.16-58.655S561.217,96.546,579.912,103.879Z" transform="translate(-368.989 -99.665)" fill="none" stroke="#000" stroke-linecap="round" stroke-linejoin="round" stroke-width="1"/>
        <path id="Path_15848" data-name="Path 15848" d="M491.161,156.106s-11.671-4.435-14.992-3.815c-6.155,1.152-12.152,7.7-10,12.726,1.91,4.459,5.1,8.922,9.215,10.979s5.83,3.087,6.516,1.03,2.511-4.091,4.568-4.433,1.418,1.973,1.418,1.973,1.9-15.716,3.273-18.459" transform="translate(-249.835 -41.31)" fill="#fff"/>
        <path id="Path_15849" data-name="Path 15849" d="M491.161,156.106s-11.671-4.435-14.992-3.815c-6.155,1.152-12.152,7.7-10,12.726,1.91,4.459,5.1,8.922,9.215,10.979s5.83,3.087,6.516,1.03,2.511-4.091,4.568-4.433,1.418,1.973,1.418,1.973S489.79,158.85,491.161,156.106Z" transform="translate(-249.835 -41.31)" fill="none" stroke="#000" stroke-linecap="round" stroke-linejoin="round" stroke-width="1"/>
        <path id="Path_15850" data-name="Path 15850" d="M481.6,158.5a28.512,28.512,0,0,1-13.937-3.94" transform="translate(-244.356 -38.729)" fill="none" stroke="#000" stroke-linecap="round" stroke-linejoin="round" stroke-width="1"/>
        <path id="Path_15851" data-name="Path 15851" d="M449.945,257.315s-18.358,2.686-25.971,19.7" transform="translate(-120.522 75.343)" fill="none" stroke="#000" stroke-linecap="round" stroke-linejoin="round" stroke-width="1"/>
        <path id="Path_15852" data-name="Path 15852" d="M449.64,253.071s-15.224,4.03-20.149,10.3" transform="translate(-131.859 70.632)" fill="none" stroke="#000" stroke-linecap="round" stroke-linejoin="round" stroke-width="1"/>
        <path id="Path_15853" data-name="Path 15853" d="M509.068,217.672l13.083,77.382s20.6,3.583,20.6,9.85-11.194,22.39-11.194,22.39" transform="translate(-392.882 31.335)" fill="none" stroke="#000" stroke-linecap="round" stroke-linejoin="round" stroke-width="1"/>
        <line id="Line_187" data-name="Line 187" x2="0.819" y2="4.91" transform="translate(114.044 235.044)" fill="none" stroke="#000" stroke-linecap="round" stroke-linejoin="round" stroke-width="1"/>
        <path id="Path_15854" data-name="Path 15854" d="M543.511,249.995a43.6,43.6,0,0,0-6.579.669" transform="translate(-452.442 67.217)" fill="none" stroke="#000" stroke-linecap="round" stroke-linejoin="round" stroke-width="1"/>
        <path id="Path_15855" data-name="Path 15855" d="M547.74,255.952a107.3,107.3,0,0,0-26.364-5.879" transform="translate(-423.845 67.304)" fill="none" stroke="#000" stroke-linecap="round" stroke-linejoin="round" stroke-width="1"/>
        <path id="Path_15856" data-name="Path 15856" d="M558.1,255.618s-14.777,6.269-20.6,26.419" transform="translate(-468.235 73.46)" fill="none" stroke="#000" stroke-linecap="round" stroke-linejoin="round" stroke-width="1"/>
        <path id="Path_15857" data-name="Path 15857" d="M438.025,301.478s-1.344-9.852,10.747-25.524,23.732-17.014,26.866-15.672,88.211,32.24,88.211,32.24,52.39-30,56.867-27.763S653.4,301.925,653.4,301.925Z" transform="translate(-353.534 78.198)" fill="#fff"/>
        <path id="Path_15858" data-name="Path 15858" d="M438.025,301.478s-1.344-9.852,10.747-25.524,23.732-17.014,26.866-15.672,88.211,32.24,88.211,32.24,52.39-30,56.867-27.763S653.4,301.925,653.4,301.925Z" transform="translate(-353.534 78.198)" fill="none" stroke="#000" stroke-linecap="round" stroke-linejoin="round" stroke-width="1"/>
        <line id="Line_188" data-name="Line 188" x1="28.21" y1="29.554" transform="translate(259.57 350.569)" fill="none" stroke="#000" stroke-linecap="round" stroke-linejoin="round" stroke-width="1"/>
        <line id="Line_189" data-name="Line 189" x1="25.524" y1="22.836" transform="translate(247.032 355.944)" fill="none" stroke="#000" stroke-linecap="round" stroke-linejoin="round" stroke-width="1"/>
        <line id="Line_190" data-name="Line 190" x1="17.463" y1="17.016" transform="translate(235.391 363.555)" fill="none" stroke="#000" stroke-linecap="round" stroke-linejoin="round" stroke-width="1"/>
        <line id="Line_191" data-name="Line 191" x1="7.164" y1="5.822" transform="translate(225.988 373.406)" fill="none" stroke="#000" stroke-linecap="round" stroke-linejoin="round" stroke-width="1"/>
        <line id="Line_192" data-name="Line 192" x1="1.471" y1="10.128" transform="translate(277.034 222.954)" fill="none" stroke="#000" stroke-linecap="round" stroke-linejoin="round" stroke-width="1"/>
        <line id="Line_193" data-name="Line 193" x1="19.461" y1="133.947" transform="translate(280.408 246.176)" fill="none" stroke="#000" stroke-linecap="round" stroke-linejoin="round" stroke-width="1"/>
        <path id="Path_15859" data-name="Path 15859" d="M385.565,298s2.686-26.419,15.224-32.24,26.866.9,32.24,2.239,53.732,30.449,53.732,30.449Z" transform="translate(-76.292 82.123)" fill="#fff"/>
        <path id="Path_15860" data-name="Path 15860" d="M385.565,298s2.686-26.419,15.224-32.24,26.866.9,32.24,2.239,53.732,30.449,53.732,30.449Z" transform="translate(-76.292 82.123)" fill="none" stroke="#000" stroke-linecap="round" stroke-linejoin="round" stroke-width="1"/>
        <path id="Path_15861" data-name="Path 15861" d="M377.077,282.408s12.986-9.85,18.807-14.777,9.4-5.372,21.044-4.03,20.149,34.926,20.149,34.926H393.646Z" transform="translate(-8.697 81.596)" fill="#fff"/>
        <path id="Path_15862" data-name="Path 15862" d="M377.077,282.408s12.986-9.85,18.807-14.777,9.4-5.372,21.044-4.03,20.149,34.926,20.149,34.926H393.646Z" transform="translate(-8.697 81.596)" fill="none" stroke="#000" stroke-linecap="round" stroke-linejoin="round" stroke-width="1"/>
        <path id="Path_15863" data-name="Path 15863" d="M406.891,269.835s16.119,17.911,14.33,19.255-10.3.895-10.3.895S396.144,278.79,395.7,275.657s11.194-5.822,11.194-5.822" transform="translate(-32.242 89.242)" fill="#fff"/>
        <path id="Path_15864" data-name="Path 15864" d="M406.891,269.835s16.119,17.911,14.33,19.255-10.3.895-10.3.895S396.144,278.79,395.7,275.657,406.891,269.835,406.891,269.835Z" transform="translate(-32.242 89.242)" fill="none" stroke="#000" stroke-linecap="round" stroke-linejoin="round" stroke-width="1"/>
        <path id="Path_15865" data-name="Path 15865" d="M382.216,268.258l16.119,31.793,8.955-1.791s-9.85-30.449-11.194-33.584-8.508-4.028-14.775,0" transform="translate(12.135 80.521)" fill="#fff"/>
        <path id="Path_15866" data-name="Path 15866" d="M382.216,268.258l16.119,31.793,8.955-1.791s-9.85-30.449-11.194-33.584-8.508-4.028-14.775,0" transform="translate(12.135 80.521)" fill="none" stroke="#000" stroke-linecap="round" stroke-linejoin="round" stroke-width="1"/>
        <path id="Path_15867" data-name="Path 15867" d="M377.077,263.445s13.292-1.49,15.281,1.606,4.868,33.321,4.868,33.321l-8.955-1.344Z" transform="translate(31.154 81.751)" fill="#fff"/>
        <path id="Path_15868" data-name="Path 15868" d="M377.077,263.445s13.292-1.49,15.281,1.606,4.868,33.321,4.868,33.321l-8.955-1.344Z" transform="translate(31.154 81.751)" fill="none" stroke="#000" stroke-linecap="round" stroke-linejoin="round" stroke-width="1"/>
        <path id="Path_15869" data-name="Path 15869" d="M373.342,264.751s10.607,3.537,11.051,6.408-.221,24.754-.221,24.754l-7.508.612Z" transform="translate(51.718 83.598)" fill="#fff"/>
        <path id="Path_15870" data-name="Path 15870" d="M373.342,264.751s10.607,3.537,11.051,6.408-.221,24.754-.221,24.754l-7.508.612Z" transform="translate(51.718 83.598)" fill="none" stroke="#000" stroke-linecap="round" stroke-linejoin="round" stroke-width="1"/>
        <path id="Path_15871" data-name="Path 15871" d="M365.941,269.254s10.388,7.736,11.051,9.5,6.187,7.955,3.978,8.4-9.945-5.526-9.945-5.526l-4.64-1.988Z" transform="translate(70.39 88.597)" fill="#fff"/>
        <path id="Path_15872" data-name="Path 15872" d="M365.941,269.254s10.388,7.736,11.051,9.5,6.187,7.955,3.978,8.4-9.945-5.526-9.945-5.526l-4.64-1.988Z" transform="translate(70.39 88.597)" fill="none" stroke="#000" stroke-linecap="round" stroke-linejoin="round" stroke-width="1"/>
        <rect id="Rectangle_17972" data-name="Rectangle 17972" width="151.062" height="4.4" transform="translate(293.718 376.171)" fill="#fff"/>
        <rect id="Rectangle_17973" data-name="Rectangle 17973" width="151.062" height="4.4" transform="translate(293.718 376.171)" fill="none" stroke="#000" stroke-linecap="round" stroke-linejoin="round" stroke-width="1"/>
        <path id="Path_15873" data-name="Path 15873" d="M300.008,222.091H480.629L451.862,344.329H271.241Z" transform="translate(171.076 36.241)" fill="#fff"/>
        <path id="Path_15874" data-name="Path 15874" d="M300.008,222.091H480.629L451.862,344.329H271.241Z" transform="translate(171.076 36.241)" fill="#fff" stroke="#000" stroke-linecap="round" stroke-linejoin="round" stroke-width="1"/>
        <path id="Path_15875" data-name="Path 15875" d="M310.961,258.147a11.405,11.405,0,1,0,11.407-11.405,11.407,11.407,0,0,0-11.407,11.405" transform="translate(234.121 63.606)" fill="#ff9866"/>
        <path id="Path_15876" data-name="Path 15876" d="M310.961,258.147a11.405,11.405,0,1,0,11.407-11.405A11.407,11.407,0,0,0,310.961,258.147Z" transform="translate(234.121 63.606)" fill="none" stroke="#000" stroke-linecap="round" stroke-linejoin="round" stroke-width="1"/>
      </g>
    </g>
    <g id="Mask_Group_5" data-name="Mask Group 5" clip-path="url(#clip-path-2)">
      <g id="Group_3608" data-name="Group 3608" transform="translate(-1937.385 -357.215)">
        <path id="Path_15835-2" data-name="Path 15835" d="M493.24,176.495H639.422a29.083,29.083,0,0,1,28.467,23.123L708.8,394.948s-160.6,1.635-171.086.237-35.3-4.63-35.3-4.63L464.775,211.542a29.083,29.083,0,0,1,28.465-35.047" transform="translate(-464.146 -14.375)" fill="#4c3964"/>
        <path id="Path_15836-2" data-name="Path 15836" d="M493.24,176.495H639.422a29.083,29.083,0,0,1,28.467,23.123L708.8,394.948l-206.383-5.005-37.644-178.4A29.083,29.083,0,0,1,493.24,176.495Z" transform="translate(-464.146 -14.375)" fill="none" stroke="#4c3964" stroke-linecap="round" stroke-linejoin="round" stroke-width="1"/>
        <path id="Path_15837-2" data-name="Path 15837" d="M571.247,173.8l93.585,44.329,26.866,120s11.641.447,12.091,3.583-.45,9.4-.45,9.4,8.061.447,8.955,7.611,0,14.777-1.342,18.36-14.777,20.149-18.807,20.6a76.392,76.392,0,0,0-10.3,1.791c-1.342.447-229.706,0-229.706,0s-8.955-.895-11.194-2.686-2.688-5.822-2.688-5.822-6.267-4.925-6.717-8.061,2.239-22.388,2.239-26.419-16.119-120.9-17.016-128.957,1.791-11.2,4.03-13.435,26.868-16.566,37.613-21.044,47.638-20.823,47.638-20.823Z" transform="translate(-367.648 -19.106)" fill="#fff"/>
        <path id="Path_15838-2" data-name="Path 15838" d="M571.247,173.8l93.585,44.329,26.866,120s11.641.447,12.091,3.583-.45,9.4-.45,9.4,8.061.447,8.955,7.611,0,14.777-1.342,18.36-14.777,20.149-18.807,20.6a76.392,76.392,0,0,0-10.3,1.791c-1.342.447-229.706,0-229.706,0s-8.955-.895-11.194-2.686-2.688-5.822-2.688-5.822-6.267-4.925-6.717-8.061,2.239-22.388,2.239-26.419-16.119-120.9-17.016-128.957,1.791-11.2,4.03-13.435,26.868-16.566,37.613-21.044,47.638-20.823,47.638-20.823Z" transform="translate(-367.648 -19.106)" fill="#ff9866" stroke="#000" stroke-linecap="round" stroke-linejoin="round" stroke-width="1"/>
        <path id="Path_15839-2" data-name="Path 15839" d="M541.795,253.962c-2.3-1.152-52.658-60.229-66.96-77.038A117.574,117.574,0,0,1,488.525,172l63.12,1.361,18.5,9.527c-4.807,15.267-19.187,54.424-22.084,61.67-3.583,8.955-3.583,10.747-6.269,9.4" transform="translate(-348.048 -19.364)" fill="#fff"/>
        <path id="Path_15840-2" data-name="Path 15840" d="M541.795,253.962c-2.3-1.152-52.658-60.229-66.96-77.038A117.574,117.574,0,0,1,488.525,172l63.12,1.361,18.5,9.527c-4.807,15.267-19.187,54.424-22.084,61.67C544.481,253.514,544.481,255.306,541.795,253.962Z" transform="translate(-348.048 -19.364)" fill="none" stroke="#000" stroke-linecap="round" stroke-linejoin="round" stroke-width="1"/>
        <path id="Path_15841-2" data-name="Path 15841" d="M557.426,114.2s17.229,20.529,17.229,28.227-3.3,16.13.367,20.529,24.195,13.931,20.162,19.063a48.787,48.787,0,0,1-10.264,9.166l.732,11.73s-7.33,28.594-11.363,30.061-16.864,1.1-16.864,1.1-16.13,64.154-20.162,64.886-52.85-53.569-52.85-53.569l1.893-21.582s-19.063-31.16-24.194-45.456,5.132-43.991,19.8-57.555,44.357-15.762,55.354-14.663,20.162,8.065,20.162,8.065" transform="translate(-343.934 -92.755)" fill="#fff"/>
        <path id="Path_15842-2" data-name="Path 15842" d="M557.426,114.2s17.229,20.529,17.229,28.227-3.3,16.13.367,20.529,24.195,13.931,20.162,19.063a48.787,48.787,0,0,1-10.264,9.166l.732,11.73s-7.33,28.594-11.363,30.061-16.864,1.1-16.864,1.1-16.13,64.154-20.162,64.886-52.85-53.569-52.85-53.569l1.893-21.582s-19.063-31.16-24.194-45.456,5.132-43.991,19.8-57.555,44.357-15.762,55.354-14.663S557.426,114.2,557.426,114.2Z" transform="translate(-343.934 -92.755)" fill="none" stroke="#000" stroke-linecap="round" stroke-linejoin="round" stroke-width="1"/>
        <path id="Path_15843-2" data-name="Path 15843" d="M489.966,125.02s-9.453-2.986-16.052,2.88" transform="translate(-265.921 -72.362)" fill="none" stroke="#000" stroke-linecap="round" stroke-linejoin="round" stroke-width="2"/>
        <path id="Path_15844-2" data-name="Path 15844" d="M476.794,135.986c.884,2.692,2.691,4.52,4.039,4.077s1.722-2.982.838-5.676-2.69-4.518-4.037-4.077-1.722,2.984-.84,5.676" transform="translate(-263.176 -65.719)"/>
        <path id="Path_15845-2" data-name="Path 15845" d="M476.794,135.986c.884,2.692,2.691,4.52,4.039,4.077s1.722-2.982.838-5.676-2.69-4.518-4.037-4.077S475.912,133.293,476.794,135.986Z" transform="translate(-263.176 -65.719)" fill="none" stroke="#000" stroke-linecap="round" stroke-linejoin="round" stroke-width="1"/>
        <path id="Path_15846-2" data-name="Path 15846" d="M579.912,103.879s33.726,5.866,25.661,12.464-52.421,18.328-61.953,21.629,16.13,9.164,12.462,12.1-11,16.864-11,16.864,1.464,18.328,6.231,28.227,27.128,23.1,27.128,23.1,11.73-15.762,17.963-15.762,15.03,1.464,14.3,7.33-3.3,21.629-3.665,23.1,4.4,16.13-.732,19.43-31.527-7.333-43.259-12.464-17.229-7.7-17.961-15.03-12.1-40.324-12.1-40.324-7.7-5.134-14.665-4.032-6.966,16.5-.732,22a171.3,171.3,0,0,0,14.3,11L511.359,230.72s-45.091-45.458-45.823-63.054,21.629-48.756,31.16-58.655,64.521-12.464,83.216-5.132" transform="translate(-368.989 -99.665)" fill="#474747"/>
        <path id="Path_15847-2" data-name="Path 15847" d="M579.912,103.879s33.726,5.866,25.661,12.464-52.421,18.328-61.953,21.629,16.13,9.164,12.462,12.1-11,16.864-11,16.864,1.464,18.328,6.231,28.227,27.128,23.1,27.128,23.1,11.73-15.762,17.963-15.762,15.03,1.464,14.3,7.33-3.3,21.629-3.665,23.1,4.4,16.13-.732,19.43-31.527-7.333-43.259-12.464-17.229-7.7-17.961-15.03-12.1-40.324-12.1-40.324-7.7-5.134-14.665-4.032-6.966,16.5-.732,22a171.3,171.3,0,0,0,14.3,11L511.359,230.72s-45.091-45.458-45.823-63.054,21.629-48.756,31.16-58.655S561.217,96.546,579.912,103.879Z" transform="translate(-368.989 -99.665)" fill="none" stroke="#000" stroke-linecap="round" stroke-linejoin="round" stroke-width="1"/>
        <path id="Path_15848-2" data-name="Path 15848" d="M491.161,156.106s-11.671-4.435-14.992-3.815c-6.155,1.152-12.152,7.7-10,12.726,1.91,4.459,5.1,8.922,9.215,10.979s5.83,3.087,6.516,1.03,2.511-4.091,4.568-4.433,1.418,1.973,1.418,1.973,1.9-15.716,3.273-18.459" transform="translate(-249.835 -41.31)" fill="#fff"/>
        <path id="Path_15849-2" data-name="Path 15849" d="M491.161,156.106s-11.671-4.435-14.992-3.815c-6.155,1.152-12.152,7.7-10,12.726,1.91,4.459,5.1,8.922,9.215,10.979s5.83,3.087,6.516,1.03,2.511-4.091,4.568-4.433,1.418,1.973,1.418,1.973S489.79,158.85,491.161,156.106Z" transform="translate(-249.835 -41.31)" fill="none" stroke="#000" stroke-linecap="round" stroke-linejoin="round" stroke-width="1"/>
        <path id="Path_15850-2" data-name="Path 15850" d="M481.6,158.5a28.512,28.512,0,0,1-13.937-3.94" transform="translate(-244.356 -38.729)" fill="none" stroke="#000" stroke-linecap="round" stroke-linejoin="round" stroke-width="1"/>
        <path id="Path_15851-2" data-name="Path 15851" d="M449.945,257.315s-18.358,2.686-25.971,19.7" transform="translate(-120.522 75.343)" fill="none" stroke="#000" stroke-linecap="round" stroke-linejoin="round" stroke-width="1"/>
        <path id="Path_15852-2" data-name="Path 15852" d="M449.64,253.071s-15.224,4.03-20.149,10.3" transform="translate(-131.859 70.632)" fill="none" stroke="#000" stroke-linecap="round" stroke-linejoin="round" stroke-width="1"/>
        <path id="Path_15853-2" data-name="Path 15853" d="M509.068,217.672l13.083,77.382s20.6,3.583,20.6,9.85-11.194,22.39-11.194,22.39" transform="translate(-392.882 31.335)" fill="none" stroke="#000" stroke-linecap="round" stroke-linejoin="round" stroke-width="1"/>
        <line id="Line_187-2" data-name="Line 187" x2="0.819" y2="4.91" transform="translate(114.044 235.044)" fill="none" stroke="#000" stroke-linecap="round" stroke-linejoin="round" stroke-width="1"/>
        <path id="Path_15854-2" data-name="Path 15854" d="M543.511,249.995a43.6,43.6,0,0,0-6.579.669" transform="translate(-452.442 67.217)" fill="none" stroke="#000" stroke-linecap="round" stroke-linejoin="round" stroke-width="1"/>
        <path id="Path_15855-2" data-name="Path 15855" d="M547.74,255.952a107.3,107.3,0,0,0-26.364-5.879" transform="translate(-423.845 67.304)" fill="none" stroke="#000" stroke-linecap="round" stroke-linejoin="round" stroke-width="1"/>
        <path id="Path_15856-2" data-name="Path 15856" d="M558.1,255.618s-14.777,6.269-20.6,26.419" transform="translate(-468.235 73.46)" fill="none" stroke="#000" stroke-linecap="round" stroke-linejoin="round" stroke-width="1"/>
        <path id="Path_15857-2" data-name="Path 15857" d="M438.025,301.478s-1.344-9.852,10.747-25.524,23.732-17.014,26.866-15.672,88.211,32.24,88.211,32.24,52.39-30,56.867-27.763S653.4,301.925,653.4,301.925Z" transform="translate(-353.534 78.198)" fill="#fff"/>
        <path id="Path_15858-2" data-name="Path 15858" d="M438.025,301.478s-1.344-9.852,10.747-25.524,23.732-17.014,26.866-15.672,88.211,32.24,88.211,32.24,52.39-30,56.867-27.763S653.4,301.925,653.4,301.925Z" transform="translate(-353.534 78.198)" fill="none" stroke="#000" stroke-linecap="round" stroke-linejoin="round" stroke-width="1"/>
        <line id="Line_188-2" data-name="Line 188" x1="28.21" y1="29.554" transform="translate(259.57 350.569)" fill="none" stroke="#000" stroke-linecap="round" stroke-linejoin="round" stroke-width="1"/>
        <line id="Line_189-2" data-name="Line 189" x1="25.524" y1="22.836" transform="translate(247.032 355.944)" fill="none" stroke="#000" stroke-linecap="round" stroke-linejoin="round" stroke-width="1"/>
        <line id="Line_190-2" data-name="Line 190" x1="17.463" y1="17.016" transform="translate(235.391 363.555)" fill="none" stroke="#000" stroke-linecap="round" stroke-linejoin="round" stroke-width="1"/>
        <line id="Line_191-2" data-name="Line 191" x1="7.164" y1="5.822" transform="translate(225.988 373.406)" fill="none" stroke="#000" stroke-linecap="round" stroke-linejoin="round" stroke-width="1"/>
        <line id="Line_192-2" data-name="Line 192" x1="1.471" y1="10.128" transform="translate(277.034 222.954)" fill="none" stroke="#000" stroke-linecap="round" stroke-linejoin="round" stroke-width="1"/>
        <line id="Line_193-2" data-name="Line 193" x1="19.461" y1="133.947" transform="translate(280.408 246.176)" fill="none" stroke="#000" stroke-linecap="round" stroke-linejoin="round" stroke-width="1"/>
        <path id="Path_15859-2" data-name="Path 15859" d="M385.565,298s2.686-26.419,15.224-32.24,26.866.9,32.24,2.239,53.732,30.449,53.732,30.449Z" transform="translate(-76.292 82.123)" fill="#fff"/>
        <path id="Path_15860-2" data-name="Path 15860" d="M385.565,298s2.686-26.419,15.224-32.24,26.866.9,32.24,2.239,53.732,30.449,53.732,30.449Z" transform="translate(-76.292 82.123)" fill="none" stroke="#000" stroke-linecap="round" stroke-linejoin="round" stroke-width="1"/>
        <path id="Path_15861-2" data-name="Path 15861" d="M377.077,282.408s12.986-9.85,18.807-14.777,9.4-5.372,21.044-4.03,20.149,34.926,20.149,34.926H393.646Z" transform="translate(-8.697 81.596)" fill="#fff"/>
        <path id="Path_15862-2" data-name="Path 15862" d="M377.077,282.408s12.986-9.85,18.807-14.777,9.4-5.372,21.044-4.03,20.149,34.926,20.149,34.926H393.646Z" transform="translate(-8.697 81.596)" fill="none" stroke="#000" stroke-linecap="round" stroke-linejoin="round" stroke-width="1"/>
        <path id="Path_15863-2" data-name="Path 15863" d="M406.891,269.835s16.119,17.911,14.33,19.255-10.3.895-10.3.895S396.144,278.79,395.7,275.657s11.194-5.822,11.194-5.822" transform="translate(-32.242 89.242)" fill="#fff"/>
        <path id="Path_15864-2" data-name="Path 15864" d="M406.891,269.835s16.119,17.911,14.33,19.255-10.3.895-10.3.895S396.144,278.79,395.7,275.657,406.891,269.835,406.891,269.835Z" transform="translate(-32.242 89.242)" fill="none" stroke="#000" stroke-linecap="round" stroke-linejoin="round" stroke-width="1"/>
        <path id="Path_15865-2" data-name="Path 15865" d="M382.216,268.258l16.119,31.793,8.955-1.791s-9.85-30.449-11.194-33.584-8.508-4.028-14.775,0" transform="translate(12.135 80.521)" fill="#fff"/>
        <path id="Path_15866-2" data-name="Path 15866" d="M382.216,268.258l16.119,31.793,8.955-1.791s-9.85-30.449-11.194-33.584-8.508-4.028-14.775,0" transform="translate(12.135 80.521)" fill="none" stroke="#000" stroke-linecap="round" stroke-linejoin="round" stroke-width="1"/>
        <path id="Path_15867-2" data-name="Path 15867" d="M377.077,263.445s13.292-1.49,15.281,1.606,4.868,33.321,4.868,33.321l-8.955-1.344Z" transform="translate(31.154 81.751)" fill="#fff"/>
        <path id="Path_15868-2" data-name="Path 15868" d="M377.077,263.445s13.292-1.49,15.281,1.606,4.868,33.321,4.868,33.321l-8.955-1.344Z" transform="translate(31.154 81.751)" fill="none" stroke="#000" stroke-linecap="round" stroke-linejoin="round" stroke-width="1"/>
        <path id="Path_15869-2" data-name="Path 15869" d="M373.342,264.751s10.607,3.537,11.051,6.408-.221,24.754-.221,24.754l-7.508.612Z" transform="translate(51.718 83.598)" fill="#fff"/>
        <path id="Path_15870-2" data-name="Path 15870" d="M373.342,264.751s10.607,3.537,11.051,6.408-.221,24.754-.221,24.754l-7.508.612Z" transform="translate(51.718 83.598)" fill="none" stroke="#000" stroke-linecap="round" stroke-linejoin="round" stroke-width="1"/>
        <path id="Path_15871-2" data-name="Path 15871" d="M365.941,269.254s10.388,7.736,11.051,9.5,6.187,7.955,3.978,8.4-9.945-5.526-9.945-5.526l-4.64-1.988Z" transform="translate(70.39 88.597)" fill="#fff"/>
        <path id="Path_15872-2" data-name="Path 15872" d="M365.941,269.254s10.388,7.736,11.051,9.5,6.187,7.955,3.978,8.4-9.945-5.526-9.945-5.526l-4.64-1.988Z" transform="translate(70.39 88.597)" fill="none" stroke="#000" stroke-linecap="round" stroke-linejoin="round" stroke-width="1"/>
        <rect id="Rectangle_17972-2" data-name="Rectangle 17972" width="151.062" height="4.4" transform="translate(293.718 376.171)" fill="#fff"/>
        <rect id="Rectangle_17973-2" data-name="Rectangle 17973" width="151.062" height="4.4" transform="translate(293.718 376.171)" fill="none" stroke="#000" stroke-linecap="round" stroke-linejoin="round" stroke-width="1"/>
        <path id="Path_15873-2" data-name="Path 15873" d="M300.008,222.091H480.629L451.862,344.329H271.241Z" transform="translate(171.076 36.241)" fill="#fff"/>
        <path id="Path_15874-2" data-name="Path 15874" d="M300.008,222.091H480.629L451.862,344.329H271.241Z" transform="translate(171.076 36.241)" fill="#fff" stroke="#000" stroke-linecap="round" stroke-linejoin="round" stroke-width="1"/>
        <path id="Path_15875-2" data-name="Path 15875" d="M310.961,258.147a11.405,11.405,0,1,0,11.407-11.405,11.407,11.407,0,0,0-11.407,11.405" transform="translate(234.121 63.606)" fill="#ff9866"/>
        <path id="Path_15876-2" data-name="Path 15876" d="M310.961,258.147a11.405,11.405,0,1,0,11.407-11.405A11.407,11.407,0,0,0,310.961,258.147Z" transform="translate(234.121 63.606)" fill="none" stroke="#000" stroke-linecap="round" stroke-linejoin="round" stroke-width="1"/>
      </g>
    </g>
  </g>
</svg>
