<svg xmlns="http://www.w3.org/2000/svg" width="121.777" height="113.978" viewBox="0 0 121.777 113.978">
  <g id="Group_3628" data-name="Group 3628" transform="translate(-579.093 -771.26)">
    <path id="Path_15673" data-name="Path 15673" d="M100.785,64.894a15.293,15.293,0,0,1-12.863-7.51c-3.2-5.065-9.752-8.914-16.37-9.581a60.124,60.124,0,0,0-11.822.538,101.045,101.045,0,0,1-13.377.8A60.91,60.91,0,0,1,5.674,31.93C-1.073,25.508-1.9,14.114,3.721,6.464S19.343-2.192,26.043,4.23a31.705,31.705,0,0,0,20.965,8.762,79.339,79.339,0,0,0,9.834-.655A82.834,82.834,0,0,1,74.382,11.8a53.915,53.915,0,0,1,39.184,24.436c5.133,8.095,3.508,19.395-3.578,25.232A14.46,14.46,0,0,1,100.785,64.894Z" transform="translate(579.093 803.695) rotate(-5)" fill="#ff9866"/>
    <g id="Group_3573" data-name="Group 3573" transform="translate(593.186 771.615)">
      <path id="Path_15704" data-name="Path 15704" d="M77.222,16.185l-1.766-1.42L81.916,3.459a2.423,2.423,0,0,0,.27-1.69,2.25,2.25,0,0,0-.88-1.414,1.843,1.843,0,0,0-1.519-.3,2.047,2.047,0,0,0-1.266.983L71.888,12.643l-1.755-.752a28.865,28.865,0,0,0-22.916,0l-1.755.752-6.634-11.6A1.92,1.92,0,0,0,37.126,0a1.873,1.873,0,0,0-1.082.353,2.267,2.267,0,0,0-.88,1.414,2.454,2.454,0,0,0,.27,1.69L41.9,14.764l-1.766,1.42A36.393,36.393,0,0,0,27.172,41.218a2.446,2.446,0,0,0,.506,1.742,1.939,1.939,0,0,0,1.5.746h59a1.928,1.928,0,0,0,1.49-.746,2.424,2.424,0,0,0,.512-1.742A36.416,36.416,0,0,0,77.222,16.185M31.321,39.2l.9-3.31a30.145,30.145,0,0,1,13.187-18.1l.184-.1a2.017,2.017,0,0,0,.276-.161l.184-.116a25.227,25.227,0,0,1,25.263.006l.178.116c.086.058.178.109.27.161l.178.1a30.131,30.131,0,0,1,13.193,18.1l.892,3.31Z" transform="translate(-11.914 0)" fill="#fff" stroke="#fff" stroke-width="0.7"/>
      <path id="Path_15705" data-name="Path 15705" d="M90.189,91.191v33.6c0,5.367-3.912,9.737-8.716,9.737h-45.6c-4.8,0-8.716-4.37-8.716-9.737v-33.6a2.026,2.026,0,1,1,4.027,0v33.6a5,5,0,0,0,4.689,5.238h45.6a5,5,0,0,0,4.689-5.238v-33.6a2.026,2.026,0,1,1,4.027,0" transform="translate(-11.913 -37.85)" fill="#fff" stroke="#fff" stroke-width="0.7"/>
      <path id="Path_15706" data-name="Path 15706" d="M9.9,115.772a2.124,2.124,0,0,1-1.965,2.249c-4.379,0-7.938-4.075-7.938-9.088V82.293c0-5.007,3.559-9.081,7.938-9.081a2.27,2.27,0,0,1,0,4.5A4.336,4.336,0,0,0,3.93,82.293v26.64a4.331,4.331,0,0,0,4.008,4.589A2.124,2.124,0,0,1,9.9,115.772" transform="translate(0 -31.731)" fill="#fff" stroke="#fff" stroke-width="0.7"/>
      <path id="Path_15707" data-name="Path 15707" d="M156.133,82.3v26.64c0,5.007-3.559,9.081-7.938,9.081a2.27,2.27,0,0,1,0-4.5,4.329,4.329,0,0,0,4.008-4.582V82.3a4.329,4.329,0,0,0-4.008-4.582,2.27,2.27,0,0,1,0-4.5c4.379,0,7.938,4.075,7.938,9.081" transform="translate(-62.609 -31.733)" fill="#fff" stroke="#fff" stroke-width="0.7"/>
      <path id="Path_15708" data-name="Path 15708" d="M64.281,182.347a7.951,7.951,0,0,1-15.871,0,1.969,1.969,0,0,1,3.93,0,4.014,4.014,0,0,0,8.011,0,1.969,1.969,0,0,1,3.93,0" transform="translate(-20.688 -76.525)" fill="#fff" stroke="#fff" stroke-width="0.7"/>
      <path id="Path_15709" data-name="Path 15709" d="M103.061,182.347a7.951,7.951,0,0,1-15.87,0,1.969,1.969,0,0,1,3.93,0,4.014,4.014,0,0,0,8.011,0,1.969,1.969,0,0,1,3.93,0" transform="translate(-37.26 -76.525)" fill="#fff" stroke="#fff" stroke-width="0.7"/>
    </g>
  </g>
</svg>
