<svg id="Group_3568" data-name="Group 3568" xmlns="http://www.w3.org/2000/svg" width="264.599" height="257.573" viewBox="0 0 264.599 257.573">
  <path id="Path_15668" data-name="Path 15668" d="M1.487,17.9a11.994,11.994,0,0,1-.925-9.39,11.631,11.631,0,0,1,6.06-7.085A11.638,11.638,0,0,1,15.91.61a12,12,0,0,1,7.106,6.208A12.209,12.209,0,0,1,24.273,14.9a11.531,11.531,0,0,1-3.991,6.82L18.313,17.9a7.618,7.618,0,0,0,2.117-4.348,8.11,8.11,0,0,0-.887-4.942A7.836,7.836,0,0,0,14.8,4.532a7.958,7.958,0,0,0-6.263.6A7.991,7.991,0,0,0,4.405,9.884a7.823,7.823,0,0,0,.556,6.23,8.1,8.1,0,0,0,3.506,3.593,7.611,7.611,0,0,0,4.784.795l1.969,3.826a11.533,11.533,0,0,1-7.883-.706A12.216,12.216,0,0,1,1.487,17.9" transform="translate(126.388 238.539) rotate(129)" fill="#fff"/>
  <path id="Path_15669" data-name="Path 15669" d="M5.8,22.883A12.007,12.007,0,0,1,.391,15.145,12.005,12.005,0,0,1,1.741,5.8,11.634,11.634,0,0,1,9.322.373a11.629,11.629,0,0,1,9.212,1.433,12.007,12.007,0,0,1,5.413,7.737A12.006,12.006,0,0,1,22.6,18.89a11.632,11.632,0,0,1-7.581,5.426A11.635,11.635,0,0,1,5.8,22.883m-1.615-8.65a8.029,8.029,0,0,0,9.878,6.055,8.015,8.015,0,0,0,6.079-9.849,7.835,7.835,0,0,0-3.627-5.092A7.961,7.961,0,0,0,10.3,4.429,7.987,7.987,0,0,0,5.143,8.052a7.825,7.825,0,0,0-.954,6.181" transform="translate(101.008 230.002) rotate(129)" fill="#fff"/>
  <path id="Path_15670" data-name="Path 15670" d="M23.639,15.787l.065,4.037L.321,20.2.255,16.1,16.6,4.133.065,4.4,0,.38,23.383,0l.066,4.088L7.107,16.056Z" transform="translate(77.075 214.948) rotate(129)" fill="#fff"/>
  <path id="Path_15671" data-name="Path 15671" d="M21.777,17.1l-3.722-.714,1.189-6.192L0,6.5.761,2.531l19.245,3.7L21.2,0l3.721.715Z" transform="translate(58.941 197.644) rotate(129)" fill="#fff"/>
  <path id="Path_15672" data-name="Path 15672" d="M1.54,17.608l5.327-.045,3.685-9.984L6.537,4.068,8.038,0,26.786,16.744l-1.655,4.488L0,21.784ZM13.553,10.2l-2.7,7.313,10.995-.106Z" transform="translate(56.716 185.523) rotate(129)" fill="#fff"/>
  <path id="Path_15673" data-name="Path 15673" d="M2.061,5.834A11.99,11.99,0,0,1,9.711.313a11.629,11.629,0,0,1,9.172,1.675A11.641,11.641,0,0,1,24.26,9.6a12,12,0,0,1-1.794,9.262,12.21,12.21,0,0,1-6.355,5.153,11.533,11.533,0,0,1-7.9-.02l2.316-3.626a7.622,7.622,0,0,0,4.823-.357,8.1,8.1,0,0,0,3.825-3.251,7.84,7.84,0,0,0,1.138-6.148,7.962,7.962,0,0,0-3.668-5.111,7.989,7.989,0,0,0-6.187-1.183A7.827,7.827,0,0,0,5.351,7.936,8.109,8.109,0,0,0,4.01,12.774a7.6,7.6,0,0,0,1.718,4.535L3.413,20.935a11.538,11.538,0,0,1-3.355-7.17,12.2,12.2,0,0,1,2-7.932" transform="translate(42.933 163.963) rotate(129)" fill="#fff"/>
  <path id="Path_15674" data-name="Path 15674" d="M12.739,23.545,9.975,20.951l4.315-4.6L0,2.944,2.762,0l14.29,13.407L21.39,8.785l2.764,2.593Z" transform="translate(34.545 143.86) rotate(129)" fill="#fff"/>
  <path id="Path_15675" data-name="Path 15675" d="M4.645,1.587A9.384,9.384,0,0,1,11.881.226a9.05,9.05,0,0,1,5.91,4.241L25.436,16.63l-3.391,2.131L14.436,6.654a5.5,5.5,0,0,0-7.713-1.76,5.431,5.431,0,0,0-1.746,7.7l7.608,12.107L9.166,26.854,1.523,14.691A9.067,9.067,0,0,1,.258,7.53,9.4,9.4,0,0,1,4.645,1.587" transform="translate(36.877 115.615) rotate(129)" fill="#fff"/>
  <path id="Path_15676" data-name="Path 15676" d="M.76,4.56A8.171,8.171,0,0,1,5.252.657,8.071,8.071,0,0,1,11.24.5a6.65,6.65,0,0,1,4,3.959l-3.85,1.516A3.315,3.315,0,0,0,9.431,4.018a3.857,3.857,0,0,0-2.906.051A3.931,3.931,0,0,0,4.42,5.84a2.717,2.717,0,0,0-.184,2.4q.971,2.465,5.732,1.816,6.721-.868,8.725,4.177a6.1,6.1,0,0,1-.267,5.192,7.736,7.736,0,0,1-4.27,3.745,7.725,7.725,0,0,1-5.743.145A6.368,6.368,0,0,1,4.6,19.539l3.85-1.516a3.074,3.074,0,0,0,1.769,1.8,3.447,3.447,0,0,0,2.644-.037,3.507,3.507,0,0,0,1.911-1.632,2.62,2.62,0,0,0,.124-2.281Q13.958,13.5,9.5,14.1a11.587,11.587,0,0,1-5.6-.471A5.94,5.94,0,0,1,.484,10,6.352,6.352,0,0,1,.76,4.56" transform="translate(40.447 96.419) rotate(129)" fill="#fff"/>
  <path id="Path_15677" data-name="Path 15677" d="M12.564.011A11.994,11.994,0,0,1,21.2,3.821a11.637,11.637,0,0,1,3.192,8.76,11.635,11.635,0,0,1-3.854,8.489,12,12,0,0,1-8.9,3.137,12.214,12.214,0,0,1-7.658-2.878A11.533,11.533,0,0,1,0,14.5l4.3.165a7.624,7.624,0,0,0,2.746,3.982A8.112,8.112,0,0,0,11.785,20.3a7.831,7.831,0,0,0,5.878-2.126,7.965,7.965,0,0,0,2.556-5.748,7.983,7.983,0,0,0-2.107-5.935,7.819,7.819,0,0,0-5.7-2.58A8.109,8.109,0,0,0,7.562,5.2,7.616,7.616,0,0,0,4.518,8.977l-4.3-.166A11.541,11.541,0,0,1,4.709,2.294,12.21,12.21,0,0,1,12.564.011" transform="translate(64.948 54.252) rotate(129)" fill="#fff"/>
  <path id="Path_15678" data-name="Path 15678" d="M6.287,1.472a12.008,12.008,0,0,1,9.4-.924A12.008,12.008,0,0,1,23.17,6.306a11.641,11.641,0,0,1,1.013,9.269A11.634,11.634,0,0,1,18.418,22.9a12.007,12.007,0,0,1-9.4.925,12.009,12.009,0,0,1-7.485-5.759A11.638,11.638,0,0,1,.522,8.8,11.636,11.636,0,0,1,6.287,1.472m8.331,2.833a7.887,7.887,0,0,0-6.258.661A7.977,7.977,0,0,0,4.5,9.946,8.019,8.019,0,0,0,10.1,20.074a7.836,7.836,0,0,0,6.215-.665,7.958,7.958,0,0,0,3.852-4.975,7.989,7.989,0,0,0-.633-6.267,7.823,7.823,0,0,0-4.919-3.861" transform="translate(85.069 36.261) rotate(129)" fill="#fff"/>
  <path id="Path_15679" data-name="Path 15679" d="M3.52,22.364,0,20.385,11.461,0l3.578,2.012,2.1,20.146,8.1-14.413,3.506,1.971L17.283,30.1l-3.563-2-2.1-20.147Z" transform="translate(111.467 24.151) rotate(129)" fill="#fff"/>
  <path id="Path_15680" data-name="Path 15680" d="M0,13.727,2.456,10.84l4.8,4.086L19.955,0l3.076,2.617-12.7,14.926,4.828,4.108-2.456,2.886Z" transform="translate(128.252 15.441) rotate(129)" fill="#fff"/>
  <path id="Path_15681" data-name="Path 15681" d="M14.738,3.392,12.163,8.056l6.89,8.111,5.029-1.775,2.807,3.3L3.1,25.81,0,22.165,11.856,0Zm.555,14.1-5.047-5.942-5.3,9.631Z" transform="translate(149.058 20.131) rotate(129)" fill="#fff"/>
  <path id="Path_15682" data-name="Path 15682" d="M22.924,6.653a12,12,0,0,1,1.065,9.376A11.63,11.63,0,0,1,18.037,23.2a11.638,11.638,0,0,1-9.275.955,12,12,0,0,1-7.2-6.1A12.2,12.2,0,0,1,.187,10a11.541,11.541,0,0,1,3.887-6.88L6.1,6.912a7.619,7.619,0,0,0-2.052,4.379,8.114,8.114,0,0,0,.962,4.928,7.839,7.839,0,0,0,4.8,4,7.966,7.966,0,0,0,6.253-.693,7.99,7.99,0,0,0,4.061-4.815,7.823,7.823,0,0,0-.648-6.221,8.1,8.1,0,0,0-3.56-3.54,7.616,7.616,0,0,0-4.794-.723L9.1.434a11.537,11.537,0,0,1,7.894.589,12.213,12.213,0,0,1,5.933,5.63" transform="translate(171.171 18.228) rotate(129)" fill="#fff"/>
  <path id="Path_15683" data-name="Path 15683" d="M0,1.133,3.617,0,5.5,6.018,24.2.161l1.207,3.853L6.709,9.872,8.6,15.921,4.986,17.054Z" transform="translate(186.609 18.676) rotate(129)" fill="#fff"/>
  <path id="Path_15684" data-name="Path 15684" d="M24.214,9.186a9.39,9.39,0,0,1-2.382,6.968,9.057,9.057,0,0,1-6.6,3.052l-14.35.656-.185-4,14.284-.653a5.5,5.5,0,0,0,5.333-5.844,5.431,5.431,0,0,0-5.843-5.316L.185,4.7,0,.668,14.349.012A9.06,9.06,0,0,1,21.2,2.441a9.4,9.4,0,0,1,3.01,6.745" transform="translate(214.077 36.46) rotate(129)" fill="#fff"/>
  <path id="Path_15685" data-name="Path 15685" d="M22.885,4.076a8.17,8.17,0,0,1,1.2,5.829,8.071,8.071,0,0,1-2.8,5.293,6.644,6.644,0,0,1-5.409,1.54l.566-4.1A3.319,3.319,0,0,0,19.1,11.9,3.858,3.858,0,0,0,20.486,9.34a3.931,3.931,0,0,0-.512-2.7,2.72,2.72,0,0,0-2-1.338q-2.622-.363-4.394,4.1-2.538,6.282-7.918,5.554a6.094,6.094,0,0,1-4.394-2.779A7.734,7.734,0,0,1,.094,6.62,7.725,7.725,0,0,1,2.785,1.545,6.366,6.366,0,0,1,7.951.072l-.567,4.1a3.084,3.084,0,0,0-2.439.657A3.452,3.452,0,0,0,3.68,7.149a3.513,3.513,0,0,0,.486,2.465,2.621,2.621,0,0,0,1.927,1.227q2.525.349,4.189-3.832A11.6,11.6,0,0,1,13.44,2.359a5.943,5.943,0,0,1,4.835-1.194,6.348,6.348,0,0,1,4.61,2.911" transform="translate(228.451 49.358) rotate(129)" fill="#fff"/>
  <path id="Path_15686" data-name="Path 15686" d="M22.567,18.722A12,12,0,0,1,15,24.357a11.638,11.638,0,0,1-9.2-1.538A11.638,11.638,0,0,1,.316,15.283a12,12,0,0,1,1.654-9.29A12.218,12.218,0,0,1,8.246.748a11.536,11.536,0,0,1,7.9-.1L13.886,4.31a7.622,7.622,0,0,0-4.818.427A8.109,8.109,0,0,0,5.293,8.046,7.836,7.836,0,0,0,4.247,14.21a7.961,7.961,0,0,0,3.743,5.057,7.986,7.986,0,0,0,6.2,1.09,7.823,7.823,0,0,0,5.051-3.687,8.106,8.106,0,0,0,1.27-4.857A7.611,7.611,0,0,0,18.729,7.3l2.262-3.66a11.531,11.531,0,0,1,3.461,7.119,12.21,12.21,0,0,1-1.885,7.96" transform="translate(255.752 91.521) rotate(129)" fill="#fff"/>
  <path id="Path_15687" data-name="Path 15687" d="M24.625,12.3a12,12,0,0,1-3.815,8.638,12,12,0,0,1-8.693,3.686,11.631,11.631,0,0,1-8.568-3.674A11.629,11.629,0,0,1,0,12.324,12.008,12.008,0,0,1,3.816,3.685,12.005,12.005,0,0,1,12.51,0a11.631,11.631,0,0,1,8.569,3.674A11.63,11.63,0,0,1,24.625,12.3m-6.562,5.861a7.891,7.891,0,0,0,2.5-5.775,7.975,7.975,0,0,0-2.438-5.81,8.015,8.015,0,0,0-11.574-.1,7.839,7.839,0,0,0-2.478,5.74,7.962,7.962,0,0,0,2.439,5.8,7.987,7.987,0,0,0,5.768,2.53,7.822,7.822,0,0,0,5.781-2.385" transform="translate(261.467 117.567) rotate(129)" fill="#fff"/>
  <path id="Path_15688" data-name="Path 15688" d="M13.488,2.1,16.937,0,29.1,19.977l-3.506,2.135L7,14.071l8.6,14.124-3.435,2.091L0,10.309,3.492,8.183l18.592,8.04Z" transform="translate(264.599 143.638) rotate(129)" fill="#fff"/>
  <path id="Path_15689" data-name="Path 15689" d="M15.655,0l1.31,3.556-5.917,2.18,6.773,18.388-3.789,1.4L7.259,7.131,1.31,9.322,0,5.767Z" transform="translate(256.96 165.989) rotate(129)" fill="#fff"/>
  <path id="Path_15690" data-name="Path 15690" d="M18.434,22.074l-2.788-4.538-10.453,2-.934,5.251L0,25.6,4.662.9,9.36,0,22.806,21.238ZM5.891,15.609l7.657-1.464L7.781,4.784Z" transform="translate(246.505 183.622) rotate(129)" fill="#fff"/>
  <path id="Path_15691" data-name="Path 15691" d="M12.012,24.211A12,12,0,0,1,3.325,20.53,11.633,11.633,0,0,1,0,11.818,11.634,11.634,0,0,1,3.732,3.272,12,12,0,0,1,12.583,0a12.207,12.207,0,0,1,7.7,2.764,11.528,11.528,0,0,1,4.079,6.767l-4.3-.1a7.614,7.614,0,0,0-2.8-3.94A8.109,8.109,0,0,0,12.49,3.909,7.841,7.841,0,0,0,6.644,6.122a7.958,7.958,0,0,0-2.47,5.785,7.989,7.989,0,0,0,2.2,5.9A7.819,7.819,0,0,0,12.1,20.306a8.1,8.1,0,0,0,4.832-1.359,7.621,7.621,0,0,0,2.988-3.82l4.3.1a11.542,11.542,0,0,1-4.392,6.585,12.212,12.212,0,0,1-7.822,2.4" transform="translate(234.917 201.329) rotate(129)" fill="#fff"/>
  <path id="Path_15692" data-name="Path 15692" d="M17.107,3.46l-.786,3.707L10.152,5.859,6.088,25.03l-3.95-.838L6.2,5.023,0,3.707.787,0Z" transform="translate(217.334 220.904) rotate(129)" fill="#fff"/>
  <path id="Path_15693" data-name="Path 15693" d="M5.4,25.571a9.391,9.391,0,0,1-4.9-5.5,9.056,9.056,0,0,1,.587-7.251L7.567,0l3.574,1.807L4.69,14.569a5.5,5.5,0,0,0,2.469,7.517,5.432,5.432,0,0,0,7.5-2.477l6.45-12.761,3.6,1.821-6.48,12.82a9.074,9.074,0,0,1-5.484,4.776A9.4,9.4,0,0,1,5.4,25.571" transform="translate(196.739 233.655) rotate(129)" fill="#fff"/>
  <path id="Path_15694" data-name="Path 15694" d="M9.011,22.828A8.171,8.171,0,0,1,3.348,21a8.072,8.072,0,0,1-3.222-5.05A6.648,6.648,0,0,1,1.453,10.48l3.286,2.515a3.319,3.319,0,0,0-.67,2.686,3.861,3.861,0,0,0,1.543,2.464,3.932,3.932,0,0,0,2.6.887,2.711,2.711,0,0,0,2.151-1.083q1.611-2.1-1.4-5.845Q4.753,6.8,8.039,2.474A6.1,6.1,0,0,1,12.624.022a7.736,7.736,0,0,1,5.412,1.724,7.73,7.73,0,0,1,3.088,4.843,6.363,6.363,0,0,1-1.266,5.221L16.573,9.3A3.08,3.08,0,0,0,17.2,6.851a3.453,3.453,0,0,0-1.4-2.247,3.514,3.514,0,0,0-2.384-.792,2.617,2.617,0,0,0-2.018,1.071q-1.549,2.024,1.267,5.534a11.593,11.593,0,0,1,2.49,5.04,5.942,5.942,0,0,1-1.346,4.8,6.348,6.348,0,0,1-4.8,2.576" transform="translate(174.329 238.372) rotate(129)" fill="#fff"/>
</svg>
