<svg id="Group_3568" data-name="Group 3568" xmlns="http://www.w3.org/2000/svg" width="223.947" height="218" viewBox="0 0 223.947 218">
  <path id="Path_15668" data-name="Path 15668" d="M1.259,15.151A10.151,10.151,0,0,1,.476,7.2a9.844,9.844,0,0,1,5.129-6,9.85,9.85,0,0,1,7.86-.692A10.155,10.155,0,0,1,19.479,5.77a10.333,10.333,0,0,1,1.064,6.841,9.76,9.76,0,0,1-3.378,5.772L15.5,15.146a6.447,6.447,0,0,0,1.792-3.68,6.864,6.864,0,0,0-.75-4.182,6.632,6.632,0,0,0-4.013-3.448,6.736,6.736,0,0,0-5.3.507,6.763,6.763,0,0,0-3.5,4.022,6.621,6.621,0,0,0,.47,5.273,6.858,6.858,0,0,0,2.968,3.041,6.442,6.442,0,0,0,4.049.673l1.667,3.238a9.761,9.761,0,0,1-6.672-.6,10.339,10.339,0,0,1-4.951-4.841" transform="translate(106.97 201.89) rotate(129)" fill="#474747"/>
  <path id="Path_15669" data-name="Path 15669" d="M4.912,19.367A10.162,10.162,0,0,1,.331,12.818a10.161,10.161,0,0,1,1.143-7.91A9.846,9.846,0,0,1,7.89.316a9.843,9.843,0,0,1,7.8,1.212,10.162,10.162,0,0,1,4.581,6.548,10.161,10.161,0,0,1-1.142,7.911,9.845,9.845,0,0,1-6.416,4.592,9.848,9.848,0,0,1-7.8-1.212M3.545,12.047a6.8,6.8,0,0,0,8.36,5.125A6.784,6.784,0,0,0,17.05,8.835a6.631,6.631,0,0,0-3.07-4.31,6.738,6.738,0,0,0-5.267-.777A6.76,6.76,0,0,0,4.353,6.815a6.623,6.623,0,0,0-.808,5.232" transform="translate(85.49 194.665) rotate(129)" fill="#474747"/>
  <path id="Path_15670" data-name="Path 15670" d="M20.008,13.362l.055,3.417L.272,17.1.216,13.627,14.047,3.5.055,3.724,0,.322,19.791,0l.056,3.46L6.015,13.589Z" transform="translate(65.234 181.924) rotate(129)" fill="#474747"/>
  <path id="Path_15671" data-name="Path 15671" d="M18.431,14.472l-3.15-.6,1.006-5.241L0,5.5.644,2.142,16.932,5.27,17.943,0l3.15.605Z" transform="translate(49.885 167.278) rotate(129)" fill="#474747"/>
  <path id="Path_15672" data-name="Path 15672" d="M1.3,14.9l4.509-.039,3.119-8.45-3.4-2.971L6.8,0,22.671,14.172l-1.4,3.8L0,18.437ZM11.471,8.635l-2.284,6.19,9.305-.09Z" transform="translate(48.003 157.02) rotate(129)" fill="#474747"/>
  <path id="Path_15673" data-name="Path 15673" d="M1.744,4.938A10.148,10.148,0,0,1,8.219.265a9.843,9.843,0,0,1,7.763,1.418,9.852,9.852,0,0,1,4.551,6.446,10.16,10.16,0,0,1-1.518,7.839,10.334,10.334,0,0,1-5.378,4.361,9.761,9.761,0,0,1-6.687-.017l1.96-3.069a6.451,6.451,0,0,0,4.082-.3,6.854,6.854,0,0,0,3.237-2.752,6.635,6.635,0,0,0,.963-5.2,6.739,6.739,0,0,0-3.1-4.326,6.761,6.761,0,0,0-5.236-1A6.625,6.625,0,0,0,4.529,6.716a6.863,6.863,0,0,0-1.135,4.095,6.433,6.433,0,0,0,1.454,3.838l-1.96,3.07A9.766,9.766,0,0,1,.049,11.651,10.329,10.329,0,0,1,1.744,4.938" transform="translate(36.337 138.772) rotate(129)" fill="#474747"/>
  <path id="Path_15674" data-name="Path 15674" d="M10.782,19.927l-2.34-2.2,3.652-3.892L0,2.492,2.338,0,14.433,11.348,18.1,7.435l2.34,2.195Z" transform="translate(29.237 121.758) rotate(129)" fill="#474747"/>
  <path id="Path_15675" data-name="Path 15675" d="M3.931,1.343A7.943,7.943,0,0,1,10.056.191a7.66,7.66,0,0,1,5,3.59l6.47,10.294-2.87,1.8L12.218,5.632A4.653,4.653,0,0,0,5.69,4.142a4.6,4.6,0,0,0-1.477,6.52L10.652,20.91,7.758,22.728,1.289,12.434A7.674,7.674,0,0,1,.218,6.373a7.957,7.957,0,0,1,3.713-5.03" transform="translate(31.211 97.852) rotate(129)" fill="#474747"/>
  <path id="Path_15676" data-name="Path 15676" d="M.643,3.86a6.916,6.916,0,0,1,3.8-3.3A6.831,6.831,0,0,1,9.513.426a5.628,5.628,0,0,1,3.382,3.35L9.637,5.06A2.805,2.805,0,0,0,7.982,3.4a3.264,3.264,0,0,0-2.46.043,3.327,3.327,0,0,0-1.781,1.5,2.3,2.3,0,0,0-.156,2.033q.822,2.086,4.851,1.537,5.688-.735,7.384,3.535a5.159,5.159,0,0,1-.226,4.395,6.547,6.547,0,0,1-3.614,3.17,6.538,6.538,0,0,1-4.86.122,5.39,5.39,0,0,1-3.232-3.2l3.258-1.283a2.6,2.6,0,0,0,1.5,1.525,2.917,2.917,0,0,0,2.238-.031A2.968,2.968,0,0,0,12.5,15.366a2.218,2.218,0,0,0,.1-1.93q-.79-2.008-4.565-1.5a9.807,9.807,0,0,1-4.741-.4A5.028,5.028,0,0,1,.41,8.468,5.376,5.376,0,0,1,.643,3.86" transform="translate(34.233 81.605) rotate(129)" fill="#474747"/>
  <path id="Path_15677" data-name="Path 15677" d="M10.634.009A10.151,10.151,0,0,1,17.94,3.234a9.849,9.849,0,0,1,2.7,7.414,9.847,9.847,0,0,1-3.262,7.185,10.154,10.154,0,0,1-7.531,2.655,10.338,10.338,0,0,1-6.481-2.436A9.761,9.761,0,0,1,0,12.274l3.639.14a6.453,6.453,0,0,0,2.324,3.37,6.866,6.866,0,0,0,4.011,1.4,6.628,6.628,0,0,0,4.975-1.8,6.741,6.741,0,0,0,2.164-4.865A6.756,6.756,0,0,0,15.33,5.5a6.617,6.617,0,0,0-4.823-2.183A6.863,6.863,0,0,0,6.4,4.4,6.446,6.446,0,0,0,3.824,7.6l-3.64-.14a9.768,9.768,0,0,1,3.8-5.516A10.334,10.334,0,0,1,10.634.009" transform="translate(54.969 45.917) rotate(129)" fill="#474747"/>
  <path id="Path_15678" data-name="Path 15678" d="M5.321,1.246A10.163,10.163,0,0,1,13.275.464,10.163,10.163,0,0,1,19.61,5.337a9.852,9.852,0,0,1,.858,7.845,9.847,9.847,0,0,1-4.879,6.2,10.163,10.163,0,0,1-7.954.783A10.164,10.164,0,0,1,1.3,15.292,9.85,9.85,0,0,1,.442,7.448a9.848,9.848,0,0,1,4.879-6.2m7.051,2.4a6.675,6.675,0,0,0-5.3.559A6.751,6.751,0,0,0,3.807,8.418,6.787,6.787,0,0,0,8.551,16.99a6.632,6.632,0,0,0,5.26-.563,6.735,6.735,0,0,0,3.261-4.21,6.762,6.762,0,0,0-.536-5.3,6.621,6.621,0,0,0-4.164-3.268" transform="translate(71.999 30.69) rotate(129)" fill="#474747"/>
  <path id="Path_15679" data-name="Path 15679" d="M2.979,18.928,0,17.253,9.7,0l3.028,1.7L14.5,18.754l6.859-12.2,2.967,1.668-9.7,17.253-3.016-1.7L9.838,6.73Z" transform="translate(94.342 20.441) rotate(129)" fill="#474747"/>
  <path id="Path_15680" data-name="Path 15680" d="M0,11.618,2.078,9.175l4.065,3.458L16.89,0l2.6,2.215L8.747,14.847l4.087,3.477-2.078,2.443Z" transform="translate(108.548 13.069) rotate(129)" fill="#474747"/>
  <path id="Path_15681" data-name="Path 15681" d="M12.474,2.871l-2.18,3.948,5.831,6.865,4.256-1.5,2.376,2.8L2.62,21.845,0,18.76,10.035,0Zm.47,11.934L8.672,9.777l-4.49,8.151Z" transform="translate(126.157 17.038) rotate(129)" fill="#474747"/>
  <path id="Path_15682" data-name="Path 15682" d="M19.4,5.631a10.153,10.153,0,0,1,.9,7.935,9.843,9.843,0,0,1-5.038,6.073,9.85,9.85,0,0,1-7.85.809,10.155,10.155,0,0,1-6.092-5.164A10.328,10.328,0,0,1,.158,8.46a9.768,9.768,0,0,1,3.29-5.823L5.164,5.85A6.448,6.448,0,0,0,3.427,9.556a6.867,6.867,0,0,0,.814,4.171A6.634,6.634,0,0,0,8.3,17.115a6.742,6.742,0,0,0,5.292-.587,6.762,6.762,0,0,0,3.437-4.075,6.621,6.621,0,0,0-.548-5.265,6.856,6.856,0,0,0-3.013-3,6.446,6.446,0,0,0-4.058-.612L7.7.368a9.764,9.764,0,0,1,6.681.5A10.336,10.336,0,0,1,19.4,5.631" transform="translate(144.872 15.427) rotate(129)" fill="#474747"/>
  <path id="Path_15683" data-name="Path 15683" d="M0,.959,3.061,0l1.6,5.094L20.483.137,21.5,3.4,5.678,8.355l1.6,5.12-3.061.959Z" transform="translate(157.939 15.807) rotate(129)" fill="#474747"/>
  <path id="Path_15684" data-name="Path 15684" d="M20.494,7.775a7.947,7.947,0,0,1-2.016,5.9,7.666,7.666,0,0,1-5.589,2.583L.744,16.812.587,13.425l12.09-.553a4.654,4.654,0,0,0,4.514-4.946,4.6,4.6,0,0,0-4.946-4.5L.156,3.98,0,.565,12.145.01a7.668,7.668,0,0,1,5.8,2.056,7.96,7.96,0,0,1,2.547,5.709" transform="translate(181.187 30.858) rotate(129)" fill="#474747"/>
  <path id="Path_15685" data-name="Path 15685" d="M19.369,3.449a6.915,6.915,0,0,1,1.015,4.934,6.831,6.831,0,0,1-2.374,4.48,5.623,5.623,0,0,1-4.578,1.3l.479-3.468a2.809,2.809,0,0,0,2.258-.628,3.265,3.265,0,0,0,1.169-2.165,3.327,3.327,0,0,0-.433-2.287,2.3,2.3,0,0,0-1.7-1.132q-2.22-.307-3.719,3.473-2.148,5.317-6.7,4.7A5.157,5.157,0,0,1,1.07,10.307a6.546,6.546,0,0,1-.99-4.7,6.538,6.538,0,0,1,2.278-4.3A5.388,5.388,0,0,1,6.729.061l-.48,3.468a2.61,2.61,0,0,0-2.064.556A2.922,2.922,0,0,0,3.115,6.051a2.973,2.973,0,0,0,.411,2.087A2.219,2.219,0,0,0,5.157,9.176q2.137.3,3.545-3.243A9.82,9.82,0,0,1,11.375,2,5.03,5.03,0,0,1,15.467.986a5.373,5.373,0,0,1,3.9,2.463" transform="translate(193.353 41.775) rotate(129)" fill="#474747"/>
  <path id="Path_15686" data-name="Path 15686" d="M19.1,15.846a10.153,10.153,0,0,1-6.4,4.769,9.85,9.85,0,0,1-7.783-1.3A9.85,9.85,0,0,1,.267,12.935a10.155,10.155,0,0,1,1.4-7.863A10.341,10.341,0,0,1,6.979.633,9.763,9.763,0,0,1,13.667.55l-1.915,3.1a6.451,6.451,0,0,0-4.077.362,6.863,6.863,0,0,0-3.2,2.8,6.632,6.632,0,0,0-.886,5.217,6.738,6.738,0,0,0,3.168,4.28,6.759,6.759,0,0,0,5.251.923,6.621,6.621,0,0,0,4.275-3.121A6.861,6.861,0,0,0,17.363,10a6.442,6.442,0,0,0-1.511-3.816l1.915-3.1A9.759,9.759,0,0,1,20.7,9.109a10.334,10.334,0,0,1-1.6,6.737" transform="translate(216.459 77.46) rotate(129)" fill="#474747"/>
  <path id="Path_15687" data-name="Path 15687" d="M20.841,10.407a10.159,10.159,0,0,1-3.229,7.311,10.16,10.16,0,0,1-7.358,3.119A9.844,9.844,0,0,1,3,17.728a9.842,9.842,0,0,1-3-7.3A10.163,10.163,0,0,1,3.23,3.119,10.161,10.161,0,0,1,10.588,0a9.844,9.844,0,0,1,7.253,3.11,9.843,9.843,0,0,1,3,7.3m-5.554,4.961A6.679,6.679,0,0,0,17.4,10.48a6.75,6.75,0,0,0-2.063-4.918,6.784,6.784,0,0,0-9.8-.084,6.635,6.635,0,0,0-2.1,4.858,6.739,6.739,0,0,0,2.064,4.909,6.76,6.76,0,0,0,4.882,2.141,6.62,6.62,0,0,0,4.893-2.019" transform="translate(221.296 99.505) rotate(129)" fill="#474747"/>
  <path id="Path_15688" data-name="Path 15688" d="M11.415,1.777,14.335,0,24.625,16.908l-2.968,1.807L5.923,11.909,13.2,23.863l-2.907,1.77L0,8.725l2.956-1.8,15.735,6.805Z" transform="translate(223.947 121.57) rotate(129)" fill="#474747"/>
  <path id="Path_15689" data-name="Path 15689" d="M13.25,0l1.109,3.01L9.351,4.855l5.732,15.563L11.876,21.6,6.144,6.036,1.109,7.89,0,4.881Z" transform="translate(217.482 140.487) rotate(129)" fill="#474747"/>
  <path id="Path_15690" data-name="Path 15690" d="M15.6,18.683l-2.36-3.841L4.395,16.533,3.6,20.977,0,21.666,3.945.76,7.922,0,19.3,17.975ZM4.986,13.211l6.48-1.239L6.585,4.049Z" transform="translate(208.633 155.411) rotate(129)" fill="#474747"/>
  <path id="Path_15691" data-name="Path 15691" d="M10.167,20.491a10.154,10.154,0,0,1-7.352-3.116A9.846,9.846,0,0,1,0,10,9.847,9.847,0,0,1,3.158,2.769,10.156,10.156,0,0,1,10.65,0a10.332,10.332,0,0,1,6.516,2.34,9.757,9.757,0,0,1,3.452,5.728l-3.641-.085A6.444,6.444,0,0,0,14.6,4.651a6.864,6.864,0,0,0-4.032-1.343A6.637,6.637,0,0,0,5.623,5.182a6.736,6.736,0,0,0-2.09,4.9,6.761,6.761,0,0,0,1.858,5,6.618,6.618,0,0,0,4.854,2.111,6.858,6.858,0,0,0,4.09-1.151A6.45,6.45,0,0,0,16.864,12.8l3.64.086a9.769,9.769,0,0,1-3.717,5.573,10.336,10.336,0,0,1-6.62,2.03" transform="translate(198.825 170.397) rotate(129)" fill="#474747"/>
  <path id="Path_15692" data-name="Path 15692" d="M14.478,2.928l-.665,3.138L8.592,4.959,5.152,21.184,1.81,20.476,5.248,4.251,0,3.138.666,0Z" transform="translate(183.943 186.965) rotate(129)" fill="#474747"/>
  <path id="Path_15693" data-name="Path 15693" d="M4.568,21.643A7.948,7.948,0,0,1,.422,16.988a7.665,7.665,0,0,1,.5-6.137L6.4,0,9.429,1.53,3.97,12.33a4.654,4.654,0,0,0,2.09,6.362,4.6,4.6,0,0,0,6.349-2.1L17.867,5.8l3.051,1.542L15.433,18.188a7.68,7.68,0,0,1-4.641,4.042,7.957,7.957,0,0,1-6.225-.587" transform="translate(166.513 197.757) rotate(129)" fill="#474747"/>
  <path id="Path_15694" data-name="Path 15694" d="M7.627,19.321a6.916,6.916,0,0,1-4.793-1.551A6.832,6.832,0,0,1,.107,13.5,5.626,5.626,0,0,1,1.23,8.87L4.011,11a2.809,2.809,0,0,0-.567,2.273A3.268,3.268,0,0,0,4.75,15.357a3.328,3.328,0,0,0,2.2.75,2.3,2.3,0,0,0,1.821-.917q1.363-1.779-1.188-4.947Q4.023,5.751,6.8,2.094A5.16,5.16,0,0,1,10.685.018a6.547,6.547,0,0,1,4.58,1.459,6.542,6.542,0,0,1,2.614,4.1A5.385,5.385,0,0,1,16.807,10l-2.78-2.127A2.606,2.606,0,0,0,14.561,5.8a2.923,2.923,0,0,0-1.182-1.9,2.974,2.974,0,0,0-2.018-.67,2.215,2.215,0,0,0-1.708.907Q8.342,5.846,10.725,8.817a9.812,9.812,0,0,1,2.107,4.265,5.029,5.029,0,0,1-1.139,4.059,5.373,5.373,0,0,1-4.066,2.18" transform="translate(147.546 201.749) rotate(129)" fill="#474747"/>
</svg>
