<svg xmlns="http://www.w3.org/2000/svg" width="32.283" height="27.556" viewBox="0 0 32.283 27.556">
  <path id="Path_15893" data-name="Path 15893" d="M82.568,2.873l-.514-.026-.54.026-.386-.386A7.027,7.027,0,0,0,73.44.867h-.026a7.109,7.109,0,0,0-4.448,6.48l-.026,1.44L67.5,8.581l-.154-.013-.154-.013A10.771,10.771,0,0,1,63.8,7.579,23.265,23.265,0,0,1,55.929,1.9c-4.114,12.034,3.137,16.74,5.58,18.334l1.569,1.029-1.26,1.234a15.814,15.814,0,0,1-5.811,2.34,24.685,24.685,0,0,0,12.06,1.183c3.574-.72,15.2-4.243,15.2-19.851V5.753l.231-.334a7.566,7.566,0,0,0,1.311-2.751,7.339,7.339,0,0,1-2.237.206M67.886,25.167a16.1,16.1,0,0,1-3.291.309c-.489,0-.977-.026-1.466-.051l-3.549-.231,5.3-3.857-2.674-1.7C56.8,16.27,54.72,11.693,55.826,5.7l.386-2.186,1.7,1.414a18.943,18.943,0,0,0,9.463,4.526l2.391.309.051-2.391a6.268,6.268,0,0,1,6.248-6.146c4.114,0,6.326,3.5,6.326,4.937,0,10.106-5.426,17.2-14.5,19" transform="translate(-53.53 0.456)" fill="none" stroke="#fff" stroke-width="1.4"/>
</svg>
