<svg xmlns="http://www.w3.org/2000/svg" width="100.815" height="114.272" viewBox="0 0 100.815 114.272">
  <g id="Group_3630" data-name="Group 3630" transform="translate(-1054 -735.698)">
    <path id="Path_15677" data-name="Path 15677" d="M110.16,38.305l-28.925,79L15.29,93.164,79.584,27.12Z" transform="translate(1038.71 732.66)" fill="#ff9866"/>
    <path id="Path_15710" data-name="Path 15710" d="M82.61.379C82.551.314,82.2.02,80.73.02,54.668-.005,28.137-.005,1.881.015A2.538,2.538,0,0,0,.245.394a2.416,2.416,0,0,0-.22,1.6c1.3,14.57,2.715,30.218,4.207,45.871.2,2.1.434,2.709.6,2.854.379.324,2.4.324,3.064.324q17.035.007,34.07,0H59.957l-.21,2.186c-.13,1.332-.259,2.63-.389,3.9-.314,3.124-.609,6.068-.813,9.027-.2,2.869-1.946,3.742-3.628,4.211-7.165,2.021-15.688,3.653-24.575.469-4.191-.254-6.287-2.55-6.232-6.836.02-1.522-.249-1.916-.334-2-.11-.12-.569-.389-2.325-.4-2.181-.015-4.581-.025-7.1-.025-2.1,0-4.286.01-6.5.03-1.537.01-1.921.3-2,.389-.055.06-.319.429-.21,1.861.2,2.65.464,5.344.714,7.954.314,3.258.639,6.626.863,9.965.12,1.741.654,2.39,2.38,2.9,4.73,1.4,9.521,2.859,14.151,4.271,5.174,1.577,10.518,3.2,15.788,4.745a6.927,6.927,0,0,0,3.638.035c5.2-1.517,10.489-3.124,15.6-4.68,4.785-1.457,9.735-2.964,14.625-4.4,1.726-.5,2.295-1.188,2.44-2.924.783-9.306,1.611-18.767,2.41-27.918q.823-9.423,1.641-18.856c.13-1.522-.129-1.936-.214-2.026s-.489-.4-2.091-.409c-4.855-.02-9.8-.015-14.57-.01h-6l-6.686,0c-8.073,0-16.426.01-24.64-.06-1.053,0-4.221-.738-4.581-2.894a64.339,64.339,0,0,1-.634-6.616c-.05-.8-.1-1.612-.16-2.45l-.16-2.141H40.532q18.981,0,37.957,0c2.949,0,2.949,0,3.2-3.014.145-1.766.309-3.533.474-5.294.235-2.52.48-5.12.669-7.674C82.945.823,82.665.439,82.61.379M79.023,15.787l-19.715,0q-19.378,0-38.761,0c-2.22,0-2.749.329-2.879.469s-.384.694-.15,2.884c.235,2.22.444,4.471.644,6.651.21,2.265.424,4.606.669,6.9.254,2.325.254,2.325,2.645,2.33q18.682.007,37.359,0H77.286L77.1,37.188q-.24,2.807-.465,5.529c-.334,3.977-.658,7.844-1,11.716q-.344,3.87-.709,7.739c-.474,5.115-.968,10.409-1.357,15.608-.159,2.126-.783,4.426-4.216,5.4-4.506,1.282-9.076,2.665-13.5,4-3.842,1.163-7.814,2.365-11.746,3.5a9.95,9.95,0,0,1-5.3.01c-8.118-2.345-16.476-4.87-25.538-7.714-1.377-.429-3.423-1.851-3.663-3.663-.409-3.089-.639-6.137-.878-9.366q-.127-1.669-.259-3.383L8.3,64.408H20.538l.624.963a2.592,2.592,0,0,1,.594,1.352c.07.684.12,1.3.17,1.856.13,1.567.23,2.7.539,2.974.6.534,3.178,1.008,5.055,1.352l.364.065a96.165,96.165,0,0,1,9.451,2.061c3.513,1.013,6.916.354,10.384-.474,3.3-.793,6.671-1.467,9.93-2.116l1.472-.3c1.183-.235,1.6-.724,1.711-2.006.24-2.714.494-5.429.748-8.138.324-3.478.664-7.076.958-10.608.17-2.006-.11-2.48-.2-2.58s-.564-.434-2.7-.434l-7.4-.01c-13.338-.01-27.134-.025-40.7.05-3.448.025-5.025-1.422-5.284-4.83C5.6,34.993,4.81,26.261,4.047,17.813Q3.568,12.529,3.1,7.24a14.859,14.859,0,0,1-.03-1.761c0-.254.01-.524.01-.8v-2H80.126Z" transform="translate(1070.955 736.697)" fill="#fff" stroke="#fff" stroke-width="2"/>
  </g>
</svg>
