<svg xmlns="http://www.w3.org/2000/svg" width="28.982" height="28.982" viewBox="0 0 28.982 28.982">
  <path id="Path_15895" data-name="Path 15895" d="M83.936,10.375a4.35,4.35,0,1,0,3.073,1.273,4.346,4.346,0,0,0-3.073-1.273m0-2.9A7.243,7.243,0,1,1,78.814,9.6a7.246,7.246,0,0,1,5.122-2.121m9.419-.363a1.813,1.813,0,1,1-.532-1.281,1.8,1.8,0,0,1,.532,1.281M83.936,3.132c-3.585,0-4.171.008-5.837.082a7.9,7.9,0,0,0-2.607.481,4.221,4.221,0,0,0-1.566,1.018,4.255,4.255,0,0,0-1.018,1.566,7.908,7.908,0,0,0-.481,2.6c-.075,1.6-.082,2.157-.082,5.837,0,3.585.008,4.173.082,5.84a7.962,7.962,0,0,0,.481,2.6,4.529,4.529,0,0,0,2.582,2.584,7.915,7.915,0,0,0,2.61.481c1.6.075,2.157.082,5.837.082,3.584,0,4.171-.008,5.837-.082a7.894,7.894,0,0,0,2.6-.481,4.226,4.226,0,0,0,1.566-1.016,4.157,4.157,0,0,0,1.018-1.566,7.972,7.972,0,0,0,.483-2.607c.075-1.6.082-2.157.082-5.84,0-3.582-.008-4.171-.082-5.837a7.9,7.9,0,0,0-.483-2.6,4.216,4.216,0,0,0-1.016-1.566,4.191,4.191,0,0,0-1.566-1.018,7.793,7.793,0,0,0-2.607-.481c-1.6-.075-2.157-.082-5.837-.082m0-2.9c3.937,0,4.428.015,5.973.087a10.719,10.719,0,0,1,3.518.674A7.1,7.1,0,0,1,96,2.664,7.131,7.131,0,0,1,97.667,5.23a10.843,10.843,0,0,1,.674,3.52c.067,1.545.085,2.037.085,5.971s-.013,4.428-.085,5.973a10.872,10.872,0,0,1-.674,3.52,7.406,7.406,0,0,1-4.24,4.238,10.772,10.772,0,0,1-3.518.674c-1.545.067-2.037.087-5.973.087s-4.428-.015-5.973-.087a10.786,10.786,0,0,1-3.518-.674,7.406,7.406,0,0,1-4.24-4.238,10.79,10.79,0,0,1-.674-3.52c-.067-1.545-.087-2.037-.087-5.973s.015-4.425.087-5.971a10.79,10.79,0,0,1,.674-3.52,7.131,7.131,0,0,1,1.671-2.566A7.074,7.074,0,0,1,74.445.992,10.7,10.7,0,0,1,77.963.318C79.508.252,80,.231,83.936.231" transform="translate(-69.444 -0.231)" fill="#fff"/>
</svg>
