<svg xmlns="http://www.w3.org/2000/svg" xmlns:xlink="http://www.w3.org/1999/xlink" width="143.563" height="113.273" viewBox="0 0 143.563 113.273">
  <defs>
    <clipPath id="clip-path">
      <rect id="Rectangle_17958" data-name="Rectangle 17958" width="113.656" height="82.478" fill="#fff" stroke="#fff" stroke-width="2"/>
    </clipPath>
  </defs>
  <g id="Group_3667" data-name="Group 3667" transform="translate(-1331.401 -762.502)">
    <path id="Path_15681" data-name="Path 15681" d="M148.764,54.593,24.99,137.056,5.2,106.247l123.76-82.464Z" transform="translate(1326.2 738.719)" fill="#ff9866"/>
    <g id="Group_3577" data-name="Group 3577" transform="translate(1340.377 777.905)">
      <g id="Group_3576" data-name="Group 3576" clip-path="url(#clip-path)">
        <path id="Path_15713" data-name="Path 15713" d="M176.52,63.327c-1.849,9.251-9.415,15.866-20.239,17.7-1.592.272-3.212.421-4.644.552-.534.052-1.03.094-1.479.145-13.619-.473-22.823-4.9-28.956-13.937-1.69-2.486-1.831-3.347-1.76-3.642s.562-1,3.141-2.486c.922-.534,1.859-1.053,2.79-1.568,1.994-1.1,4.059-2.247,6.035-3.549a4.482,4.482,0,0,1,2.093-.857,1.281,1.281,0,0,1,.234.019c.669.145,1.362,1.025,1.826,1.742,3.867,5.969,9.218,8.558,15.482,7.481a11.8,11.8,0,0,0,4.888-2.514c.529-.389,1.03-.758,1.507-1.049h0a2.573,2.573,0,0,0,.747-3.692c-.309-.435-.613-.969-.941-1.531a10.228,10.228,0,0,0-3.633-4.228c-2.907-1.61-5.936-3.052-8.858-4.448-3.6-1.713-7.308-3.483-10.707-5.529-6.208-3.731-9.508-9.86-9.813-18.2-.37-10.37,5.052-18.376,14.878-21.962,12.4-4.522,25.819-.154,32.627,10.627a3.562,3.562,0,0,1,.777,2.172c-.089.389-.571.866-1.358,1.353-2.678,1.657-5.351,3.39-7.94,5.07-.866.562-1.728,1.124-2.6,1.681-1.32.852-1.859,1.049-3.375-.866l11.905-7.678L168,12.026c-2.79-5.1-8.68-8.441-16.161-9.167-8.2-.8-16.119,1.845-20.173,6.728a22.056,22.056,0,0,0-4.139,7.491c-2.926,9.677,1.133,19.27,10.342,24.429,3.165,1.774,6.479,3.277,9.686,4.728,2.57,1.166,5.229,2.369,7.734,3.684,4.925,2.584,6.807,6.049,5.754,10.581-.89,3.834-4.56,6.456-9.817,7.022-6.62.707-12.154-1.667-16.92-7.271l-1.39-1.634-10.314,5.969,1.32,2.238c7.35,12.453,26.606,14.387,37.172,10.286,7.7-2.992,12.1-8.146,13.081-15.323,1.283-9.42-1.447-16.325-8.1-20.529A114.086,114.086,0,0,0,156.028,35.8c-1.2-.6-2.4-1.2-3.591-1.812-1.072-.552-2.168-1.058-3.221-1.545a43.483,43.483,0,0,1-4.85-2.477A8.694,8.694,0,0,1,140.4,19.7a7.968,7.968,0,0,1,8.881-5.361,29.214,29.214,0,0,1,6.98,2.336c.478.206,3.943,2.972,4.439,3.178l-3.179,2.287a21.185,21.185,0,0,0-7.464-5.123c-1.634-.59-3.478.243-4.429.787a5.022,5.022,0,0,0-2.65,3.141c-.4,2.186.74,5.627,2.87,6.957a52.587,52.587,0,0,0,6.723,3.352c1.133.5,2.205.974,3.263,1.484q1.011.492,2.027.974a73.039,73.039,0,0,1,7.041,3.652c10.211,6.278,13.9,14.532,11.62,25.965" transform="translate(-63.515 0)" fill="#fff" stroke="#fff" stroke-width="2"/>
        <path id="Path_15714" data-name="Path 15714" d="M50.1,41.37c-.009-1.807-.019-3.61-.019-5.417H50.06V33.379q0-3.947,0-7.893c-.009-6.517-.014-13.249.019-19.878a3.169,3.169,0,0,0-.487-2.1,2.956,2.956,0,0,0-2-.435c-2.626.051-5.281.037-7.846.028q-2.135-.014-4.265-.009c-2.514,0-3.249.2-3.464.323-.122.211-.3.922-.309,3.319q-.014,10.4-.009,20.8,0,12.935-.019,25.871c0,2.177-.089,4.527-.276,7.392a6.716,6.716,0,0,1-2.907,5.468,5.969,5.969,0,0,1-5.51.375,17.294,17.294,0,0,1-6.905-5.74c-.9-1.194-1.484-1.657-2.1-1.657a3.185,3.185,0,0,0-1.582.674c-1.976,1.273-4,2.509-5.96,3.708-1.419.866-2.889,1.765-4.316,2.659C.228,67.471.031,67.962.008,68.047c-.028.131-.042.707,1.081,2.706C7.105,81.408,19.947,86.38,33.051,83.126c10.908-2.711,16.788-11.025,17-24.045.094-5.894.07-11.9.047-17.711m-2.664,19.1c-.847,10.969-5.22,17.289-13.755,19.9a28.887,28.887,0,0,1-8.408,1.25c-7.8,0-15.248-3.155-19.733-8.764a9.707,9.707,0,0,1-.815-1.25c-.117-.2-.253-.431-.417-.7L2.957,68.711l9.335-5.754,1.386.964c.988.693,1.887,1.4,2.753,2.079a19.16,19.16,0,0,0,4.607,3.01c3.305,1.269,6.465,1.063,8.9-.571,2.5-1.676,3.919-4.63,4-8.319.206-8.872.183-17.917.164-26.662Q34.1,27.9,34.1,22.344c.009-3.095,0-6.189,0-9.377V5.832H47.115l.131,2.444c.023.473.051.936.084,1.4.066,1.011.131,2.051.136,3.1.056,13.586.1,27.678.131,43.071,0,1.643-.051,3.16-.164,4.625" transform="translate(0 -1.634)" fill="#fff" stroke="#fff" stroke-width="2"/>
      </g>
    </g>
  </g>
</svg>
