<svg xmlns="http://www.w3.org/2000/svg" width="33.705" height="26.865" viewBox="0 0 33.705 26.865">
  <g id="Group_3658" data-name="Group 3658" transform="translate(1 1)">
    <path id="Path_15889" data-name="Path 15889" d="M70.278,3.787a3.511,3.511,0,0,0-2.417-2.546C65.6.624,57.936.47,55.159.47c-2.751,0-10.414.154-12.677.771a3.511,3.511,0,0,0-2.417,2.546c-.746,2.88-.746,9.051-.746,9.128,0,.051,0,6.248.746,9.1a3.511,3.511,0,0,0,2.417,2.546c2.263.643,9.926.771,12.677.771,2.777,0,10.44-.129,12.7-.771a3.511,3.511,0,0,0,2.417-2.546c.746-2.854.746-9.051.746-9.1,0-.077,0-6.248-.746-9.128m-.823,18.025a2.668,2.668,0,0,1-1.826,1.929c-.926.257-4.706.746-12.471.746S43.613,24,42.713,23.741a2.666,2.666,0,0,1-1.826-1.929,43.289,43.289,0,0,1-.72-8.9,42.815,42.815,0,0,1,.72-8.9,2.7,2.7,0,0,1,1.826-1.954c.9-.257,4.68-.72,12.445-.72,7.791,0,11.571.463,12.471.72a2.759,2.759,0,0,1,1.826,1.929v.026a42.582,42.582,0,0,1,.72,8.9,42.816,42.816,0,0,1-.72,8.9" transform="translate(-39.319 -0.47)" fill="#fff" stroke="rgba(0,0,0,0)" stroke-width="1"/>
    <path id="Path_15890" data-name="Path 15890" d="M70.278,3.787a3.511,3.511,0,0,0-2.417-2.546C65.6.624,57.936.47,55.159.47c-2.751,0-10.414.154-12.677.771a3.511,3.511,0,0,0-2.417,2.546c-.746,2.88-.746,9.051-.746,9.128,0,.051,0,6.248.746,9.1a3.511,3.511,0,0,0,2.417,2.546c2.263.643,9.926.771,12.677.771,2.777,0,10.44-.129,12.7-.771a3.511,3.511,0,0,0,2.417-2.546c.746-2.854.746-9.051.746-9.1C71.024,12.838,71.024,6.667,70.278,3.787Zm-.823,18.025a2.668,2.668,0,0,1-1.826,1.929c-.926.257-4.706.746-12.471.746S43.613,24,42.713,23.741a2.666,2.666,0,0,1-1.826-1.929,43.289,43.289,0,0,1-.72-8.9,42.815,42.815,0,0,1,.72-8.9,2.7,2.7,0,0,1,1.826-1.954c.9-.257,4.68-.72,12.445-.72,7.791,0,11.571.463,12.471.72a2.759,2.759,0,0,1,1.826,1.929v.026a42.582,42.582,0,0,1,.72,8.9A42.816,42.816,0,0,1,69.456,21.812Z" transform="translate(-39.319 -0.47)" fill="#fff" stroke="#fff" stroke-miterlimit="10" stroke-width="2"/>
    <path id="Path_15891" data-name="Path 15891" d="M51.1,7.62l-6.454,3.754V3.84Z" transform="translate(-30.944 4.825)" fill="#fff" stroke="rgba(0,0,0,0)" stroke-width="1"/>
    <path id="Path_15892" data-name="Path 15892" d="M51.1,7.62l-6.454,3.754V3.84Z" transform="translate(-30.944 4.825)" fill="#fff" stroke="#fff" stroke-miterlimit="10" stroke-width="0.8"/>
  </g>
</svg>
