<svg xmlns="http://www.w3.org/2000/svg" width="241.048" height="58" viewBox="0 0 241.048 58">
  <g id="Logo" transform="translate(-51.17 -86.575)">
    <g id="Group_3433" data-name="Group 3433" transform="translate(51.17 86.575)">
      <path id="Path_15250" data-name="Path 15250" d="M114.16,99.38c-1.464-2.96-4.075-4.584-7.1-5.539-5.762-1.878-11.332-1.146-16.776,1.337-5.825,2.642-10,7.067-13.306,13.115a12.015,12.015,0,0,1,1.751-5.857c4.711-8.468,12.351-11.937,21.646-12.574,1.082-.064,2.547.127,2.578-1.4,0-1.464-1.273-1.846-2.578-1.878a16.117,16.117,0,0,0-8.149,2.005c-13.72,7.258-21.232,19.132-23.779,34.093-1.5,8.85,2.578,14.77,10.919,18.113a62.041,62.041,0,0,0,8.5,2.865,26.385,26.385,0,0,0,12.988.191c6.812-1.751,9.486-6.367,7.29-13.02-2.483-7.513-6.558-13.784-13.815-17.731-4.9-2.642-9.614-5.03-15.184-1.56a6.919,6.919,0,0,1,.8-5.6c3.024-5.125,7.322-8.85,13.115-9.964,6.749-1.305,13.433-1.273,17.795,5.571.573.923,1.528,1.528,2.61.8A2.128,2.128,0,0,0,114.16,99.38ZM80.735,117.365c.987-1.687,2.674-2.005,4.488-1.91a9.011,9.011,0,0,1,5.061,1.687,33.038,33.038,0,0,1,8.086,8.213c.7.955,1.4,2.133.573,3.311-.828,1.241-2.165.923-3.279.573a70.69,70.69,0,0,1-10.441-3.533,9,9,0,0,1-3.915-3.215C80.321,120.867,79.717,119.148,80.735,117.365Z" transform="translate(-62.74 -86.575)" fill="#ff9866"/>
      <path id="Path_15251" data-name="Path 15251" d="M66.619,199.1a.267.267,0,0,1-.191.446c-9.327-.223-15.534-7.385-15.248-17.317a21.227,21.227,0,0,1,4.9-13.242c.414-.509.8-1.655,1.687-1.05.668.477-.1,1.241-.35,1.814a29.071,29.071,0,0,0-2.992,14.42c.477,6.367,4.266,10.409,9.55,13.4A9.106,9.106,0,0,1,66.619,199.1Z" transform="translate(-51.17 -141.916)" fill="#ff9866"/>
    </g>
    <g id="Group_3430" data-name="Group 3430" transform="translate(109.37 108.42)">
      <path id="Path_15252" data-name="Path 15252" d="M250.139,190.694H234V159.02a3.779,3.779,0,0,1,3.661-3.82h13.051c6.685,0,11.11,2.674,11.11,8.977,0,3.756-1.528,6.016-4.266,7.353,3.5,1.369,5.539,3.661,5.539,8.34C263.1,187.256,257.811,190.694,250.139,190.694Zm-.923-29.318h-8.022v7.608h8.149c2.865,0,5.221-.891,5.221-3.852C254.532,162.171,252.495,161.376,249.216,161.376ZM249.534,175h-8.34v9.3h8.467c3.6,0,5.794-1.05,5.794-4.584C255.424,176.051,253.291,175,249.534,175Z" transform="translate(-234 -155.2)" fill="#fff"/>
      <path id="Path_15253" data-name="Path 15253" d="M339.34,158.674v32.087H332.4V155.3H336A3.39,3.39,0,0,1,339.34,158.674Z" transform="translate(-301.077 -155.268)" fill="#fff"/>
      <path id="Path_15254" data-name="Path 15254" d="M368.967,186.308h-6.94c.828-5.125,4.425-7.608,10.791-7.608,7.608,0,11.492,2.515,11.651,7.608V195.7c0,7.608-4.584,11.014-12.065,11.523-6.621.509-11.205-2.547-11.205-8.659.159-6.621,4.966-8.4,11.937-9.072,2.96-.35,4.488-1.241,4.488-2.769-.159-1.56-1.624-2.356-4.488-2.356C370.686,184.4,369.317,185,368.967,186.308Zm8.754,9.1v-2.547a30.742,30.742,0,0,1-5.539,1.655c-2.769.509-4.17,1.814-4.17,3.852.159,2.2,1.305,3.247,3.5,3.247C375.366,201.62,377.721,199.328,377.721,195.412Z" transform="translate(-320.709 -171.219)" fill="#fff"/>
      <path id="Path_15255" data-name="Path 15255" d="M453.529,207.35c-8.34,0-12.638-4.807-12.829-14.293,0-9.454,4.234-14.2,12.733-14.357,6.685,0,10.632,2.96,11.842,8.977H457.7a4.508,4.508,0,0,0-4.488-2.865c-3.661,0-5.475,2.769-5.475,8.245s1.942,8.245,5.794,8.181a5.384,5.384,0,0,0,4.17-1.974,3.225,3.225,0,0,1,2.356-.987h5.221C464,203.912,459.927,207.509,453.529,207.35Z" transform="translate(-374.902 -171.219)" fill="#fff"/>
      <path id="Path_15256" data-name="Path 15256" d="M532.84,158.674v15.28l8.563-9.8h8.34l-9.55,10.218,9.645,16.394H541.5l-4.9-9.072c-.891-1.56-1.783-2.356-2.674-2.356a1.266,1.266,0,0,0-1.082,1.369v10.059H525.9V155.3h3.6A3.411,3.411,0,0,1,532.84,158.674Z" transform="translate(-432.98 -155.268)" fill="#fff"/>
    </g>
    <g id="Group_3432" data-name="Group 3432" transform="translate(230.016 108.42)">
      <g id="Group_3431" data-name="Group 3431" transform="translate(0 0)">
        <path id="Path_15257" data-name="Path 15257" d="M620.767,186.308h-6.94c.828-5.125,4.425-7.608,10.791-7.608,7.608,0,11.492,2.515,11.651,7.608V195.7c0,7.608-4.584,11.014-12.065,11.523-6.621.509-11.205-2.547-11.205-8.659.159-6.621,4.966-8.4,11.937-9.072,2.96-.35,4.488-1.241,4.488-2.769-.159-1.56-1.624-2.356-4.488-2.356C622.486,184.4,621.149,185,620.767,186.308Zm8.786,9.1v-2.547a30.743,30.743,0,0,1-5.539,1.655c-2.769.509-4.17,1.814-4.17,3.852.159,2.2,1.305,3.247,3.5,3.247C627.2,201.62,629.553,199.328,629.553,195.412Z" transform="translate(-613 -171.219)" fill="#ff9866"/>
        <path id="Path_15258" data-name="Path 15258" d="M713.191,206.645c-2.292-.159-3.438-1.241-3.438-3.438v-14.2c-.159-2.865-1.719-4.266-4.807-4.266s-4.648,1.4-4.711,4.266v17.635H693.2V190.41c0-7.895,3.979-11.81,11.842-11.81,7.894,0,11.746,3.915,11.683,11.81v16.235Z" transform="translate(-667.67 -171.151)" fill="#ff9866"/>
        <path id="Path_15259" data-name="Path 15259" d="M781.1,168.06h-.732v15.28c0,1.146.668,1.783,2.037,1.783h2.133v5.284a35.356,35.356,0,0,1-7.321-.064c-2.61-.287-3.852-1.878-3.82-4.966V155.2H777a3.5,3.5,0,0,1,3.342,3.5v4.393h4.17v1.528A3.32,3.32,0,0,1,781.1,168.06Z" transform="translate(-722.339 -155.2)" fill="#ff9866"/>
      </g>
    </g>
  </g>
</svg>
